<svg id="bull" xmlns="http://www.w3.org/2000/svg" viewBox="0 0 120 120">
  <style>
    .st2{fill:#42526e}
  </style>
  <path d="M60 120C27 120 0 93 0 60S27 0 60 0s60 27 60 60-27 60-60 60z" fill="#2684ff" id="color_x5F_bg"/>
  <path d="M77.5 32.5H41c-.5 0-1-.5-2-1L27 23c-2.5-2-6 0-6 3.5V68c0 16 13 29 29 29h19.5C85.5 97 99 84 99 68V26c0-3-3.5-5-6-3.5l-13 9c-1 1-1.5 1-2.5 1z" fill="#ffab00"/>
  <circle class="st2" cx="47" cy="53.5" r="3.5"/>
  <circle class="st2" cx="73" cy="53.5" r="3.5"/>
  <circle class="st2" cx="60" cy="78" r="10"/>
  <path d="M60 61.5H48c-6 0-11 5-11 11s2.5 12 11 12 9.5-10 12-10 4 10 12 10 11-6 11-12-5-11-11-11H60z" fill="#fff"/>
  <path d="M53.5 61.5l4 5.5c1.5 2.1 3.8 2.2 5.5 0l4-5.5H53.5z" fill="#ff5630"/>
  <path d="M60 44c6.5 0 11-5.5 11-11.5H49C49 39 53.5 44 60 44z" fill="#ff8b00"/>
</svg>