<svg id="bull" xmlns="http://www.w3.org/2000/svg" viewBox="0 0 120 120">
  <style>
    .st1{fill:#4c9aff}.st5{fill:#344563}.st6{fill:#0052cc}
  </style>
  <path d="M60 120C27 120 0 93 0 60S27 0 60 0s60 27 60 60-27 60-60 60z" fill="#ffab00"/>
  <path class="st1" d="M96 48H24c-2.5 0-4.5-2-4.5-4.5s2-4.5 4.5-4.5h72c2.5 0 4.5 2 4.5 4.5S98.5 48 96 48zM63.8 101.5h-7.5c-6 0-11-5-11-11h29.5c0 6-5 11-11 11z"/>
  <path d="M78.8 32.5h-37c-.5 0-1.5 0-2-.5l-6.5-5c-2.5-1.5-5.5 0-5.5 2.5V39h64.5v-9.5c0-2.5-3-4-5.5-2.5L81 31.9c-.4.4-1 .6-1.5.6h-.7z" fill="#ebecf0"/>
  <path class="st1" d="M75.8 90.5h-32c-9 0-16-7-16-16V39h64.5v35.5c0 9-7.5 16-16.5 16z"/>
  <path fill="#0065ff" d="M50.5 32.5h19V86h-19z"/>
  <path d="M68 73c-3.5.5-6 4.5-6 8.5 0 .5-.5 1-1 1h-2.5c-.5 0-1-.5-1-1 0-3.5-2.5-7.5-6-8.5-5.5-1-10 2.5-10 8v3.5c0 3 2 6 5 7 2.5 1 7 2 13.5 2s11-.5 13.5-2c3-1 5-4 5-7V81c-.5-5-5-9-10.5-8z" fill="#253858"/>
  <circle class="st5" cx="40" cy="61" r="3.5"/>
  <circle class="st5" cx="81.5" cy="61" r="3.5"/>
  <path class="st6" d="M84.5 54.5H79c-1.5 0-2.5-1-2.5-2.5s1-2.5 2.5-2.5h5.5c1.5 0 2.5 1 2.5 2.5s-1 2.5-2.5 2.5zM42.8 54.5h-5.5c-1.5 0-2.5-1-2.5-2.5s1-2.5 2.5-2.5h5.5c1.5 0 2.5 1 2.5 2.5-.1 1.5-1 2.5-2.5 2.5z"/>
</svg>