<svg id="bull" xmlns="http://www.w3.org/2000/svg" viewBox="0 0 120 120">
  <style>
    .st1{fill:#253858}.st2{fill:#9c633a}
  </style>
  <path id="XMLID_9_" d="M60 120C27 120 0 93 0 60S27 0 60 0s60 27 60 60-27 60-60 60z" fill="#ffab00"/>
  <path id="XMLID_8_" class="st1" d="M89.5 45.5c-2-15-15-26.5-30.5-26.5-15 0-27.5 11-30.5 25.5-3.5 4.5-8 13.5-8 30.5v8.5c0 2.5 2 4 4 4H95c2 0 4-2 4-4V75c.5-13.5-5-23.5-9.5-29.5z"/>
  <path id="XMLID_7_" class="st2" d="M68 44c-3.5 4.5-13 12-33 13-1.5 0-2.5 1-2.5 2.5v16c0 14.5 11.5 26 26 26s26-11.5 26-26v-16c0-1-.5-2-2-2.5-6.5-1.5-11-8.5-12.5-13-.5-1-1.5-1-2 0z"/>
  <path id="XMLID_6_" d="M61 76h-4c-2 0-3.5-2-2.5-4l2.5-3c1-1.5 3-1.5 4 0l2 3c1.5 2 .5 4-2 4z" fill="#cc8352"/>
  <circle id="XMLID_4_" class="st1" cx="47.5" cy="66" r="3"/>
  <circle id="XMLID_3_" class="st1" cx="70.5" cy="66" r="3"/>
  <circle id="XMLID_2_" class="st2" cx="85" cy="68" r="6"/>
  <circle id="XMLID_1_" class="st2" cx="33" cy="68" r="6"/>
  <path class="st1" d="M65.5 83H52c-1.5 0-3 1.5-2.5 3 0 2.5 5.5 6.5 9.5 6.5s9-3.5 9-6.5c0-2.5-.5-3-2.5-3z"/>
</svg>