<svg id="Layer_1" xmlns="http://www.w3.org/2000/svg" viewBox="0 0 120 120">
  <style>
    .st1{fill:#ffab00}.st3{fill:#344563}
  </style>
  <path d="M60 120C27 120 0 93 0 60S27 0 60 0s60 27 60 60-27 60-60 60z" fill="#ff5630"/>
  <path class="st1" d="M102.5 66c.5-3.5-1.5-7-4.5-9-1.5-1-2.5-3-1.5-4.5s1-3.5.5-5.5c-.5-3-3.5-5.5-7-6-4.5-12-16.5-20.5-30-20.5S35 29 30.5 41C27 41 24 43.5 23 47c-.5 2-.5 3.5.5 5.5.5 2 .5 3.5-1.5 4.5-3 2-5.5 5.5-5 9 .5 4 3 7 6.5 8.5v13c0 2 1.5 4 4 4h63c2.5 0 4.5-1.5 4-4V75c4.5-1 8-4 8-9z"/>
  <path d="M60 103c-16 0-29.5-13-29.5-29.5v-26H89V74c.5 16-13 29-29 29z" fill="#ffe2d9"/>
  <path class="st1" d="M74.5 44.5h-46v17H43c8.5 0 13.5-5.5 15.5-8.5.5-.5 2-.5 2.5 0 2.5 4 8.5 12 19.5 12h11V44l-17 .5z"/>
  <circle class="st3" cx="48" cy="72.5" r="3.5"/>
  <circle class="st3" cx="70.5" cy="72.5" r="3.5"/>
  <path class="st3" d="M60 96c5.5 0 9.5-3.5 11.5-8.5.5-2-.5-4-3-4h-17c-2.5 0-3.5 2-3 4 2 5 6 8.5 11.5 8.5z"/>
  <path d="M60 90c-3 0-5 2-6.5 4 2 1.5 4 2 6.5 2s4.5-.5 6.5-2c-1-2-3.5-4-6.5-4z" fill="#de350b"/>
</svg>