<svg id="bull" xmlns="http://www.w3.org/2000/svg" viewBox="0 0 120 120">
  <style>
    .st1{fill:#ffab00}.st2{fill:#ff8b00}.st3{fill:#42526e}
  </style>
  <path d="M60 120C27 120 0 93 0 60S27 0 60 0s60 27 60 60-27 60-60 60z" fill="#00b8d9" id="color_x5F_bg"/>
  <g id="Layer_1_1_">
    <circle class="st1" cx="59.5" cy="88" r="15"/>
    <path class="st2" d="M86 44l-12.5-5 5-12c1-3.5 5-5 8.5-4l6 2.5c5 2 7.5 7.5 5.5 12.5-2 5.5-7.5 7.5-12.5 6zM39 42.5l5-12L32.5 25c-3.5-1.5-7.5 0-9 3.5l-2.5 6c-2 5 0 11 5 13 4.5 2 11 0 13-5z"/>
    <path class="st1" d="M27 74.5l5.5-37c1-6.5 6-11 12.5-11h31c6.5 0 11.5 4.5 12.5 11l5 37C94.5 82 88.5 89 81 89H39.5C32 89 26 82 27 74.5z"/>
    <circle class="st3" cx="76" cy="45" r="3.5"/>
    <circle class="st3" cx="59.5" cy="87" r="8.5"/>
    <circle class="st3" cx="44.5" cy="45" r="3.5"/>
    <path d="M77.5 57.5l-4-3c-4-3-6.5-7.5-6.5-12.5 0-2.5 2-6 4.5-9 2-2.5 0-6-3-6H52c-3 0-5 3.5-3 6 2 3 4.5 6.5 4.5 9 0 5-2 9.5-6.5 12.5l-4 3c-1.5 1-3 3-3 5v19c0 5.5 4 10 9 10.5 4 .5 7-1.5 9-4.5.5-1 2.5-1 3 0 2 3 5.5 5 9 4.5 5-.5 9-5 9-10.5V68.9c0-1.9 0-3.9.3-5.8.4-2.8-.5-4.7-1.8-5.6z" fill="#fff"/>
    <path class="st3" d="M67 81.5L62 84c-1.5.5-3 .5-4.5 0l-5-2.5C51 80.5 50 79 50 77v-2c0-2.5 2.5-5 5-5h10c2.5 0 5 2 5 5v2c0 2-1 3.5-3 4.5z"/>
  </g>
</svg>