<svg xmlns="http://www.w3.org/2000/svg" xmlns:xlink="http://www.w3.org/1999/xlink" xmlns:lucid="lucid" width="900" height="480"><g transform="translate(-60 -100)" lucid:page-tab-id="0_0"><path d="M0 0h1760v1360H0z" fill="#fff"/><path d="M288 120c28.72 0 52 44.77 52 100s-23.28 100-52 100H132c-28.72 0-52-44.77-52-100s23.28-100 52-100z" stroke="#000" stroke-width="2" fill="#b2b2b2" fill-opacity=".43"/><use xlink:href="#a" transform="matrix(1,0,0,1,85,125) translate(59.5 103.25)"/><path d="M80 240h240v60H80z" stroke="#000" stroke-opacity="0" stroke-width="2" fill="#fff" fill-opacity="0"/><use xlink:href="#b" transform="matrix(1,0,0,1,85,245) translate(50.07499999999999 30.025)"/><use xlink:href="#c" transform="matrix(1,0,0,1,85,245) translate(110.02499999999999 30.025)"/><path d="M588 120c28.72 0 52 44.77 52 100s-23.28 100-52 100H432c-28.72 0-52-44.77-52-100s23.28-100 52-100z" stroke="#000" stroke-width="2" fill="#b2b2b2" fill-opacity=".43"/><use xlink:href="#d" transform="matrix(1,0,0,1,385,125) translate(45.16666666666667 103.25)"/><path d="M390 240h240v60H390z" stroke="#000" stroke-opacity="0" stroke-width="2" fill="#fff" fill-opacity="0"/><use xlink:href="#e" transform="matrix(1,0,0,1,395,245) translate(15.324999999999989 30.025)"/><use xlink:href="#f" transform="matrix(1,0,0,1,395,245) translate(46.27499999999999 30.025)"/><use xlink:href="#g" transform="matrix(1,0,0,1,395,245) translate(71.27499999999999 30.025)"/><use xlink:href="#h" transform="matrix(1,0,0,1,395,245) translate(140.825 30.025)"/><path d="M888 120c28.72 0 52 44.77 52 100s-23.28 100-52 100H732c-28.72 0-52-44.77-52-100s23.28-100 52-100z" stroke="#000" stroke-width="2" fill="#b2b2b2" fill-opacity=".43"/><use xlink:href="#i" transform="matrix(1,0,0,1,685,125) translate(18.555555555555543 103.25)"/><path d="M690 240h240v60H690z" stroke="#000" stroke-opacity="0" stroke-width="2" fill="#fff" fill-opacity="0"/><use xlink:href="#j" transform="matrix(1,0,0,1,695,245) translate(18.674999999999983 30.025)"/><use xlink:href="#k" transform="matrix(1,0,0,1,695,245) translate(102.475 30.025)"/><use xlink:href="#l" transform="matrix(1,0,0,1,695,245) translate(133.425 30.025)"/><path d="M288 360c28.72 0 52 44.77 52 100s-23.28 100-52 100H132c-28.72 0-52-44.77-52-100s23.28-100 52-100z" stroke="#000" stroke-width="2" fill="#b2b2b2" fill-opacity=".43"/><use xlink:href="#m" transform="matrix(1,0,0,1,85,365) translate(56.388888888888886 103.25)"/><path d="M588 360c28.72 0 52 44.77 52 100s-23.28 100-52 100H432c-28.72 0-52-44.77-52-100s23.28-100 52-100z" stroke="#000" stroke-width="2" fill="#b2b2b2" fill-opacity=".43"/><use xlink:href="#n" transform="matrix(1,0,0,1,385,365) translate(32.88888888888887 103.25)"/><path d="M888 360c28.72 0 52 44.77 52 100s-23.28 100-52 100H732c-28.72 0-52-44.77-52-100s23.28-100 52-100z" stroke="#000" stroke-width="2" fill="#b2b2b2" fill-opacity=".43"/><use xlink:href="#o" transform="matrix(1,0,0,1,685,365) translate(10.833333333333329 103.25)"/><path d="M90 480h240v60H90z" stroke="#000" stroke-opacity="0" stroke-width="2" fill="#fff" fill-opacity="0"/><g><use xlink:href="#p" transform="matrix(1,0,0,1,95,485) translate(29.625 30.025)"/><use xlink:href="#q" transform="matrix(1,0,0,1,95,485) translate(67.575 30.025)"/><use xlink:href="#r" transform="matrix(1,0,0,1,95,485) translate(98.525 30.025)"/><use xlink:href="#s" transform="matrix(1,0,0,1,95,485) translate(117.47500000000001 30.025)"/></g><path d="M380 480h240v60H380z" stroke="#000" stroke-opacity="0" stroke-width="2" fill="#fff" fill-opacity="0"/><g><use xlink:href="#t" transform="matrix(1,0,0,1,385,485) translate(49.39999999999999 17.525)"/><use xlink:href="#u" transform="matrix(1,0,0,1,385,485) translate(83.39999999999999 17.525)"/><use xlink:href="#v" transform="matrix(1,0,0,1,385,485) translate(98.39999999999999 17.525)"/><use xlink:href="#w" transform="matrix(1,0,0,1,385,485) translate(68.025 39.125)"/></g><path d="M690 480h240v60H690z" stroke="#000" stroke-opacity="0" stroke-width="2" fill="#fff" fill-opacity="0"/><g><use xlink:href="#x" transform="matrix(1,0,0,1,695,485) translate(8.125 17.525)"/><use xlink:href="#y" transform="matrix(1,0,0,1,695,485) translate(38.125 17.525)"/><use xlink:href="#z" transform="matrix(1,0,0,1,695,485) translate(86.125 17.525)"/><use xlink:href="#u" transform="matrix(1,0,0,1,695,485) translate(106.125 17.525)"/><use xlink:href="#A" transform="matrix(1,0,0,1,695,485) translate(121.125 17.525)"/><use xlink:href="#B" transform="matrix(1,0,0,1,695,485) translate(195.925 17.525)"/><use xlink:href="#C" transform="matrix(1,0,0,1,695,485) translate(10.649999999999991 39.125)"/><use xlink:href="#D" transform="matrix(1,0,0,1,695,485) translate(106.55 39.125)"/><use xlink:href="#E" transform="matrix(1,0,0,1,695,485) translate(126.55 39.125)"/></g><defs><path fill="#ef8d22" d="M169-182c-1-43-94-46-97-3 18 66 151 10 154 114 3 95-165 93-204 36-6-8-10-19-12-30l50-8c3 46 112 56 116 5-17-69-150-10-154-114-4-87 153-88 188-35 5 8 8 18 10 28" id="F"/><path fill="#ef8d22" d="M25-224v-37h50v37H25zM25 0v-190h50V0H25" id="G"/><path fill="#ef8d22" d="M220-157c-53 9-28 100-34 157h-49v-107c1-27-5-49-29-50C55-147 81-57 75 0H25l-1-190h47c2 12-1 28 3 38 10-53 101-56 108 0 13-22 24-43 59-42 82 1 51 116 57 194h-49v-107c-1-25-5-48-29-50" id="H"/><path fill="#ef8d22" d="M135-194c53 0 70 44 70 98 0 56-19 98-73 100-31 1-45-17-59-34 3 33 2 69 2 105H25l-1-265h48c2 10 0 23 3 31 11-24 29-35 60-35zM114-30c33 0 39-31 40-66 0-38-9-64-40-64-56 0-55 130 0 130" id="I"/><path fill="#ef8d22" d="M25 0v-261h50V0H25" id="J"/><path fill="#ef8d22" d="M185-48c-13 30-37 53-82 52C43 2 14-33 14-96s30-98 90-98c62 0 83 45 84 108H66c0 31 8 55 39 56 18 0 30-7 34-22zm-45-69c5-46-57-63-70-21-2 6-4 13-4 21h74" id="K"/><g id="a"><use transform="matrix(0.1111111111111111,0,0,0.1111111111111111,0,0)" xlink:href="#F"/><use transform="matrix(0.1111111111111111,0,0,0.1111111111111111,26.666666666666664,0)" xlink:href="#G"/><use transform="matrix(0.1111111111111111,0,0,0.1111111111111111,37.77777777777777,0)" xlink:href="#H"/><use transform="matrix(0.1111111111111111,0,0,0.1111111111111111,73.33333333333333,0)" xlink:href="#I"/><use transform="matrix(0.1111111111111111,0,0,0.1111111111111111,97.66666666666666,0)" xlink:href="#J"/><use transform="matrix(0.1111111111111111,0,0,0.1111111111111111,108.77777777777777,0)" xlink:href="#K"/></g><path d="M106-169C34-169 62-67 57 0H25v-261h32l-1 103c12-21 28-36 61-36 89 0 53 116 60 194h-32v-121c2-32-8-49-39-48" id="L"/><path d="M84 4C-5 8 30-112 23-190h32v120c0 31 7 50 39 49 72-2 45-101 50-169h31l1 190h-30c-1-10 1-25-2-33-11 22-28 36-60 37" id="M"/><path d="M210-169c-67 3-38 105-44 169h-31v-121c0-29-5-50-35-48C34-165 62-65 56 0H25l-1-190h30c1 10-1 24 2 32 10-44 99-50 107 0 11-21 27-35 58-36 85-2 47 119 55 194h-31v-121c0-29-5-49-35-48" id="N"/><path d="M141-36C126-15 110 5 73 4 37 3 15-17 15-53c-1-64 63-63 125-63 3-35-9-54-41-54-24 1-41 7-42 31l-33-3c5-37 33-52 76-52 45 0 72 20 72 64v82c-1 20 7 32 28 27v20c-31 9-61-2-59-35zM48-53c0 20 12 33 32 33 41-3 63-29 60-74-43 2-92-5-92 41" id="O"/><path d="M117-194c89-4 53 116 60 194h-32v-121c0-31-8-49-39-48C34-167 62-67 57 0H25l-1-190h30c1 10-1 24 2 32 11-22 29-35 61-36" id="P"/><g id="b"><use transform="matrix(0.05,0,0,0.05,0,0)" xlink:href="#L"/><use transform="matrix(0.05,0,0,0.05,10,0)" xlink:href="#M"/><use transform="matrix(0.05,0,0,0.05,20,0)" xlink:href="#N"/><use transform="matrix(0.05,0,0,0.05,34.95,0)" xlink:href="#O"/><use transform="matrix(0.05,0,0,0.05,44.95,0)" xlink:href="#P"/></g><path d="M114-163C36-179 61-72 57 0H25l-1-190h30c1 12-1 29 2 39 6-27 23-49 58-41v29" id="Q"/><path d="M100-194c63 0 86 42 84 106H49c0 40 14 67 53 68 26 1 43-12 49-29l28 8c-11 28-37 45-77 45C44 4 14-33 15-96c1-61 26-98 85-98zm52 81c6-60-76-77-97-28-3 7-6 17-6 28h103" id="R"/><path d="M85-194c31 0 48 13 60 33l-1-100h32l1 261h-30c-2-10 0-23-3-31C134-8 116 4 85 4 32 4 16-35 15-94c0-66 23-100 70-100zm9 24c-40 0-46 34-46 75 0 40 6 74 45 74 42 0 51-32 51-76 0-42-9-74-50-73" id="S"/><path d="M115-194c53 0 69 39 70 98 0 66-23 100-70 100C84 3 66-7 56-30L54 0H23l1-261h32v101c10-23 28-34 59-34zm-8 174c40 0 45-34 45-75 0-40-5-75-45-74-42 0-51 32-51 76 0 43 10 73 51 73" id="T"/><path d="M24 0v-261h32V0H24" id="U"/><g id="c"><use transform="matrix(0.05,0,0,0.05,0,0)" xlink:href="#Q"/><use transform="matrix(0.05,0,0,0.05,5.95,0)" xlink:href="#R"/><use transform="matrix(0.05,0,0,0.05,15.949999999999998,0)" xlink:href="#O"/><use transform="matrix(0.05,0,0,0.05,25.950000000000003,0)" xlink:href="#S"/><use transform="matrix(0.05,0,0,0.05,35.95,0)" xlink:href="#O"/><use transform="matrix(0.05,0,0,0.05,45.95,0)" xlink:href="#T"/><use transform="matrix(0.05,0,0,0.05,55.95,0)" xlink:href="#U"/><use transform="matrix(0.05,0,0,0.05,59.900000000000006,0)" xlink:href="#R"/></g><path fill="#2b1cc5" d="M24-248c93 1 206-16 204 79-1 75-69 88-152 82V0H24v-248zm52 121c47 0 100 7 100-41 0-47-54-39-100-39v80" id="V"/><path fill="#2b1cc5" d="M110-194c64 0 96 36 96 99 0 64-35 99-97 99-61 0-95-36-95-99 0-62 34-99 96-99zm-1 164c35 0 45-28 45-65 0-40-10-65-43-65-34 0-45 26-45 65 0 36 10 65 43 65" id="W"/><path fill="#2b1cc5" d="M135-150c-39-12-60 13-60 57V0H25l-1-190h47c2 13-1 29 3 40 6-28 27-53 61-41v41" id="X"/><path fill="#2b1cc5" d="M115-3C79 11 28 4 28-45v-112H4v-33h27l15-45h31v45h36v33H77v99c-1 23 16 31 38 25v30" id="Y"/><path fill="#2b1cc5" d="M133-34C117-15 103 5 69 4 32 3 11-16 11-54c-1-60 55-63 116-61 1-26-3-47-28-47-18 1-26 9-28 27l-52-2c7-38 36-58 82-57s74 22 75 68l1 82c-1 14 12 18 25 15v27c-30 8-71 5-69-32zm-48 3c29 0 43-24 42-57-32 0-66-3-65 30 0 17 8 27 23 27" id="Z"/><path fill="#2b1cc5" d="M135-194c52 0 70 43 70 98 0 56-19 99-73 100-30 1-46-15-58-35L72 0H24l1-261h50v104c11-23 29-37 60-37zM114-30c31 0 40-27 40-66 0-37-7-63-39-63s-41 28-41 65c0 36 8 64 40 64" id="aa"/><path fill="#2b1cc5" d="M25 0v-261h50V0H25" id="ab"/><path fill="#2b1cc5" d="M185-48c-13 30-37 53-82 52C43 2 14-33 14-96s30-98 90-98c62 0 83 45 84 108H66c0 31 8 55 39 56 18 0 30-7 34-22zm-45-69c5-46-57-63-70-21-2 6-4 13-4 21h74" id="ac"/><g id="d"><use transform="matrix(0.1111111111111111,0,0,0.1111111111111111,0,0)" xlink:href="#V"/><use transform="matrix(0.1111111111111111,0,0,0.1111111111111111,26.666666666666664,0)" xlink:href="#W"/><use transform="matrix(0.1111111111111111,0,0,0.1111111111111111,51,0)" xlink:href="#X"/><use transform="matrix(0.1111111111111111,0,0,0.1111111111111111,66.55555555555556,0)" xlink:href="#Y"/><use transform="matrix(0.1111111111111111,0,0,0.1111111111111111,79.77777777777777,0)" xlink:href="#Z"/><use transform="matrix(0.1111111111111111,0,0,0.1111111111111111,102,0)" xlink:href="#aa"/><use transform="matrix(0.1111111111111111,0,0,0.1111111111111111,126.33333333333333,0)" xlink:href="#ab"/><use transform="matrix(0.1111111111111111,0,0,0.1111111111111111,137.44444444444443,0)" xlink:href="#ac"/></g><g id="e"><use transform="matrix(0.05,0,0,0.05,0,0)" xlink:href="#Q"/><use transform="matrix(0.05,0,0,0.05,5.95,0)" xlink:href="#M"/><use transform="matrix(0.05,0,0,0.05,15.949999999999998,0)" xlink:href="#P"/></g><path d="M100-194c62-1 85 37 85 99 1 63-27 99-86 99S16-35 15-95c0-66 28-99 85-99zM99-20c44 1 53-31 53-75 0-43-8-75-51-75s-53 32-53 75 10 74 51 75" id="ad"/><g id="f"><use transform="matrix(0.05,0,0,0.05,0,0)" xlink:href="#ad"/><use transform="matrix(0.05,0,0,0.05,10,0)" xlink:href="#P"/></g><path d="M24-231v-30h32v30H24zM24 0v-190h32V0H24" id="ae"/><path d="M101-234c-31-9-42 10-38 44h38v23H63V0H32v-167H5v-23h27c-7-52 17-82 69-68v24" id="af"/><path d="M59-47c-2 24 18 29 38 22v24C64 9 27 4 27-40v-127H5v-23h24l9-43h21v43h35v23H59v120" id="ag"/><g id="g"><use transform="matrix(0.05,0,0,0.05,0,0)" xlink:href="#S"/><use transform="matrix(0.05,0,0,0.05,10,0)" xlink:href="#ae"/><use transform="matrix(0.05,0,0,0.05,13.949999999999998,0)" xlink:href="#af"/><use transform="matrix(0.05,0,0,0.05,18.6,0)" xlink:href="#af"/><use transform="matrix(0.05,0,0,0.05,23.6,0)" xlink:href="#R"/><use transform="matrix(0.05,0,0,0.05,33.6,0)" xlink:href="#Q"/><use transform="matrix(0.05,0,0,0.05,39.550000000000004,0)" xlink:href="#R"/><use transform="matrix(0.05,0,0,0.05,49.550000000000004,0)" xlink:href="#P"/><use transform="matrix(0.05,0,0,0.05,59.550000000000004,0)" xlink:href="#ag"/></g><path d="M115-194c55 1 70 41 70 98S169 2 115 4C84 4 66-9 55-30l1 105H24l-1-265h31l2 30c10-21 28-34 59-34zm-8 174c40 0 45-34 45-75s-6-73-45-74c-42 0-51 32-51 76 0 43 10 73 51 73" id="ah"/><path d="M135-143c-3-34-86-38-87 0 15 53 115 12 119 90S17 21 10-45l28-5c4 36 97 45 98 0-10-56-113-15-118-90-4-57 82-63 122-42 12 7 21 19 24 35" id="ai"/><g id="h"><use transform="matrix(0.05,0,0,0.05,0,0)" xlink:href="#ah"/><use transform="matrix(0.05,0,0,0.05,10,0)" xlink:href="#U"/><use transform="matrix(0.05,0,0,0.05,13.949999999999998,0)" xlink:href="#O"/><use transform="matrix(0.05,0,0,0.05,23.95,0)" xlink:href="#ag"/><use transform="matrix(0.05,0,0,0.05,28.950000000000003,0)" xlink:href="#af"/><use transform="matrix(0.05,0,0,0.05,33.95,0)" xlink:href="#ad"/><use transform="matrix(0.05,0,0,0.05,43.95,0)" xlink:href="#Q"/><use transform="matrix(0.05,0,0,0.05,49.900000000000006,0)" xlink:href="#N"/><use transform="matrix(0.05,0,0,0.05,64.85000000000001,0)" xlink:href="#ai"/></g><path fill="#bd8429" d="M240-174c0 40-23 61-54 70L253 0h-59l-57-94H76V0H24v-248c93 4 217-23 216 74zM76-134c48-2 112 12 112-38 0-48-66-32-112-35v73" id="aj"/><path fill="#bd8429" d="M185-48c-13 30-37 53-82 52C43 2 14-33 14-96s30-98 90-98c62 0 83 45 84 108H66c0 31 8 55 39 56 18 0 30-7 34-22zm-45-69c5-46-57-63-70-21-2 6-4 13-4 21h74" id="ak"/><path fill="#bd8429" d="M135-194c53 0 70 44 70 98 0 56-19 98-73 100-31 1-45-17-59-34 3 33 2 69 2 105H25l-1-265h48c2 10 0 23 3 31 11-24 29-35 60-35zM114-30c33 0 39-31 40-66 0-38-9-64-40-64-56 0-55 130 0 130" id="al"/><path fill="#bd8429" d="M133-34C117-15 103 5 69 4 32 3 11-16 11-54c-1-60 55-63 116-61 1-26-3-47-28-47-18 1-26 9-28 27l-52-2c7-38 36-58 82-57s74 22 75 68l1 82c-1 14 12 18 25 15v27c-30 8-71 5-69-32zm-48 3c29 0 43-24 42-57-32 0-66-3-65 30 0 17 8 27 23 27" id="am"/><path fill="#bd8429" d="M115-3C79 11 28 4 28-45v-112H4v-33h27l15-45h31v45h36v33H77v99c-1 23 16 31 38 25v30" id="an"/><path fill="#bd8429" d="M135-194c52 0 70 43 70 98 0 56-19 99-73 100-30 1-46-15-58-35L72 0H24l1-261h50v104c11-23 29-37 60-37zM114-30c31 0 40-27 40-66 0-37-7-63-39-63s-41 28-41 65c0 36 8 64 40 64" id="ao"/><path fill="#bd8429" d="M25 0v-261h50V0H25" id="ap"/><g id="i"><use transform="matrix(0.1111111111111111,0,0,0.1111111111111111,0,0)" xlink:href="#aj"/><use transform="matrix(0.1111111111111111,0,0,0.1111111111111111,28.777777777777775,0)" xlink:href="#ak"/><use transform="matrix(0.1111111111111111,0,0,0.1111111111111111,51,0)" xlink:href="#al"/><use transform="matrix(0.1111111111111111,0,0,0.1111111111111111,75.33333333333333,0)" xlink:href="#ak"/><use transform="matrix(0.1111111111111111,0,0,0.1111111111111111,97.55555555555554,0)" xlink:href="#am"/><use transform="matrix(0.1111111111111111,0,0,0.1111111111111111,119.77777777777777,0)" xlink:href="#an"/><use transform="matrix(0.1111111111111111,0,0,0.1111111111111111,133,0)" xlink:href="#am"/><use transform="matrix(0.1111111111111111,0,0,0.1111111111111111,155.22222222222223,0)" xlink:href="#ao"/><use transform="matrix(0.1111111111111111,0,0,0.1111111111111111,179.55555555555557,0)" xlink:href="#ap"/><use transform="matrix(0.1111111111111111,0,0,0.1111111111111111,190.66666666666669,0)" xlink:href="#ak"/></g><path d="M206 0h-36l-40-164L89 0H53L-1-190h32L70-26l43-164h34l41 164 42-164h31" id="aq"/><path d="M143 0L79-87 56-68V0H24v-261h32v163l83-92h37l-77 82L181 0h-38" id="ar"/><g id="j"><use transform="matrix(0.05,0,0,0.05,0,0)" xlink:href="#aq"/><use transform="matrix(0.05,0,0,0.05,12.950000000000001,0)" xlink:href="#ad"/><use transform="matrix(0.05,0,0,0.05,22.950000000000003,0)" xlink:href="#Q"/><use transform="matrix(0.05,0,0,0.05,28.900000000000002,0)" xlink:href="#ar"/><use transform="matrix(0.05,0,0,0.05,37.900000000000006,0)" xlink:href="#af"/><use transform="matrix(0.05,0,0,0.05,42.900000000000006,0)" xlink:href="#U"/><use transform="matrix(0.05,0,0,0.05,46.85000000000001,0)" xlink:href="#ad"/><use transform="matrix(0.05,0,0,0.05,56.85,0)" xlink:href="#aq"/><use transform="matrix(0.05,0,0,0.05,69.80000000000001,0)" xlink:href="#ai"/></g><g id="k"><use transform="matrix(0.05,0,0,0.05,0,0)" xlink:href="#O"/><use transform="matrix(0.05,0,0,0.05,10,0)" xlink:href="#Q"/><use transform="matrix(0.05,0,0,0.05,15.949999999999998,0)" xlink:href="#R"/></g><path d="M108 0H70L1-190h34L89-25l56-165h34" id="as"/><g id="l"><use transform="matrix(0.05,0,0,0.05,0,0)" xlink:href="#as"/><use transform="matrix(0.05,0,0,0.05,9,0)" xlink:href="#R"/><use transform="matrix(0.05,0,0,0.05,19,0)" xlink:href="#Q"/><use transform="matrix(0.05,0,0,0.05,24.95,0)" xlink:href="#ai"/><use transform="matrix(0.05,0,0,0.05,33.95,0)" xlink:href="#ae"/><use transform="matrix(0.05,0,0,0.05,37.900000000000006,0)" xlink:href="#ad"/><use transform="matrix(0.05,0,0,0.05,47.900000000000006,0)" xlink:href="#P"/><use transform="matrix(0.05,0,0,0.05,57.900000000000006,0)" xlink:href="#R"/><use transform="matrix(0.05,0,0,0.05,67.9,0)" xlink:href="#S"/></g><path fill="#3c6865" d="M240-174c0 40-23 61-54 70L253 0h-59l-57-94H76V0H24v-248c93 4 217-23 216 74zM76-134c48-2 112 12 112-38 0-48-66-32-112-35v73" id="at"/><path fill="#3c6865" d="M110-194c64 0 96 36 96 99 0 64-35 99-97 99-61 0-95-36-95-99 0-62 34-99 96-99zm-1 164c35 0 45-28 45-65 0-40-10-65-43-65-34 0-45 26-45 65 0 36 10 65 43 65" id="au"/><path fill="#3c6865" d="M135-194c52 0 70 43 70 98 0 56-19 99-73 100-30 1-46-15-58-35L72 0H24l1-261h50v104c11-23 29-37 60-37zM114-30c31 0 40-27 40-66 0-37-7-63-39-63s-41 28-41 65c0 36 8 64 40 64" id="av"/><path fill="#3c6865" d="M85 4C-2 5 27-109 22-190h50c7 57-23 150 33 157 60-5 35-97 40-157h50l1 190h-47c-2-12 1-28-3-38-12 25-28 42-61 42" id="aw"/><path fill="#3c6865" d="M137-138c1-29-70-34-71-4 15 46 118 7 119 86 1 83-164 76-172 9l43-7c4 19 20 25 44 25 33 8 57-30 24-41C81-84 22-81 20-136c-2-80 154-74 161-7" id="ax"/><path fill="#3c6865" d="M115-3C79 11 28 4 28-45v-112H4v-33h27l15-45h31v45h36v33H77v99c-1 23 16 31 38 25v30" id="ay"/><g id="m"><use transform="matrix(0.1111111111111111,0,0,0.1111111111111111,0,0)" xlink:href="#at"/><use transform="matrix(0.1111111111111111,0,0,0.1111111111111111,28.777777777777775,0)" xlink:href="#au"/><use transform="matrix(0.1111111111111111,0,0,0.1111111111111111,53.11111111111111,0)" xlink:href="#av"/><use transform="matrix(0.1111111111111111,0,0,0.1111111111111111,77.44444444444444,0)" xlink:href="#aw"/><use transform="matrix(0.1111111111111111,0,0,0.1111111111111111,101.77777777777777,0)" xlink:href="#ax"/><use transform="matrix(0.1111111111111111,0,0,0.1111111111111111,124,0)" xlink:href="#ay"/></g><path fill="#8d5530" d="M136-208V0H84v-208H4v-40h212v40h-80" id="az"/><path fill="#8d5530" d="M135-150c-39-12-60 13-60 57V0H25l-1-190h47c2 13-1 29 3 40 6-28 27-53 61-41v41" id="aA"/><path fill="#8d5530" d="M133-34C117-15 103 5 69 4 32 3 11-16 11-54c-1-60 55-63 116-61 1-26-3-47-28-47-18 1-26 9-28 27l-52-2c7-38 36-58 82-57s74 22 75 68l1 82c-1 14 12 18 25 15v27c-30 8-71 5-69-32zm-48 3c29 0 43-24 42-57-32 0-66-3-65 30 0 17 8 27 23 27" id="aB"/><path fill="#8d5530" d="M190-63c-7 42-38 67-86 67-59 0-84-38-90-98-12-110 154-137 174-36l-49 2c-2-19-15-32-35-32-30 0-35 28-38 64-6 74 65 87 74 30" id="aC"/><path fill="#8d5530" d="M185-48c-13 30-37 53-82 52C43 2 14-33 14-96s30-98 90-98c62 0 83 45 84 108H66c0 31 8 55 39 56 18 0 30-7 34-22zm-45-69c5-46-57-63-70-21-2 6-4 13-4 21h74" id="aD"/><path fill="#8d5530" d="M135-194c52 0 70 43 70 98 0 56-19 99-73 100-30 1-46-15-58-35L72 0H24l1-261h50v104c11-23 29-37 60-37zM114-30c31 0 40-27 40-66 0-37-7-63-39-63s-41 28-41 65c0 36 8 64 40 64" id="aE"/><path fill="#8d5530" d="M25 0v-261h50V0H25" id="aF"/><g id="n"><use transform="matrix(0.1111111111111111,0,0,0.1111111111111111,0,0)" xlink:href="#az"/><use transform="matrix(0.1111111111111111,0,0,0.1111111111111111,22.11111111111111,0)" xlink:href="#aA"/><use transform="matrix(0.1111111111111111,0,0,0.1111111111111111,37.666666666666664,0)" xlink:href="#aB"/><use transform="matrix(0.1111111111111111,0,0,0.1111111111111111,59.888888888888886,0)" xlink:href="#aC"/><use transform="matrix(0.1111111111111111,0,0,0.1111111111111111,82.11111111111111,0)" xlink:href="#aD"/><use transform="matrix(0.1111111111111111,0,0,0.1111111111111111,104.33333333333334,0)" xlink:href="#aB"/><use transform="matrix(0.1111111111111111,0,0,0.1111111111111111,126.55555555555557,0)" xlink:href="#aE"/><use transform="matrix(0.1111111111111111,0,0,0.1111111111111111,150.8888888888889,0)" xlink:href="#aF"/><use transform="matrix(0.1111111111111111,0,0,0.1111111111111111,162.00000000000003,0)" xlink:href="#aD"/></g><path fill="#55643b" d="M136-208V0H84v-208H4v-40h212v40h-80" id="aG"/><path fill="#55643b" d="M135-150c-39-12-60 13-60 57V0H25l-1-190h47c2 13-1 29 3 40 6-28 27-53 61-41v41" id="aH"/><path fill="#55643b" d="M133-34C117-15 103 5 69 4 32 3 11-16 11-54c-1-60 55-63 116-61 1-26-3-47-28-47-18 1-26 9-28 27l-52-2c7-38 36-58 82-57s74 22 75 68l1 82c-1 14 12 18 25 15v27c-30 8-71 5-69-32zm-48 3c29 0 43-24 42-57-32 0-66-3-65 30 0 17 8 27 23 27" id="aI"/><path fill="#55643b" d="M135-194c87-1 58 113 63 194h-50c-7-57 23-157-34-157-59 0-34 97-39 157H25l-1-190h47c2 12-1 28 3 38 12-26 28-41 61-42" id="aJ"/><path fill="#55643b" d="M137-138c1-29-70-34-71-4 15 46 118 7 119 86 1 83-164 76-172 9l43-7c4 19 20 25 44 25 33 8 57-30 24-41C81-84 22-81 20-136c-2-80 154-74 161-7" id="aK"/><path fill="#55643b" d="M135-194c53 0 70 44 70 98 0 56-19 98-73 100-31 1-45-17-59-34 3 33 2 69 2 105H25l-1-265h48c2 10 0 23 3 31 11-24 29-35 60-35zM114-30c33 0 39-31 40-66 0-38-9-64-40-64-56 0-55 130 0 130" id="aL"/><path fill="#55643b" d="M185-48c-13 30-37 53-82 52C43 2 14-33 14-96s30-98 90-98c62 0 83 45 84 108H66c0 31 8 55 39 56 18 0 30-7 34-22zm-45-69c5-46-57-63-70-21-2 6-4 13-4 21h74" id="aM"/><path fill="#55643b" d="M115-3C79 11 28 4 28-45v-112H4v-33h27l15-45h31v45h36v33H77v99c-1 23 16 31 38 25v30" id="aN"/><g id="o"><use transform="matrix(0.1111111111111111,0,0,0.1111111111111111,0,0)" xlink:href="#aG"/><use transform="matrix(0.1111111111111111,0,0,0.1111111111111111,22.11111111111111,0)" xlink:href="#aH"/><use transform="matrix(0.1111111111111111,0,0,0.1111111111111111,37.666666666666664,0)" xlink:href="#aI"/><use transform="matrix(0.1111111111111111,0,0,0.1111111111111111,59.888888888888886,0)" xlink:href="#aJ"/><use transform="matrix(0.1111111111111111,0,0,0.1111111111111111,84.22222222222221,0)" xlink:href="#aK"/><use transform="matrix(0.1111111111111111,0,0,0.1111111111111111,106.44444444444443,0)" xlink:href="#aL"/><use transform="matrix(0.1111111111111111,0,0,0.1111111111111111,130.77777777777777,0)" xlink:href="#aI"/><use transform="matrix(0.1111111111111111,0,0,0.1111111111111111,153,0)" xlink:href="#aH"/><use transform="matrix(0.1111111111111111,0,0,0.1111111111111111,168.55555555555554,0)" xlink:href="#aM"/><use transform="matrix(0.1111111111111111,0,0,0.1111111111111111,190.77777777777777,0)" xlink:href="#aJ"/><use transform="matrix(0.1111111111111111,0,0,0.1111111111111111,215.11111111111111,0)" xlink:href="#aN"/></g><path d="M24-231v-30h32v30H24zM-9 49c24 4 33-6 33-30v-209h32V24c2 40-23 58-65 49V49" id="aO"/><g id="p"><use transform="matrix(0.05,0,0,0.05,0,0)" xlink:href="#aO"/><use transform="matrix(0.05,0,0,0.05,3.95,0)" xlink:href="#ad"/><use transform="matrix(0.05,0,0,0.05,13.949999999999998,0)" xlink:href="#T"/><use transform="matrix(0.05,0,0,0.05,23.95,0)" xlink:href="#ai"/></g><g id="q"><use transform="matrix(0.05,0,0,0.05,0,0)" xlink:href="#Q"/><use transform="matrix(0.05,0,0,0.05,5.95,0)" xlink:href="#M"/><use transform="matrix(0.05,0,0,0.05,15.949999999999998,0)" xlink:href="#P"/></g><g id="r"><use transform="matrix(0.05,0,0,0.05,0,0)" xlink:href="#ae"/><use transform="matrix(0.05,0,0,0.05,3.95,0)" xlink:href="#P"/></g><path d="M96-169c-40 0-48 33-48 73s9 75 48 75c24 0 41-14 43-38l32 2c-6 37-31 61-74 61-59 0-76-41-82-99-10-93 101-131 147-64 4 7 5 14 7 22l-32 3c-4-21-16-35-41-35" id="aP"/><g id="s"><use transform="matrix(0.05,0,0,0.05,0,0)" xlink:href="#aP"/><use transform="matrix(0.05,0,0,0.05,9,0)" xlink:href="#ad"/><use transform="matrix(0.05,0,0,0.05,19,0)" xlink:href="#P"/><use transform="matrix(0.05,0,0,0.05,29,0)" xlink:href="#ag"/><use transform="matrix(0.05,0,0,0.05,34,0)" xlink:href="#O"/><use transform="matrix(0.05,0,0,0.05,44,0)" xlink:href="#ae"/><use transform="matrix(0.05,0,0,0.05,47.95,0)" xlink:href="#P"/><use transform="matrix(0.05,0,0,0.05,57.95,0)" xlink:href="#R"/><use transform="matrix(0.05,0,0,0.05,67.95,0)" xlink:href="#Q"/><use transform="matrix(0.05,0,0,0.05,73.9,0)" xlink:href="#ai"/></g><g id="t"><use transform="matrix(0.05,0,0,0.05,0,0)" xlink:href="#ai"/><use transform="matrix(0.05,0,0,0.05,9,0)" xlink:href="#R"/><use transform="matrix(0.05,0,0,0.05,19,0)" xlink:href="#R"/></g><use transform="matrix(0.05,0,0,0.05,0,0)" xlink:href="#O" id="u"/><path d="M47-170H22l-4-78h33" id="aQ"/><g id="v"><use transform="matrix(0.05,0,0,0.05,0,0)" xlink:href="#aq"/><use transform="matrix(0.05,0,0,0.05,12.950000000000001,0)" xlink:href="#ad"/><use transform="matrix(0.05,0,0,0.05,22.950000000000003,0)" xlink:href="#Q"/><use transform="matrix(0.05,0,0,0.05,28.900000000000002,0)" xlink:href="#ar"/><use transform="matrix(0.05,0,0,0.05,37.900000000000006,0)" xlink:href="#af"/><use transform="matrix(0.05,0,0,0.05,42.900000000000006,0)" xlink:href="#U"/><use transform="matrix(0.05,0,0,0.05,46.85000000000001,0)" xlink:href="#ad"/><use transform="matrix(0.05,0,0,0.05,56.85,0)" xlink:href="#aq"/><use transform="matrix(0.05,0,0,0.05,69.80000000000001,0)" xlink:href="#aQ"/><use transform="matrix(0.05,0,0,0.05,73.20000000000002,0)" xlink:href="#ai"/></g><g id="w"><use transform="matrix(0.05,0,0,0.05,0,0)" xlink:href="#ah"/><use transform="matrix(0.05,0,0,0.05,10,0)" xlink:href="#Q"/><use transform="matrix(0.05,0,0,0.05,15.949999999999998,0)" xlink:href="#ad"/><use transform="matrix(0.05,0,0,0.05,25.950000000000003,0)" xlink:href="#as"/><use transform="matrix(0.05,0,0,0.05,34.95,0)" xlink:href="#R"/><use transform="matrix(0.05,0,0,0.05,44.95,0)" xlink:href="#P"/><use transform="matrix(0.05,0,0,0.05,54.95,0)" xlink:href="#O"/><use transform="matrix(0.05,0,0,0.05,64.95,0)" xlink:href="#P"/><use transform="matrix(0.05,0,0,0.05,74.95,0)" xlink:href="#aP"/><use transform="matrix(0.05,0,0,0.05,83.95,0)" xlink:href="#R"/></g><g id="x"><use transform="matrix(0.05,0,0,0.05,0,0)" xlink:href="#ag"/><use transform="matrix(0.05,0,0,0.05,5,0)" xlink:href="#L"/><use transform="matrix(0.05,0,0,0.05,15,0)" xlink:href="#R"/></g><g id="y"><use transform="matrix(0.05,0,0,0.05,0,0)" xlink:href="#ai"/><use transform="matrix(0.05,0,0,0.05,9,0)" xlink:href="#ag"/><use transform="matrix(0.05,0,0,0.05,14,0)" xlink:href="#R"/><use transform="matrix(0.05,0,0,0.05,24,0)" xlink:href="#ah"/><use transform="matrix(0.05,0,0,0.05,34,0)" xlink:href="#ai"/></g><g id="z"><use transform="matrix(0.05,0,0,0.05,0,0)" xlink:href="#ad"/><use transform="matrix(0.05,0,0,0.05,10,0)" xlink:href="#af"/></g><g id="A"><use transform="matrix(0.05,0,0,0.05,0,0)" xlink:href="#aq"/><use transform="matrix(0.05,0,0,0.05,12.950000000000001,0)" xlink:href="#ad"/><use transform="matrix(0.05,0,0,0.05,22.950000000000003,0)" xlink:href="#Q"/><use transform="matrix(0.05,0,0,0.05,28.900000000000002,0)" xlink:href="#ar"/><use transform="matrix(0.05,0,0,0.05,37.900000000000006,0)" xlink:href="#af"/><use transform="matrix(0.05,0,0,0.05,42.900000000000006,0)" xlink:href="#U"/><use transform="matrix(0.05,0,0,0.05,46.85000000000001,0)" xlink:href="#ad"/><use transform="matrix(0.05,0,0,0.05,56.85,0)" xlink:href="#aq"/></g><g id="B"><use transform="matrix(0.05,0,0,0.05,0,0)" xlink:href="#O"/><use transform="matrix(0.05,0,0,0.05,10,0)" xlink:href="#Q"/><use transform="matrix(0.05,0,0,0.05,15.949999999999998,0)" xlink:href="#R"/></g><g id="C"><use transform="matrix(0.05,0,0,0.05,0,0)" xlink:href="#ag"/><use transform="matrix(0.05,0,0,0.05,5,0)" xlink:href="#Q"/><use transform="matrix(0.05,0,0,0.05,10.95,0)" xlink:href="#O"/><use transform="matrix(0.05,0,0,0.05,20.95,0)" xlink:href="#P"/><use transform="matrix(0.05,0,0,0.05,30.950000000000003,0)" xlink:href="#ai"/><use transform="matrix(0.05,0,0,0.05,39.95,0)" xlink:href="#ah"/><use transform="matrix(0.05,0,0,0.05,49.95,0)" xlink:href="#O"/><use transform="matrix(0.05,0,0,0.05,59.95,0)" xlink:href="#Q"/><use transform="matrix(0.05,0,0,0.05,65.9,0)" xlink:href="#R"/><use transform="matrix(0.05,0,0,0.05,75.9,0)" xlink:href="#P"/><use transform="matrix(0.05,0,0,0.05,85.9,0)" xlink:href="#ag"/></g><g id="D"><use transform="matrix(0.05,0,0,0.05,0,0)" xlink:href="#ag"/><use transform="matrix(0.05,0,0,0.05,5,0)" xlink:href="#ad"/></g><g id="E"><use transform="matrix(0.05,0,0,0.05,0,0)" xlink:href="#N"/><use transform="matrix(0.05,0,0,0.05,14.950000000000001,0)" xlink:href="#O"/><use transform="matrix(0.05,0,0,0.05,24.950000000000003,0)" xlink:href="#ae"/><use transform="matrix(0.05,0,0,0.05,28.900000000000002,0)" xlink:href="#P"/><use transform="matrix(0.05,0,0,0.05,38.900000000000006,0)" xlink:href="#ag"/><use transform="matrix(0.05,0,0,0.05,43.900000000000006,0)" xlink:href="#O"/><use transform="matrix(0.05,0,0,0.05,53.900000000000006,0)" xlink:href="#ae"/><use transform="matrix(0.05,0,0,0.05,57.85,0)" xlink:href="#P"/><use transform="matrix(0.05,0,0,0.05,67.85000000000001,0)" xlink:href="#R"/><use transform="matrix(0.05,0,0,0.05,77.85000000000001,0)" xlink:href="#Q"/><use transform="matrix(0.05,0,0,0.05,83.80000000000001,0)" xlink:href="#ai"/></g></defs></g></svg>