<svg xmlns="http://www.w3.org/2000/svg" xmlns:xlink="http://www.w3.org/1999/xlink" xmlns:lucid="lucid" width="1734.26" height="1347"><g transform="translate(-19.740740740740733 20)" lucid:page-tab-id="0_0"><path d="M1524 660c8.84 0 16 26.86 16 60s-7.16 60-16 60h-128c-8.84 0-16-26.86-16-60s7.16-60 16-60z" stroke="#000" stroke-width="2" fill="#fff"/><path d="M1524 780c-8.84 0-16-26.86-16-60s7.16-60 16-60" stroke="#000" stroke-width="2" fill="none"/><use xlink:href="#a" transform="matrix(1,0,0,1,1385,665) translate(47.525 59.0875)"/><path d="M204 640c8.84 0 16 26.86 16 60s-7.16 60-16 60H76c-8.84 0-16-26.86-16-60s7.16-60 16-60z" stroke="#000" stroke-width="2" fill="#fff"/><path d="M204 760c-8.84 0-16-26.86-16-60s7.16-60 16-60" stroke="#000" stroke-width="2" fill="none"/><use xlink:href="#b" transform="matrix(1,0,0,1,65,645) translate(16.299999999999997 59.0875)"/><path d="M260 1082c-66.27 0-120-23.28-120-52 0-22.98 32.5-42.36 82.92-49.45C220 913 420 900 500 926c40-39 240-26 240 13 120-13 240 39 160 104 80 52 0 117-160 91-40 33.8-200 33.8-240 0-80 26-240 13-240-52zM360 341.04c0 44.2-35.82 80-80 80s-80-35.8-80-80c0-44.18 35.82-80 80-80s80 35.82 80 80z" stroke="#000" stroke-width="2" fill="#fff"/><use xlink:href="#c" transform="matrix(1,0,0,1,205,266.0438074463049) translate(43.58524691358024 19.787777777777777)"/><use xlink:href="#d" transform="matrix(1,0,0,1,205,266.0438074463049) translate(13.924753086419765 46.45444444444445)"/><use xlink:href="#e" transform="matrix(1,0,0,1,205,266.0438074463049) translate(60.77660493827161 46.45444444444445)"/><use xlink:href="#f" transform="matrix(1,0,0,1,205,266.0438074463049) translate(21.975308641975317 73.1211111111111)"/><use xlink:href="#g" transform="matrix(1,0,0,1,205,266.0438074463049) translate(4.1716666666666615 99.78777777777779)"/><use xlink:href="#h" transform="matrix(1,0,0,1,205,266.0438074463049) translate(54.66549382716049 99.78777777777779)"/><path d="M160 420h240v60H160z" stroke="#000" stroke-opacity="0" stroke-width="2" fill="#fff" fill-opacity="0"/><use xlink:href="#i" transform="matrix(1,0,0,1,165,425.0000000001396) translate(23.85802469135804 30.27777777777778)"/><path d="M438 961.2c-43.08 0-78-17.56-78-39.2 0-17.33 21.12-31.94 53.9-37.3C412 833.8 542 824 594 843.6c26-29.42 156-19.62 156 9.8 78-9.8 156 29.4 104 78.4 52 39.2 0 88.2-104 68.6-26 25.48-130 25.48-156 0-52 19.6-156 9.8-156-39.2zM900 280c0 44.18-35.82 80-80 80s-80-35.82-80-80 35.82-80 80-80 80 35.82 80 80z" stroke="#000" stroke-width="2" fill="#fff"/><use xlink:href="#j" transform="matrix(1,0,0,1,745,205) translate(31.017345679012333 32.89888888888889)"/><use xlink:href="#k" transform="matrix(1,0,0,1,745,205) translate(21.55438271604938 70.23222222222223)"/><use xlink:href="#l" transform="matrix(1,0,0,1,745,205) translate(26.609938271604932 107.56555555555556)"/><path d="M660 357.7h320v63.34H660z" stroke="#000" stroke-opacity="0" stroke-width="2" fill="#fff" fill-opacity="0"/><use xlink:href="#m" transform="matrix(1,0,0,1,665,362.7104741129715) translate(97.71604938271605 17.77777777777778)"/><use xlink:href="#n" transform="matrix(1,0,0,1,665,362.7104741129715) translate(13.209876543209901 44.44444444444444)"/><use xlink:href="#o" transform="matrix(1,0,0,1,665,362.7104741129715) translate(31.72839506172842 44.44444444444444)"/><use xlink:href="#p" transform="matrix(1,0,0,1,665,362.7104741129715) translate(146.41975308641977 44.44444444444444)"/><use xlink:href="#q" transform="matrix(1,0,0,1,665,362.7104741129715) translate(264.8148148148148 44.44444444444444)"/><path d="M906.92 547.4c0 44.18-35.82 80-80 80s-80-35.82-80-80 35.82-80 80-80 80 35.82 80 80z" stroke="#000" stroke-width="2" fill="#fff"/><use xlink:href="#r" transform="matrix(1,0,0,1,751.9211344706805,472.39999999999986) translate(1.7592592592592666 81.13888888888889)"/><path d="M720 640h240v90H720z" stroke="#000" stroke-opacity="0" stroke-width="2" fill="#fff" fill-opacity="0"/><use xlink:href="#s" transform="matrix(1,0,0,1,725,645) translate(60.80246913580247 17.77777777777778)"/><use xlink:href="#t" transform="matrix(1,0,0,1,725,645) translate(45.308641975308646 44.44444444444444)"/><use xlink:href="#u" transform="matrix(1,0,0,1,725,645) translate(63.827160493827165 44.44444444444444)"/><use xlink:href="#p" transform="matrix(1,0,0,1,725,645) translate(39.814814814814824 71.11111111111111)"/><use xlink:href="#q" transform="matrix(1,0,0,1,725,645) translate(158.20987654320987 71.11111111111111)"/><path d="M160 220h240v60H160z" stroke="#000" stroke-opacity="0" stroke-width="2" fill="#fff" fill-opacity="0"/><use xlink:href="#v" transform="matrix(1,0,0,1,165,225.00000000013955) translate(35.1111111111111 30.708333333333336)"/><use xlink:href="#w" transform="matrix(1,0,0,1,165,225.00000000013955) translate(131.25925925925927 30.708333333333336)"/><path d="M700 160h240v60H700z" stroke="#000" stroke-opacity="0" stroke-width="2" fill="#fff" fill-opacity="0"/><use xlink:href="#x" transform="matrix(1,0,0,1,705,165) translate(91.70987654320987 31.138888888888893)"/><path d="M705 420h240v60H705z" stroke="#000" stroke-opacity="0" stroke-width="2" fill="#fff" fill-opacity="0"/><use xlink:href="#x" transform="matrix(1,0,0,1,710,425) translate(91.70987654320987 31.138888888888893)"/><path d="M184 589.18c8.84 0 16 26.87 16 60 0 33.14-7.16 60-16 60H56c-8.84 0-16-26.86-16-60 0-33.13 7.16-60 16-60z" stroke="#000" stroke-width="2" fill="#fff"/><path d="M184 709.18c-8.84 0-16-26.86-16-60 0-33.13 7.16-60 16-60" stroke="#000" stroke-width="2" fill="none"/><use xlink:href="#b" transform="matrix(1,0,0,1,45,594.1833423346654) translate(16.299999999999997 59.0875)"/><path d="M500 940h240v60H500z" stroke="#000" stroke-opacity="0" stroke-width="2" fill="#fff" fill-opacity="0"/><use xlink:href="#y" transform="matrix(1,0,0,1,505,945) translate(8.5 35.125)"/><use xlink:href="#z" transform="matrix(1,0,0,1,505,945) translate(84.05555555555556 35.125)"/><path d="M127.22 568.87l68.53-183.45" stroke="#c92d39" stroke-width="3" fill="none"/><path d="M121.7 583.64l.65-15 8.68 3.25zM201.27 370.65l-.65 15-8.7-3.26z" stroke="#c92d39" stroke-width="3" fill="#c92d39"/><path d="M215.73 660.38L492.6 870.8" stroke="#000" stroke-width="2" fill="none"/><path d="M203.58 651.14l14.16 4.94-5.6 7.38zM504.76 880.04l-14.17-4.94 5.6-7.38z" stroke="#000" stroke-width="2"/><path d="M960 321v978M960 321.03V320M960 1298.97v1.03" stroke="#000" stroke-width="2" fill="none"/><path d="M1233.68 400c0 44.18-35.82 80-80 80s-80-35.82-80-80 35.82-80 80-80 80 35.82 80 80z" stroke="#000" stroke-width="2" fill="#fff"/><use xlink:href="#A" transform="matrix(1,0,0,1,1078.6781365411266,325.0000000001396) translate(43.58524691358024 19.787777777777777)"/><use xlink:href="#B" transform="matrix(1,0,0,1,1078.6781365411266,325.0000000001396) translate(14.542037037037042 46.45444444444445)"/><use xlink:href="#C" transform="matrix(1,0,0,1,1078.6781365411266,325.0000000001396) translate(61.39388888888889 46.45444444444445)"/><use xlink:href="#D" transform="matrix(1,0,0,1,1078.6781365411266,325.0000000001396) translate(21.975308641975317 73.1211111111111)"/><use xlink:href="#g" transform="matrix(1,0,0,1,1078.6781365411266,325.0000000001396) translate(4.1716666666666615 99.78777777777779)"/><use xlink:href="#h" transform="matrix(1,0,0,1,1078.6781365411266,325.0000000001396) translate(54.66549382716049 99.78777777777779)"/><path d="M1033.68 460h240v74.8h-240z" stroke="#000" stroke-opacity="0" stroke-width="2" fill="#fff" fill-opacity="0"/><use xlink:href="#E" transform="matrix(1,0,0,1,1038.6781365411266,465) translate(33.611111111111114 36.05902777777778)"/><path d="M1054.63 1012c-33.66 0-60.95-32.24-60.95-72 0-31.8 16.5-58.65 42.1-68.48C1034.32 778 1135.9 760 1176.53 796c20.32-54 121.9-36 121.9 18 60.95-18 121.9 54 81.26 144 40.64 72 0 162-81.26 126-20.32 46.8-101.58 46.8-121.9 0-40.63 36-121.9 18-121.9-72z" stroke="#000" stroke-width="2" fill="#fff"/><path d="M1060 1020h240v60h-240z" stroke="#000" stroke-opacity="0" stroke-width="2" fill="#fff" fill-opacity="0"/><use xlink:href="#F" transform="matrix(1,0,0,1,1065,1025) translate(75.11111111111111 35.125)"/><path d="M184 589.18c8.84 0 16 26.87 16 60 0 33.14-7.16 60-16 60H56c-8.84 0-16-26.86-16-60 0-33.13 7.16-60 16-60z" stroke="#000" stroke-width="2" fill="#fff"/><path d="M184 709.18c-8.84 0-16-26.86-16-60 0-33.13 7.16-60 16-60" stroke="#000" stroke-width="2" fill="none"/><use xlink:href="#G" transform="matrix(1,0,0,1,45,594.1833423346654) translate(-4.259259259259267 60.333333333333336)"/><path d="M1484 620c8.84 0 16 26.86 16 60s-7.16 60-16 60h-128c-8.84 0-16-26.86-16-60s7.16-60 16-60z" stroke="#000" stroke-width="2" fill="#fff"/><path d="M1484 740c-8.84 0-16-26.86-16-60s7.16-60 16-60" stroke="#000" stroke-width="2" fill="none"/><use xlink:href="#G" transform="matrix(1,0,0,1,1345,624.9999999998604) translate(-4.259259259259267 60.333333333333336)"/><path d="M1460 431.04c0 44.2-35.82 80-80 80s-80-35.8-80-80c0-44.18 35.82-80 80-80s80 35.82 80 80z" stroke="#000" stroke-width="2" fill="#fff"/><use xlink:href="#H" transform="matrix(1,0,0,1,1305,356.04380744630504) translate(12.222222222222207 82.27083333333334)"/><path d="M1260 500h240v74.8h-240z" stroke="#000" stroke-opacity="0" stroke-width="2" fill="#fff" fill-opacity="0"/><use xlink:href="#I" transform="matrix(1,0,0,1,1265,505) translate(44.722222222222214 36.05902777777778)"/><path d="M1253.68 311.04h240v60h-240z" stroke="#000" stroke-opacity="0" stroke-width="2" fill="#fff" fill-opacity="0"/><use xlink:href="#J" transform="matrix(1,0,0,1,1258.6781365411266,316.0438074463049) translate(78.74691358024691 31.138888888888893)"/><path d="M1693.68 431.04c0 44.2-35.82 80-80 80s-80-35.8-80-80c0-44.18 35.82-80 80-80s80 35.82 80 80z" stroke="#000" stroke-width="2" fill="#fff"/><use xlink:href="#K" transform="matrix(1,0,0,1,1538.6781365411266,356.04380744630504) translate(23.191358024691354 81.13888888888889)"/><path d="M1494 510h240v74.8h-240z" stroke="#000" stroke-opacity="0" stroke-width="2" fill="#fff" fill-opacity="0"/><use xlink:href="#L" transform="matrix(1,0,0,1,1499,514.9999999999999) translate(12.067901234567913 23.87152777777778)"/><use xlink:href="#M" transform="matrix(1,0,0,1,1499,514.9999999999999) translate(12.65432098765433 50.53819444444445)"/><path d="M1493.68 311.04h240v60h-240z" stroke="#000" stroke-opacity="0" stroke-width="2" fill="#fff" fill-opacity="0"/><use xlink:href="#J" transform="matrix(1,0,0,1,1498.6781365411266,316.0438074463049) translate(78.74691358024691 31.138888888888893)"/><path d="M1033.68 601.86h240v60h-240z" stroke="#000" stroke-opacity="0" stroke-width="2" fill="#fff" fill-opacity="0"/><use xlink:href="#N" transform="matrix(1,0,0,1,1038.6781365411266,606.8604651117791) translate(12.333333333333329 31.138888888888893)"/><use xlink:href="#O" transform="matrix(1,0,0,1,1038.6781365411266,606.8604651117791) translate(62.37037037037037 31.138888888888893)"/><path d="M1277.76 863.54l62.56-110.9" stroke="#000" stroke-width="2" fill="none"/><path d="M1270.26 876.84l2.97-14.7 8.07 4.55zM1347.82 739.35l-2.97 14.7-8.07-4.55z" stroke="#000" stroke-width="2"/><path d="M1235.46 453.9l106.4 151.14" stroke="#000" stroke-width="2" fill="none"/><path d="M1226.67 441.43l12 9-7.57 5.33zM1350.66 617.53l-12-9 7.58-5.34z" stroke="#000" stroke-width="2"/><path d="M280.48 422.92l214.46 395.1" fill="none"/><path d="M280.48 422.92l.96 1.78m3.87 7.12l1.94 3.56m3.86 7.12l1.94 3.56m3.86 7.12l1.93 3.56m3.87 7.12l1.93 3.56m3.86 7.1l1.92 3.57m3.87 7.1l1.92 3.57m3.86 7.12l1.94 3.55m3.86 7.12l1.93 3.56m3.88 7.12l1.93 3.56m3.87 7.13l1.94 3.56m3.87 7.1l1.93 3.56m3.87 7.12l1.93 3.56m3.86 7.12l1.93 3.56m3.86 7.12l1.93 3.56m3.85 7.12l1.94 3.56m3.85 7.12l1.93 3.56m3.87 7.1l1.93 3.57m3.86 7.12l1.94 3.56m3.86 7.13l1.93 3.56m3.87 7.1l1.93 3.57m3.86 7.12l1.93 3.55m3.87 7.12l1.93 3.55m3.86 7.12l1.94 3.56m3.86 7.12l1.93 3.56m3.87 7.12l1.93 3.56m3.86 7.12l1.95 3.56m3.86 7.12l1.94 3.56m3.87 7.12l1.94 3.55m3.86 7.1l1.93 3.57m3.87 7.12l1.93 3.55m3.86 7.12l1.93 3.56m3.86 7.12l1.92 3.56m3.87 7.13l1.92 3.56m3.86 7.1l1.94 3.56m3.86 7.12l1.93 3.56m3.88 7.12l1.93 3.56m3.87 7.12l.97 1.78" stroke="#0c7cba" stroke-width="2" fill="none"/><path d="M280 422.04h.7l.43-.02.24.45-1.76.95-.76-1.4z" fill="#0c7cba"/><path d="M502.22 831.44l-10.88-10.33 8.15-4.4z" stroke="#0c7cba" stroke-width="2" fill="#0c7cba"/><path d="M1163.05 481.44l27.38 274" fill="none"/><path d="M1163.05 481.44l.2 1.98m.8 7.94l.4 3.97m.78 7.95l.4 3.97m.8 7.94l.4 3.96m.78 7.94l.4 3.97m.8 7.94l.4 4m.8 7.93l.4 3.97m.78 7.94l.4 3.97m.8 7.95l.4 3.97m.78 7.95l.4 3.97m.8 7.94l.4 3.97m.8 7.94l.38 3.96m.8 7.94l.4 3.97m.8 7.95l.38 3.97m.8 7.93l.4 3.97m.8 7.94l.4 3.97m.78 7.95l.4 3.98m.8 7.94l.4 3.97m.78 7.94l.4 3.97m.8 7.94l.4 3.96m.78 7.95l.4 3.98m.8 7.94l.4 3.97m.78 7.93l.4 3.97m.8 7.94l.2 2" stroke="#0c7cba" stroke-width="2" fill="none"/><path d="M1164.04 481.36l-2 .2-.1-1.02 2-.2z" fill="#0c7cba"/><path d="M1191.95 770.62l-6.03-13.73 9.23-.94z" stroke="#0c7cba" stroke-width="2" fill="#0c7cba"/><path d="M240 618.22h240v60H240z" stroke="#000" stroke-opacity="0" stroke-width="2" fill="#fff" fill-opacity="0"/><use xlink:href="#P" transform="matrix(1,0,0,1,245,623.2166576653345) translate(27 30.708333333333336)"/><use xlink:href="#Q" transform="matrix(1,0,0,1,245,623.2166576653345) translate(69.8888888888889 30.708333333333336)"/><path d="M440 1080h240v60H440z" stroke="#000" stroke-opacity="0" stroke-width="2" fill="#fff" fill-opacity="0"/><use xlink:href="#R" transform="matrix(1,0,0,1,445,1085.0000000002792) translate(-1.5000000000000284 33)"/><path d="M60 0h1633.68v170H60z" stroke="#000" stroke-opacity="0" stroke-width="2" fill="#fff" fill-opacity="0"/><use xlink:href="#S" transform="matrix(1,0,0,1,65,5) translate(51.16666666666663 93.58333333333334)"/><use xlink:href="#T" transform="matrix(1,0,0,1,65,5) translate(252.27777777777777 93.58333333333334)"/><use xlink:href="#U" transform="matrix(1,0,0,1,65,5) translate(492.8333333333333 93.58333333333334)"/><use xlink:href="#V" transform="matrix(1,0,0,1,65,5) translate(906.9074074074074 93.58333333333334)"/><use xlink:href="#W" transform="matrix(1,0,0,1,65,5) translate(999.5 93.58333333333334)"/><use xlink:href="#X" transform="matrix(1,0,0,1,65,5) translate(1134.1296296296296 93.58333333333334)"/><use xlink:href="#Y" transform="matrix(1,0,0,1,65,5) translate(1210.425925925926 93.58333333333334)"/><use xlink:href="#Z" transform="matrix(1,0,0,1,65,5) translate(1340.0555555555557 93.58333333333334)"/><path d="M380 1233h240v74H380z" stroke="#000" stroke-opacity="0" stroke-width="2" fill="#fff" fill-opacity="0"/><use xlink:href="#aa" transform="matrix(1,0,0,1,385,1237.9999999998604) translate(37.518518518518505 46.66666666666667)"/><use xlink:href="#ab" transform="matrix(1,0,0,1,385,1237.9999999998604) translate(145.22222222222223 46.66666666666667)"/><path d="M1220 1233h240v74h-240z" stroke="#000" stroke-opacity="0" stroke-width="2" fill="#fff" fill-opacity="0"/><use xlink:href="#ac" transform="matrix(1,0,0,1,1225,1238) translate(21.888888888888886 46.66666666666667)"/><path d="M280.1 421l48.28 477.85" fill="none"/><path d="M280.1 421l.2 2m.8 7.95l.4 3.98m.8 7.97l.42 3.98m.8 7.96l.4 3.98m.8 7.97l.4 3.97m.8 7.97l.42 3.98m.8 7.96l.4 3.98m.8 7.97l.4 3.98m.82 7.97l.4 4m.8 7.95l.4 3.98m.8 7.97l.4 3.98m.82 7.96l.4 4m.8 7.96l.4 3.98m.8 7.97l.4 4m.82 7.95l.4 3.98m.8 7.97l.4 3.98m.8 7.96l.4 4m.82 7.95l.4 3.97m.8 7.97l.4 3.98m.8 7.96l.4 4m.82 7.95l.4 3.98m.8 7.98l.4 3.98m.8 7.96l.42 3.98m.8 7.97l.4 3.98m.8 7.96l.4 4m.8 7.96l.42 3.98m.8 7.97l.4 4m.8 7.95l.4 4m.82 7.95l.4 3.98m.8 7.97l.4 3.98m.8 7.96l.4 3.97m.82 7.97l.4 3.98m.8 7.96l.4 4m.8 7.95l.4 3.98m.82 7.98l.4 3.98m.8 7.96l.4 4m.8 7.95l.4 3.98m.82 7.97l.4 3.98m.8 7.96l.4 3.98m.8 7.97l.4 4m.82 7.95l.2 2" stroke="#0c7cba" stroke-width="2" fill="none"/><path d="M281.1 420.92l-2 .2-.1-1.12h2z" fill="#0c7cba"/><path d="M329.9 914.03l-6.03-13.72 9.22-.93z" stroke="#0c7cba" stroke-width="2" fill="#0c7cba"/><path d="M630 554.8c0 44.18-35.82 80-80 80s-80-35.82-80-80 35.82-80 80-80 80 35.82 80 80z" stroke="#000" stroke-width="2" fill="#fff"/><use xlink:href="#ad" transform="matrix(1,0,0,1,475,479.79999999999995) translate(23.191358024691354 81.13888888888889)"/><path d="M432.5 639.4h240v90h-240z" stroke="#000" stroke-opacity="0" stroke-width="2" fill="#fff" fill-opacity="0"/><use xlink:href="#ae" transform="matrix(1,0,0,1,437.5,644.4000000000001) translate(41.69753086419753 17.77777777777778)"/><use xlink:href="#af" transform="matrix(1,0,0,1,437.5,644.4000000000001) translate(45.308641975308646 44.44444444444444)"/><use xlink:href="#ag" transform="matrix(1,0,0,1,437.5,644.4000000000001) translate(63.827160493827165 44.44444444444444)"/><use xlink:href="#ah" transform="matrix(1,0,0,1,437.5,644.4000000000001) translate(39.814814814814824 71.11111111111111)"/><use xlink:href="#ai" transform="matrix(1,0,0,1,437.5,644.4000000000001) translate(158.20987654320987 71.11111111111111)"/><path d="M430 429h240v60H430z" stroke="#000" stroke-opacity="0" stroke-width="2" fill="#fff" fill-opacity="0"/><use xlink:href="#aj" transform="matrix(1,0,0,1,435,434) translate(91.70987654320987 31.138888888888893)"/><path d="M650 560c5.52 0 10 16.74 10 37.4s-4.48 37.4-10 37.4h-80c-5.52 0-10-16.74-10-37.4s4.48-37.4 10-37.4z" stroke="#000" stroke-width="2" fill="#fff"/><path d="M650 634.8c-5.52 0-10-16.74-10-37.4s4.48-37.4 10-37.4" stroke="#000" stroke-width="2" fill="none"/><use xlink:href="#ak" transform="matrix(1,0,0,1,565,565) translate(5.913580246913575 14.222222222222223)"/><use xlink:href="#al" transform="matrix(1,0,0,1,565,565) translate(5.395061728395056 35.55555555555556)"/><use xlink:href="#am" transform="matrix(1,0,0,1,565,565) translate(12.851851851851848 56.88888888888889)"/><path d="M722.4 288.2l-23.67 11.74-26.86 11.9-20.12 7.93-16.25 5.62-13.86 4.14-12.35 3.14-11.46 2.4-11 1.84-11.02 1.36-11.55.93-12.9.5-16.13-.05-28.07-1.35-115.56-6.77-12.72-.15" stroke="#000" stroke-width="2" fill="none"/><path d="M736.1 281.44l-10.73 10.48-4.12-8.3zM363.6 331.2l14.33-4.47-.1 9.27z" stroke="#000" stroke-width="2"/><path d="M919.45 278.2l5.9.37 6 .64 5.36.8 4.85.95L946 282l4.12 1.16 3.9 1.27 3.76 1.4 3.68 1.56 3.68 1.73 3.8 2 4.14 2.4 4.96 3.17 9.67 6.82 13.26 9.42 5.38 3.45 4.62 2.67 4.35 2.28 4.3 2.03 4.36 1.84 4.54 1.7 4.8 1.57 5.2 1.45 5.65 1.34 6.3 1.2 7.1 1.05 8.13.87 9.5.6 11.34.26h.65" stroke="#000" stroke-width="2" fill="none"/><path d="M904.2 278.15l14.27-4.6-.03 9.28zM1102.43 334.85l-14.13 5.03-.26-9.27z" stroke="#000" stroke-width="2"/><path d="M375.58 366.4l9.2.2 24.3 1.5 21.7 2.3 19.7 2.9 18.16 3.45 16.97 3.98 16.1 4.48 15.43 5.03 15.03 5.6 14.86 6.24 14.93 7.03 15.3 8 16.08 9.3 17.47 11.08 19.98 13.9 25.2 19.2 43.7 36.4 32.3 28.24" fill="none"/><path d="M375.58 366.4l4.05.1m8.1.28l8.08.5m8.1.5l5.2.33 2.87.32m8.06.84l8.06.84m8.02 1.07l8.02 1.18m8 1.26l7.96 1.52m7.96 1.52l.58.1 7.3 1.72m7.9 1.85l1.77.43 6.06 1.7m7.8 2.16l2.23.6 5.5 1.8m7.7 2.5l2.23.73 5.4 2m7.6 2.83l2.03.76 5.47 2.3m7.47 3.14l1.92.8 5.45 2.57m7.33 3.45l2.15 1.02 5.07 2.65m7.18 3.75l3.06 1.6 4.03 2.33m7 4.05l5.03 2.9 1.94 1.24m6.84 4.34l6.85 4.35m6.7 4.56l6.65 4.63m6.65 4.62l1.83 1.27 4.67 3.55m6.45 4.9l6.45 4.9m6.45 4.92l1.18.9 5.08 4.23m6.23 5.2l6.22 5.17m6.22 5.2l6.23 5.17m6.22 5.2l6.22 5.18m6.13 5.3l6.1 5.33m6.1 5.34l6.1 5.32m6.1 5.33l3.04 2.67" stroke="#ef8d22" stroke-width="2" fill="none"/><path d="M360.3 366.1l14.37-4.35-.2 9.27zM743.5 545.27l-13.8-5.9 6.1-6.98z" stroke="#ef8d22" stroke-width="2" fill="#ef8d22"/><path d="M678 807.54l.76-2.57 2.9-11.73 2.78-13.75 2.86-18.05 9.62-77.43 2.04-10.06 2-8.06 1.98-6.84 2.03-6 2.1-5.42 2.14-4.95 2.23-4.6 2.32-4.3 2.42-4.1 2.54-3.88 2.67-3.74 2.82-3.63 2.98-3.52 3.18-3.45 3.4-3.4 3.67-3.35 3.96-3.34 1.34-1.05" fill="none"/><path d="M678 807.54l.76-2.57.3-1.26M681 796l.67-2.74 1.02-5.04m1.58-7.8l.2-.9 1.1-6.95m1.24-7.86l.5-3.25.58-4.64m.98-7.9l.98-7.9m.98-7.9l.98-7.9m1-7.88l.97-7.9m.98-7.9l.98-7.9m.98-7.9l.22-1.7 1.24-6.12m1.74-7.76l1.05-4.24 1-3.45m2.4-7.6l.62-1.8 2.1-5.4.08-.24m3.28-7.24l1-2.06 2.32-4.3.4-.67m4.2-6.76l.36-.55 2.67-3.74 1.66-2.14m5.13-6.08l2.2-2.38 3.34-3.33m5.95-5.3l1.74-1.46 1.34-1.05" stroke="#ef8d22" stroke-width="2" fill="none"/><path d="M673.4 822.1l-.1-15 8.83 2.8zM755.33 591.74l-9.16 11.88-5.23-7.65z" stroke="#ef8d22" stroke-width="2" fill="#ef8d22"/><path d="M1252.44 402.25l.54.27 3.1 1.87 4 2.86 18.84 15.28 2.55 1.55" fill="none"/><path d="M1252.44 402.25l.54.27 3.1 1.87.26.18m7.23 5.5l7.07 5.75m7.06 5.73l1.22.98 2.55 1.55" stroke="#ef8d22" stroke-width="2" fill="none"/><path d="M1237.78 398.87l14.95-1.32-2.1 9.04zM1295.95 428.28l-15 .5 2.6-8.92z" stroke="#ef8d22" stroke-width="2" fill="#ef8d22"/><path d="M1405.88 943.18l.32.05 4.22.44 4.1.26 4 .1 3.94-.1 3.86-.24 3.8-.4 3.75-.56 3.7-.7 3.7-.87 3.68-1.03 3.67-1.2 3.68-1.36 3.68-1.55 3.7-1.74 3.75-1.97 3.78-2.18 3.84-2.43 3.9-2.7 3.94-3 4.02-3.33 4.1-3.7 4.2-4.12 4.3-4.56 4.38-5.1 4.48-5.65 4.58-6.3 4.68-7.04 4.75-7.85 4.8-8.76 4.85-9.76 4.83-10.84 4.75-12.02 4.6-13.24 4.38-14.5 4.03-15.7 3.6-16.82 3-17.78 2.33-18.48 1.6-18.9.8-18.97V679.9l-.77-18.18-1.46-17.4-2.07-16.47-2.6-15.4-3.04-14.32-3.4-13.2-3.66-12.16-3.88-11.16-4.04-10.2-4.16-9.36-4.25-8.57-4.3-7.84-4.35-7.17-4.38-6.6-4.4-6.06-4.4-5.58-4.45-5.15-4.44-4.73-4.46-4.37-4.5-4.04-4.5-3.72-4.53-3.45-4.6-3.18-3.54-2.25" fill="none"/><path d="M1405.88 943.18l.32.05 3.68.4m8.05.37l.6.02 3.93-.1 3.52-.2m8-1l3.6-.7 3.7-.85.57-.16m7.7-2.4l2.75-1.02 3.68-1.55 1-.47m7.2-3.65l3.03-1.75 3.84-2.43m6.55-4.72l1.28-.98 4.02-3.33.9-.82m5.88-5.5l1.52-1.5 4.06-4.32m5.25-6.12l3.86-4.87 1.1-1.5m4.65-6.56l3.52-5.27.9-1.48m4.14-6.9l3.88-7.06m3.63-7.2l1.85-3.74 1.6-3.56m3.26-7.36l2.96-7.5m2.84-7.53l2.65-7.6m2.43-7.68l2.33-7.72m2.06-7.8l2-7.8m1.75-7.86l1.7-7.88m1.45-7.92l1.35-7.95m1.2-7.97l1-8m1-8l.67-8.03m.67-8.03l.18-2.1.25-5.94m.34-8.05l.22-4.97v-3.08m0-8.06v-7.58l-.02-.47m-.34-8.04l-.33-8.06m-.6-8.03l-.68-8.03m-.88-8l-1-8m-1.2-7.97l-1.35-7.95m-1.55-7.9l-1.68-7.9m-1.95-7.8l-1.75-6.83-.3-.98m-2.32-7.72l-1.04-3.46-1.46-4.2m-2.67-7.6l-2.96-7.5m-3.2-7.4l-1.78-4.02-1.62-3.27m-3.66-7.17l-3.28-5.97-.65-1.06m-4.2-6.87l-3.88-5.84-.6-.85m-4.8-6.48l-3.4-4.3-1.7-1.95m-5.37-6l-1.82-1.93-3.86-3.78m-6-5.38l-3.6-2.98-2.7-2.05m-6.55-4.67l-3.4-2.16" stroke="#ef8d22" stroke-width="2" fill="none"/><path d="M1390.98 939.95l14.92-1.5-1.96 9.05zM1458.26 462.2l14.8 2.54-4.32 8.2z" stroke="#ef8d22" stroke-width="2" fill="#ef8d22"/><path d="M530 860h210v84.67H530z" stroke="#000" stroke-opacity="0" stroke-width="2" fill="#fff" fill-opacity="0"/><g><use xlink:href="#an" transform="matrix(1,0,0,1,535,865) translate(8.04938271604938 43.63888888888889)"/><use xlink:href="#ao" transform="matrix(1,0,0,1,535,865) translate(77.01234567901234 43.63888888888889)"/></g><path d="M1107.36 879.66h200v84.67h-200z" stroke="#000" stroke-opacity="0" stroke-width="2" fill="#fff" fill-opacity="0"/><g><use xlink:href="#an" transform="matrix(1,0,0,1,1112.3562730822532,884.6583378339295) translate(3.0493827160493794 43.63888888888889)"/><use xlink:href="#ao" transform="matrix(1,0,0,1,1112.3562730822532,884.6583378339295) translate(72.01234567901234 43.63888888888889)"/></g><path d="M1057.7 150.56c-11.4 2.64-18.07 15.04-14.9 27.76 3.2 12.64 14.9 20.32 26.24 17.6 11.4-2.72 18.08-15.12 14.9-27.76-3.18-12.48-15.05-20.32-26.23-17.6zM1082.08 199.28c-2.1-.16-4.58 3.84-7.76 5.44-3.18 1.36-6.6 4.24-15.75 0-9.16-4.24-10.48-7.92-18.24-7.92-7.76 0-20.1 13.52-20.33 33.2h77.6c-.24 0-.94-13.52-5.28-20.8-5.2-9.68-8.15-9.92-10.24-9.92z" stroke="#000" stroke-opacity="0" fill="#00188f"/><g><use xlink:href="#ap" transform="matrix(1,0,0,1,990,239.00000000006978) translate(36.24691358024691 24.888888888888893)"/></g><g><path d="M990 210l-7.28 12.13-1.2-4.85-60.6 15.15 1.2 4.85L910 230l7.28-12.13 1.2 4.85 60.6-15.15-1.2-4.85z" stroke="#000" stroke-width="2" fill="#fff"/></g><path d="M280 1000h240v84.67H280z" stroke="#000" stroke-opacity="0" stroke-width="2" fill="#fff" fill-opacity="0"/><g><use xlink:href="#an" transform="matrix(1,0,0,1,285,1004.9999999999999) translate(23.04938271604938 43.63888888888889)"/><use xlink:href="#ao" transform="matrix(1,0,0,1,285,1004.9999999999999) translate(92.01234567901234 43.63888888888889)"/></g><path d="M359.9 400.32l114.08 90.35" stroke="#000" stroke-width="2" fill="none"/><path d="M347.92 390.84l14.07 5.23-5.77 7.26zM485.94 500.15l-14.06-5.22 5.76-7.27z" stroke="#000" stroke-width="2"/><path d="M1070.48 207.17l.22 2.16.76 2.23 1.08 1.75 1.45 1.48 1.97 1.28 2.9 1.05 4.53.58 6.15-.6" stroke="#000" stroke-width="2" fill="none"/><path d="M1071.48 207.1l-2 .2-.07-.76 1.94-.72z"/><path d="M1091.47 213.43l-2.5 14.8-8.22-4.3z" stroke="#000" stroke-width="2"/><defs><path d="M63-220v92h138v28H63V0H30v-248h175v28H63" id="aq"/><path d="M185-189c-5-48-123-54-124 2 14 75 158 14 163 119 3 78-121 87-175 55-17-10-28-26-33-46l33-7c5 56 141 63 141-1 0-78-155-14-162-118-5-82 145-84 179-34 5 7 8 16 11 25" id="ar"/><g id="a"><use transform="matrix(0.05,0,0,0.05,0,0)" xlink:href="#aq"/><use transform="matrix(0.05,0,0,0.05,10.950000000000001,0)" xlink:href="#ar"/></g><path d="M212-179c-10-28-35-45-73-45-59 0-87 40-87 99 0 60 29 101 89 101 43 0 62-24 78-52l27 14C228-24 195 4 139 4 59 4 22-46 18-125c-6-104 99-153 187-111 19 9 31 26 39 46" id="as"/><path d="M233-177c-1 41-23 64-60 70L243 0h-38l-65-103H63V0H30v-248c88 3 205-21 203 71zM63-129c60-2 137 13 137-47 0-61-80-42-137-45v92" id="at"/><path d="M205 0l-28-72H64L36 0H1l101-248h38L239 0h-34zm-38-99l-47-123c-12 45-31 82-46 123h93" id="au"/><path d="M127-220V0H93v-220H8v-28h204v28h-85" id="av"/><path d="M197 0v-115H63V0H30v-248h33v105h134v-105h34V0h-34" id="aw"/><g id="b"><use transform="matrix(0.05,0,0,0.05,0,0)" xlink:href="#ar"/><use transform="matrix(0.05,0,0,0.05,12,0)" xlink:href="#as"/><use transform="matrix(0.05,0,0,0.05,24.950000000000003,0)" xlink:href="#at"/><use transform="matrix(0.05,0,0,0.05,37.900000000000006,0)" xlink:href="#au"/><use transform="matrix(0.05,0,0,0.05,48.550000000000004,0)" xlink:href="#av"/><use transform="matrix(0.05,0,0,0.05,59.5,0)" xlink:href="#as"/><use transform="matrix(0.05,0,0,0.05,72.45,0)" xlink:href="#aw"/></g><path d="M176-78C186 10 51 31 16-35c-5-9-9-19-11-32l52-8c4 21 12 37 35 38 23 0 32-16 32-40v-130H75v-41h101v170" id="ax"/><path d="M199 0l-22-63H83L61 0H9l90-248h61L250 0h-51zm-33-102l-36-108c-10 38-24 72-36 108h72" id="ay"/><path d="M275 0h-61l-44-196L126 0H64L0-248h53L97-49l45-199h58l43 199 44-199h52" id="az"/><path d="M169-182c-1-43-94-46-97-3 18 66 151 10 154 114 3 95-165 93-204 36-6-8-10-19-12-30l50-8c3 46 112 56 116 5-17-69-150-10-154-114-4-87 153-88 188-35 5 8 8 18 10 28" id="aA"/><g id="c"><use transform="matrix(0.06172839506172839,0,0,0.06172839506172839,0,0)" xlink:href="#ax"/><use transform="matrix(0.06172839506172839,0,0,0.06172839506172839,12.345679012345679,0)" xlink:href="#ay"/><use transform="matrix(0.06172839506172839,0,0,0.06172839506172839,27.098765432098766,0)" xlink:href="#az"/><use transform="matrix(0.06172839506172839,0,0,0.06172839506172839,48.02469135802469,0)" xlink:href="#aA"/></g><path d="M25-224v-37h50v37H25zM25 0v-190h50V0H25" id="aB"/><path d="M115-3C79 11 28 4 28-45v-112H4v-33h27l15-45h31v45h36v33H77v99c-1 23 16 31 38 25v30" id="aC"/><path d="M185-48c-13 30-37 53-82 52C43 2 14-33 14-96s30-98 90-98c62 0 83 45 84 108H66c0 31 8 55 39 56 18 0 30-7 34-22zm-45-69c5-46-57-63-70-21-2 6-4 13-4 21h74" id="aD"/><g id="d"><use transform="matrix(0.06172839506172839,0,0,0.06172839506172839,0,0)" xlink:href="#aA"/><use transform="matrix(0.06172839506172839,0,0,0.06172839506172839,14.814814814814813,0)" xlink:href="#aB"/><use transform="matrix(0.06172839506172839,0,0,0.06172839506172839,20.98765432098765,0)" xlink:href="#aC"/><use transform="matrix(0.06172839506172839,0,0,0.06172839506172839,28.33333333333333,0)" xlink:href="#aD"/></g><path d="M135-150c-39-12-60 13-60 57V0H25l-1-190h47c2 13-1 29 3 40 6-28 27-53 61-41v41" id="aE"/><path d="M128 0H69L1-190h53L99-40l48-150h52" id="aF"/><path d="M76-54c-1 42 2 86-19 110H24C36 42 46 24 48 0H25v-54h51" id="aG"/><g id="e"><use transform="matrix(0.06172839506172839,0,0,0.06172839506172839,0,0)" xlink:href="#aA"/><use transform="matrix(0.06172839506172839,0,0,0.06172839506172839,14.814814814814813,0)" xlink:href="#aD"/><use transform="matrix(0.06172839506172839,0,0,0.06172839506172839,27.160493827160494,0)" xlink:href="#aE"/><use transform="matrix(0.06172839506172839,0,0,0.06172839506172839,35.80246913580247,0)" xlink:href="#aF"/><use transform="matrix(0.06172839506172839,0,0,0.06172839506172839,48.148148148148145,0)" xlink:href="#aD"/><use transform="matrix(0.06172839506172839,0,0,0.06172839506172839,60.49382716049382,0)" xlink:href="#aE"/><use transform="matrix(0.06172839506172839,0,0,0.06172839506172839,69.1358024691358,0)" xlink:href="#aG"/></g><path d="M67-125c0 53 21 87 73 88 37 1 54-22 65-47l45 17C233-25 199 4 140 4 58 4 20-42 15-125 8-235 124-281 211-232c18 10 29 29 36 50l-46 12c-8-25-30-41-62-41-52 0-71 34-72 86" id="aH"/><path d="M110-194c64 0 96 36 96 99 0 64-35 99-97 99-61 0-95-36-95-99 0-62 34-99 96-99zm-1 164c35 0 45-28 45-65 0-40-10-65-43-65-34 0-45 26-45 65 0 36 10 65 43 65" id="aI"/><path d="M220-157c-53 9-28 100-34 157h-49v-107c1-27-5-49-29-50C55-147 81-57 75 0H25l-1-190h47c2 12-1 28 3 38 10-53 101-56 108 0 13-22 24-43 59-42 82 1 51 116 57 194h-49v-107c-1-25-5-48-29-50" id="aJ"/><path d="M231 0h-52l-39-155L100 0H48L-1-190h46L77-45c9-52 24-97 36-145h53l37 145 32-145h46" id="aK"/><path d="M25 0v-261h50V0H25" id="aL"/><g id="f"><use transform="matrix(0.06172839506172839,0,0,0.06172839506172839,0,0)" xlink:href="#aH"/><use transform="matrix(0.06172839506172839,0,0,0.06172839506172839,15.987654320987653,0)" xlink:href="#aE"/><use transform="matrix(0.06172839506172839,0,0,0.06172839506172839,24.629629629629626,0)" xlink:href="#aI"/><use transform="matrix(0.06172839506172839,0,0,0.06172839506172839,38.148148148148145,0)" xlink:href="#aJ"/><use transform="matrix(0.06172839506172839,0,0,0.06172839506172839,57.90123456790123,0)" xlink:href="#aK"/><use transform="matrix(0.06172839506172839,0,0,0.06172839506172839,75.18518518518518,0)" xlink:href="#aD"/><use transform="matrix(0.06172839506172839,0,0,0.06172839506172839,87.53086419753086,0)" xlink:href="#aL"/><use transform="matrix(0.06172839506172839,0,0,0.06172839506172839,93.7037037037037,0)" xlink:href="#aL"/><use transform="matrix(0.06172839506172839,0,0,0.06172839506172839,99.87654320987653,0)" xlink:href="#aG"/></g><path d="M136-208V0H84v-208H4v-40h212v40h-80" id="aM"/><path d="M230 0l2-204L168 0h-37L68-204 70 0H24v-248h70l56 185 57-185h69V0h-46" id="aN"/><g id="g"><use transform="matrix(0.06172839506172839,0,0,0.06172839506172839,0,0)" xlink:href="#ax"/><use transform="matrix(0.06172839506172839,0,0,0.06172839506172839,12.345679012345679,0)" xlink:href="#aM"/><use transform="matrix(0.06172839506172839,0,0,0.06172839506172839,25.864197530864196,0)" xlink:href="#aN"/></g><path d="M133-34C117-15 103 5 69 4 32 3 11-16 11-54c-1-60 55-63 116-61 1-26-3-47-28-47-18 1-26 9-28 27l-52-2c7-38 36-58 82-57s74 22 75 68l1 82c-1 14 12 18 25 15v27c-30 8-71 5-69-32zm-48 3c29 0 43-24 42-57-32 0-66-3-65 30 0 17 8 27 23 27" id="aO"/><path d="M135-194c87-1 58 113 63 194h-50c-7-57 23-157-34-157-59 0-34 97-39 157H25l-1-190h47c2 12-1 28 3 38 12-26 28-41 61-42" id="aP"/><path d="M195-6C206 82 75 100 31 46c-4-6-6-13-8-21l49-6c3 16 16 24 34 25 40 0 42-37 40-79-11 22-30 35-61 35-53 0-70-43-70-97 0-56 18-96 73-97 30 0 46 14 59 34l2-30h47zm-90-29c32 0 41-27 41-63 0-35-9-62-40-62-32 0-39 29-40 63 0 36 9 62 39 62" id="aQ"/><g id="h"><use transform="matrix(0.06172839506172839,0,0,0.06172839506172839,0,0)" xlink:href="#aN"/><use transform="matrix(0.06172839506172839,0,0,0.06172839506172839,18.456790123456788,0)" xlink:href="#aO"/><use transform="matrix(0.06172839506172839,0,0,0.06172839506172839,30.80246913580247,0)" xlink:href="#aP"/><use transform="matrix(0.06172839506172839,0,0,0.06172839506172839,44.32098765432099,0)" xlink:href="#aO"/><use transform="matrix(0.06172839506172839,0,0,0.06172839506172839,56.666666666666664,0)" xlink:href="#aQ"/><use transform="matrix(0.06172839506172839,0,0,0.06172839506172839,70.18518518518518,0)" xlink:href="#aD"/><use transform="matrix(0.06172839506172839,0,0,0.06172839506172839,82.53086419753086,0)" xlink:href="#aE"/></g><path d="M24 0v-261h32V0H24" id="aR"/><path d="M114-163C36-179 61-72 57 0H25l-1-190h30c1 12-1 29 2 39 6-27 23-49 58-41v29" id="aS"/><path d="M96-169c-40 0-48 33-48 73s9 75 48 75c24 0 41-14 43-38l32 2c-6 37-31 61-74 61-59 0-76-41-82-99-10-93 101-131 147-64 4 7 5 14 7 22l-32 3c-4-21-16-35-41-35" id="aT"/><path d="M16-82v-28h88v28H16" id="aU"/><path d="M135-143c-3-34-86-38-87 0 15 53 115 12 119 90S17 21 10-45l28-5c4 36 97 45 98 0-10-56-113-15-118-90-4-57 82-63 122-42 12 7 21 19 24 35" id="aV"/><path d="M100-194c63 0 86 42 84 106H49c0 40 14 67 53 68 26 1 43-12 49-29l28 8c-11 28-37 45-77 45C44 4 14-33 15-96c1-61 26-98 85-98zm52 81c6-60-76-77-97-28-3 7-6 17-6 28h103" id="aW"/><path d="M108 0H70L1-190h34L89-25l56-165h34" id="aX"/><path d="M24-231v-30h32v30H24zM24 0v-190h32V0H24" id="aY"/><path d="M33 0v-38h34V0H33" id="aZ"/><path d="M115-194c53 0 69 39 70 98 0 66-23 100-70 100C84 3 66-7 56-30L54 0H23l1-261h32v101c10-23 28-34 59-34zm-8 174c40 0 45-34 45-75 0-40-5-75-45-74-42 0-51 32-51 76 0 43 10 73 51 73" id="ba"/><path d="M177-190C167-65 218 103 67 71c-23-6-38-20-44-43l32-5c15 47 100 32 89-28v-30C133-14 115 1 83 1 29 1 15-40 15-95c0-56 16-97 71-98 29-1 48 16 59 35 1-10 0-23 2-32h30zM94-22c36 0 50-32 50-73 0-42-14-75-50-75-39 0-46 34-46 75s6 73 46 73" id="bb"/><path d="M100-194c62-1 85 37 85 99 1 63-27 99-86 99S16-35 15-95c0-66 28-99 85-99zM99-20c44 1 53-31 53-75 0-43-8-75-51-75s-53 32-53 75 10 74 51 75" id="bc"/><g id="i"><use transform="matrix(0.06172839506172839,0,0,0.06172839506172839,0,0)" xlink:href="#aR"/><use transform="matrix(0.06172839506172839,0,0,0.06172839506172839,4.876543209876543,0)" xlink:href="#aS"/><use transform="matrix(0.06172839506172839,0,0,0.06172839506172839,12.222222222222221,0)" xlink:href="#aT"/><use transform="matrix(0.06172839506172839,0,0,0.06172839506172839,23.333333333333332,0)" xlink:href="#aU"/><use transform="matrix(0.06172839506172839,0,0,0.06172839506172839,30.679012345679013,0)" xlink:href="#aV"/><use transform="matrix(0.06172839506172839,0,0,0.06172839506172839,41.79012345679013,0)" xlink:href="#aW"/><use transform="matrix(0.06172839506172839,0,0,0.06172839506172839,54.135802469135804,0)" xlink:href="#aS"/><use transform="matrix(0.06172839506172839,0,0,0.06172839506172839,61.48148148148148,0)" xlink:href="#aX"/><use transform="matrix(0.06172839506172839,0,0,0.06172839506172839,72.5925925925926,0)" xlink:href="#aY"/><use transform="matrix(0.06172839506172839,0,0,0.06172839506172839,77.46913580246914,0)" xlink:href="#aT"/><use transform="matrix(0.06172839506172839,0,0,0.06172839506172839,88.58024691358025,0)" xlink:href="#aW"/><use transform="matrix(0.06172839506172839,0,0,0.06172839506172839,100.92592592592594,0)" xlink:href="#aV"/><use transform="matrix(0.06172839506172839,0,0,0.06172839506172839,112.03703703703705,0)" xlink:href="#aZ"/><use transform="matrix(0.06172839506172839,0,0,0.06172839506172839,118.20987654320989,0)" xlink:href="#aR"/><use transform="matrix(0.06172839506172839,0,0,0.06172839506172839,123.08641975308643,0)" xlink:href="#ba"/><use transform="matrix(0.06172839506172839,0,0,0.06172839506172839,135.4320987654321,0)" xlink:href="#aR"/><use transform="matrix(0.06172839506172839,0,0,0.06172839506172839,140.30864197530863,0)" xlink:href="#aZ"/><use transform="matrix(0.06172839506172839,0,0,0.06172839506172839,146.48148148148147,0)" xlink:href="#bb"/><use transform="matrix(0.06172839506172839,0,0,0.06172839506172839,158.82716049382714,0)" xlink:href="#bc"/><use transform="matrix(0.06172839506172839,0,0,0.06172839506172839,171.1728395061728,0)" xlink:href="#aX"/></g><g id="j"><use transform="matrix(0.08641975308641976,0,0,0.08641975308641976,0,0)" xlink:href="#ax"/><use transform="matrix(0.08641975308641976,0,0,0.08641975308641976,17.283950617283953,0)" xlink:href="#ay"/><use transform="matrix(0.08641975308641976,0,0,0.08641975308641976,37.93827160493828,0)" xlink:href="#az"/><use transform="matrix(0.08641975308641976,0,0,0.08641975308641976,67.23456790123458,0)" xlink:href="#aA"/></g><g id="k"><use transform="matrix(0.08641975308641976,0,0,0.08641975308641976,0,0)" xlink:href="#aH"/><use transform="matrix(0.08641975308641976,0,0,0.08641975308641976,22.38271604938272,0)" xlink:href="#aD"/><use transform="matrix(0.08641975308641976,0,0,0.08641975308641976,39.66666666666667,0)" xlink:href="#aP"/><use transform="matrix(0.08641975308641976,0,0,0.08641975308641976,58.592592592592595,0)" xlink:href="#aC"/><use transform="matrix(0.08641975308641976,0,0,0.08641975308641976,68.87654320987654,0)" xlink:href="#aE"/><use transform="matrix(0.08641975308641976,0,0,0.08641975308641976,80.97530864197532,0)" xlink:href="#aO"/><use transform="matrix(0.08641975308641976,0,0,0.08641975308641976,98.25925925925927,0)" xlink:href="#aL"/></g><g id="l"><use transform="matrix(0.08641975308641976,0,0,0.08641975308641976,0,0)" xlink:href="#aA"/><use transform="matrix(0.08641975308641976,0,0,0.08641975308641976,20.740740740740744,0)" xlink:href="#aD"/><use transform="matrix(0.08641975308641976,0,0,0.08641975308641976,38.0246913580247,0)" xlink:href="#aE"/><use transform="matrix(0.08641975308641976,0,0,0.08641975308641976,50.12345679012346,0)" xlink:href="#aF"/><use transform="matrix(0.08641975308641976,0,0,0.08641975308641976,67.40740740740742,0)" xlink:href="#aD"/><use transform="matrix(0.08641975308641976,0,0,0.08641975308641976,84.69135802469137,0)" xlink:href="#aE"/></g><path d="M24-231v-30h32v30H24zM-9 49c24 4 33-6 33-30v-209h32V24c2 40-23 58-65 49V49" id="bd"/><path d="M141-36C126-15 110 5 73 4 37 3 15-17 15-53c-1-64 63-63 125-63 3-35-9-54-41-54-24 1-41 7-42 31l-33-3c5-37 33-52 76-52 45 0 72 20 72 64v82c-1 20 7 32 28 27v20c-31 9-61-2-59-35zM48-53c0 20 12 33 32 33 41-3 63-29 60-74-43 2-92-5-92 41" id="be"/><path d="M206 0h-36l-40-164L89 0H53L-1-190h32L70-26l43-164h34l41 164 42-164h31" id="bf"/><g id="m"><use transform="matrix(0.06172839506172839,0,0,0.06172839506172839,0,0)" xlink:href="#bd"/><use transform="matrix(0.06172839506172839,0,0,0.06172839506172839,4.876543209876543,0)" xlink:href="#be"/><use transform="matrix(0.06172839506172839,0,0,0.06172839506172839,17.22222222222222,0)" xlink:href="#bf"/><use transform="matrix(0.06172839506172839,0,0,0.06172839506172839,33.20987654320987,0)" xlink:href="#aV"/><use transform="matrix(0.06172839506172839,0,0,0.06172839506172839,44.32098765432099,0)" xlink:href="#aZ"/><use transform="matrix(0.06172839506172839,0,0,0.06172839506172839,50.49382716049383,0)" xlink:href="#aR"/><use transform="matrix(0.06172839506172839,0,0,0.06172839506172839,55.370370370370374,0)" xlink:href="#ba"/><use transform="matrix(0.06172839506172839,0,0,0.06172839506172839,67.71604938271605,0)" xlink:href="#aR"/><use transform="matrix(0.06172839506172839,0,0,0.06172839506172839,72.5925925925926,0)" xlink:href="#aZ"/><use transform="matrix(0.06172839506172839,0,0,0.06172839506172839,78.76543209876543,0)" xlink:href="#bb"/><use transform="matrix(0.06172839506172839,0,0,0.06172839506172839,91.11111111111111,0)" xlink:href="#bc"/><use transform="matrix(0.06172839506172839,0,0,0.06172839506172839,103.4567901234568,0)" xlink:href="#aX"/></g><path d="M101-251c82-7 93 87 43 132L82-64C71-53 59-42 53-27h129V0H18c2-99 128-94 128-182 0-28-16-43-45-43s-46 15-49 41l-32-3c6-41 34-60 81-64" id="bg"/><use transform="matrix(0.06172839506172839,0,0,0.06172839506172839,0,0)" xlink:href="#bg" id="n"/><path d="M30-248c87 1 191-15 191 75 0 78-77 80-158 76V0H30v-248zm33 125c57 0 124 11 124-50 0-59-68-47-124-48v98" id="bh"/><path d="M232-93c-1 65-40 97-104 97C67 4 28-28 28-90v-158h33c8 89-33 224 67 224 102 0 64-133 71-224h33v155" id="bi"/><path d="M0 4l72-265h28L28 4H0" id="bj"/><path d="M134-131c28 9 52 24 51 62-1 50-34 73-85 73S17-19 16-69c0-36 21-54 49-61-75-25-45-126 34-121 46 3 78 18 79 63 0 33-17 51-44 57zm-34-11c31 1 46-15 46-44 0-28-17-43-47-42-29 0-46 13-45 42 1 28 16 44 46 44zm1 122c35 0 51-18 51-52 0-30-18-46-53-46-33 0-51 17-51 47 0 34 19 51 53 51" id="bk"/><path d="M143 4C61 4 22-44 18-125c-5-107 100-154 193-111 17 8 29 25 37 43l-32 9c-13-25-37-40-76-40-61 0-88 39-88 99 0 61 29 100 91 101 35 0 62-11 79-27v-45h-74v-28h105v86C228-13 192 4 143 4" id="bl"/><path d="M160-131c35 5 61 23 61 61C221 17 115-2 30 0v-248c76 3 177-17 177 60 0 33-19 50-47 57zm-97-11c50-1 110 9 110-42 0-47-63-36-110-37v79zm0 115c55-2 124 14 124-45 0-56-70-42-124-44v89" id="bm"/><g id="o"><use transform="matrix(0.06172839506172839,0,0,0.06172839506172839,0,0)" xlink:href="#as"/><use transform="matrix(0.06172839506172839,0,0,0.06172839506172839,15.987654320987653,0)" xlink:href="#bh"/><use transform="matrix(0.06172839506172839,0,0,0.06172839506172839,30.80246913580247,0)" xlink:href="#bi"/><use transform="matrix(0.06172839506172839,0,0,0.06172839506172839,46.79012345679012,0)" xlink:href="#aV"/><use transform="matrix(0.06172839506172839,0,0,0.06172839506172839,57.90123456790123,0)" xlink:href="#bj"/><use transform="matrix(0.06172839506172839,0,0,0.06172839506172839,64.07407407407406,0)" xlink:href="#bk"/><use transform="matrix(0.06172839506172839,0,0,0.06172839506172839,76.41975308641975,0)" xlink:href="#bl"/><use transform="matrix(0.06172839506172839,0,0,0.06172839506172839,93.7037037037037,0)" xlink:href="#bm"/></g><path d="M240 0l2-218c-23 76-54 145-80 218h-23L58-218 59 0H30v-248h44l77 211c21-75 51-140 76-211h43V0h-30" id="bn"/><path d="M155-56V0h-30v-56H8v-25l114-167h33v167h35v25h-35zm-30-156c-27 46-58 90-88 131h88v-131" id="bo"/><path d="M101-251c68 0 85 55 85 127S166 4 100 4C33 4 14-52 14-124c0-73 17-127 87-127zm-1 229c47 0 54-49 54-102s-4-102-53-102c-51 0-55 48-55 102 0 53 5 102 54 102" id="bp"/><g id="p"><use transform="matrix(0.06172839506172839,0,0,0.06172839506172839,0,0)" xlink:href="#at"/><use transform="matrix(0.06172839506172839,0,0,0.06172839506172839,15.987654320987653,0)" xlink:href="#au"/><use transform="matrix(0.06172839506172839,0,0,0.06172839506172839,30.80246913580247,0)" xlink:href="#bn"/><use transform="matrix(0.06172839506172839,0,0,0.06172839506172839,49.25925925925925,0)" xlink:href="#bj"/><use transform="matrix(0.06172839506172839,0,0,0.06172839506172839,55.432098765432094,0)" xlink:href="#bo"/><use transform="matrix(0.06172839506172839,0,0,0.06172839506172839,67.77777777777777,0)" xlink:href="#bp"/><use transform="matrix(0.06172839506172839,0,0,0.06172839506172839,80.12345679012346,0)" xlink:href="#bl"/><use transform="matrix(0.06172839506172839,0,0,0.06172839506172839,97.4074074074074,0)" xlink:href="#bm"/></g><path d="M30-248c118-7 216 8 213 122C240-48 200 0 122 0H30v-248zM63-27c89 8 146-16 146-99s-60-101-146-95v194" id="bq"/><g id="q"><use transform="matrix(0.06172839506172839,0,0,0.06172839506172839,0,0)" xlink:href="#aw"/><use transform="matrix(0.06172839506172839,0,0,0.06172839506172839,15.987654320987653,0)" xlink:href="#bq"/></g><path fill="#ef8d22" d="M240-174c0 40-23 61-54 70L253 0h-59l-57-94H76V0H24v-248c93 4 217-23 216 74zM76-134c48-2 112 12 112-38 0-48-66-32-112-35v73" id="br"/><path fill="#ef8d22" d="M133-34C117-15 103 5 69 4 32 3 11-16 11-54c-1-60 55-63 116-61 1-26-3-47-28-47-18 1-26 9-28 27l-52-2c7-38 36-58 82-57s74 22 75 68l1 82c-1 14 12 18 25 15v27c-30 8-71 5-69-32zm-48 3c29 0 43-24 42-57-32 0-66-3-65 30 0 17 8 27 23 27" id="bs"/><path fill="#ef8d22" d="M135-194c52 0 70 43 70 98 0 56-19 99-73 100-30 1-46-15-58-35L72 0H24l1-261h50v104c11-23 29-37 60-37zM114-30c31 0 40-27 40-66 0-37-7-63-39-63s-41 28-41 65c0 36 8 64 40 64" id="bt"/><path fill="#ef8d22" d="M25-224v-37h50v37H25zM25 0v-190h50V0H25" id="bu"/><path fill="#ef8d22" d="M115-3C79 11 28 4 28-45v-112H4v-33h27l15-45h31v45h36v33H77v99c-1 23 16 31 38 25v30" id="bv"/><path fill="#ef8d22" d="M230 0l2-204L168 0h-37L68-204 70 0H24v-248h70l56 185 57-185h69V0h-46" id="bw"/><path fill="#ef8d22" d="M140-251c80 0 125 45 125 126 0 70-33 111-92 124 6 28 34 38 68 31l-1 36C177 83 129 55 120 2 51-6 15-50 15-125c0-81 44-126 125-126zm-1 214c52 0 73-35 73-88 0-50-21-86-72-86-52 0-73 35-73 86s22 88 72 88" id="bx"/><g id="r"><use transform="matrix(0.08641975308641976,0,0,0.08641975308641976,0,0)" xlink:href="#br"/><use transform="matrix(0.08641975308641976,0,0,0.08641975308641976,22.38271604938272,0)" xlink:href="#bs"/><use transform="matrix(0.08641975308641976,0,0,0.08641975308641976,39.66666666666667,0)" xlink:href="#bt"/><use transform="matrix(0.08641975308641976,0,0,0.08641975308641976,58.592592592592595,0)" xlink:href="#bt"/><use transform="matrix(0.08641975308641976,0,0,0.08641975308641976,77.51851851851852,0)" xlink:href="#bu"/><use transform="matrix(0.08641975308641976,0,0,0.08641975308641976,86.1604938271605,0)" xlink:href="#bv"/><use transform="matrix(0.08641975308641976,0,0,0.08641975308641976,96.44444444444443,0)" xlink:href="#bw"/><use transform="matrix(0.08641975308641976,0,0,0.08641975308641976,122.28395061728395,0)" xlink:href="#bx"/></g><path d="M210-169c-67 3-38 105-44 169h-31v-121c0-29-5-50-35-48C34-165 62-65 56 0H25l-1-190h30c1 10-1 24 2 32 10-44 99-50 107 0 11-21 27-35 58-36 85-2 47 119 55 194h-31v-121c0-29-5-49-35-48" id="by"/><path d="M145-31C134-9 116 4 85 4 32 4 16-35 15-94c0-59 17-99 70-100 32-1 48 14 60 33 0-11-1-24 2-32h30l-1 268h-32zM93-21c41 0 51-33 51-76s-8-73-50-73c-40 0-46 35-46 75s5 74 45 74" id="bz"/><g id="s"><use transform="matrix(0.06172839506172839,0,0,0.06172839506172839,0,0)" xlink:href="#aS"/><use transform="matrix(0.06172839506172839,0,0,0.06172839506172839,7.345679012345679,0)" xlink:href="#by"/><use transform="matrix(0.06172839506172839,0,0,0.06172839506172839,25.80246913580247,0)" xlink:href="#bz"/><use transform="matrix(0.06172839506172839,0,0,0.06172839506172839,38.148148148148145,0)" xlink:href="#aZ"/><use transform="matrix(0.06172839506172839,0,0,0.06172839506172839,44.32098765432099,0)" xlink:href="#aR"/><use transform="matrix(0.06172839506172839,0,0,0.06172839506172839,49.19753086419753,0)" xlink:href="#ba"/><use transform="matrix(0.06172839506172839,0,0,0.06172839506172839,61.54320987654321,0)" xlink:href="#aR"/><use transform="matrix(0.06172839506172839,0,0,0.06172839506172839,66.41975308641975,0)" xlink:href="#aZ"/><use transform="matrix(0.06172839506172839,0,0,0.06172839506172839,72.59259259259258,0)" xlink:href="#bb"/><use transform="matrix(0.06172839506172839,0,0,0.06172839506172839,84.93827160493827,0)" xlink:href="#bc"/><use transform="matrix(0.06172839506172839,0,0,0.06172839506172839,97.28395061728395,0)" xlink:href="#aX"/></g><use transform="matrix(0.06172839506172839,0,0,0.06172839506172839,0,0)" xlink:href="#bk" id="t"/><path d="M126-127c33 6 58 20 58 59 0 88-139 92-164 29-3-8-5-16-6-25l32-3c6 27 21 44 54 44 32 0 52-15 52-46 0-38-36-46-79-43v-28c39 1 72-4 72-42 0-27-17-43-46-43-28 0-47 15-49 41l-32-3c6-42 35-63 81-64 48-1 79 21 79 65 0 36-21 52-52 59" id="bA"/><g id="u"><use transform="matrix(0.06172839506172839,0,0,0.06172839506172839,0,0)" xlink:href="#as"/><use transform="matrix(0.06172839506172839,0,0,0.06172839506172839,15.987654320987653,0)" xlink:href="#bh"/><use transform="matrix(0.06172839506172839,0,0,0.06172839506172839,30.80246913580247,0)" xlink:href="#bi"/><use transform="matrix(0.06172839506172839,0,0,0.06172839506172839,46.79012345679012,0)" xlink:href="#aV"/><use transform="matrix(0.06172839506172839,0,0,0.06172839506172839,57.90123456790123,0)" xlink:href="#bj"/><use transform="matrix(0.06172839506172839,0,0,0.06172839506172839,64.07407407407406,0)" xlink:href="#bA"/><use transform="matrix(0.06172839506172839,0,0,0.06172839506172839,76.41975308641975,0)" xlink:href="#bg"/><use transform="matrix(0.06172839506172839,0,0,0.06172839506172839,88.76543209876543,0)" xlink:href="#bl"/><use transform="matrix(0.06172839506172839,0,0,0.06172839506172839,106.04938271604938,0)" xlink:href="#bm"/></g><g id="v"><use transform="matrix(0.07407407407407408,0,0,0.07407407407407408,0,0)" xlink:href="#ar"/><use transform="matrix(0.07407407407407408,0,0,0.07407407407407408,17.77777777777778,0)" xlink:href="#aW"/><use transform="matrix(0.07407407407407408,0,0,0.07407407407407408,32.592592592592595,0)" xlink:href="#aS"/><use transform="matrix(0.07407407407407408,0,0,0.07407407407407408,41.40740740740741,0)" xlink:href="#aX"/><use transform="matrix(0.07407407407407408,0,0,0.07407407407407408,54.74074074074075,0)" xlink:href="#aY"/><use transform="matrix(0.07407407407407408,0,0,0.07407407407407408,60.5925925925926,0)" xlink:href="#aT"/><use transform="matrix(0.07407407407407408,0,0,0.07407407407407408,73.92592592592594,0)" xlink:href="#aW"/></g><path d="M190 0L58-211 59 0H30v-248h39L202-35l-2-213h31V0h-41" id="bB"/><path d="M85-194c31 0 48 13 60 33l-1-100h32l1 261h-30c-2-10 0-23-3-31C134-8 116 4 85 4 32 4 16-35 15-94c0-66 23-100 70-100zm9 24c-40 0-46 34-46 75 0 40 6 74 45 74 42 0 51-32 51-76 0-42-9-74-50-73" id="bC"/><g id="w"><use transform="matrix(0.07407407407407408,0,0,0.07407407407407408,0,0)" xlink:href="#bB"/><use transform="matrix(0.07407407407407408,0,0,0.07407407407407408,19.185185185185187,0)" xlink:href="#bc"/><use transform="matrix(0.07407407407407408,0,0,0.07407407407407408,34,0)" xlink:href="#bC"/><use transform="matrix(0.07407407407407408,0,0,0.07407407407407408,48.81481481481481,0)" xlink:href="#aW"/></g><path d="M137 0h-34L2-248h35l83 218 83-218h36" id="bD"/><g id="x"><use transform="matrix(0.08641975308641976,0,0,0.08641975308641976,0,0)" xlink:href="#bD"/><use transform="matrix(0.08641975308641976,0,0,0.08641975308641976,20.740740740740744,0)" xlink:href="#bn"/></g><path d="M67-125c0 54 23 88 75 88 28 0 53-7 68-21v-34h-60v-39h108v91C232-14 192 4 140 4 58 4 20-42 15-125 8-236 126-280 215-234c19 10 29 26 37 47l-47 15c-11-23-29-39-63-39-53 1-75 33-75 86" id="bE"/><path d="M24 0v-248h52V0H24" id="bF"/><g id="y"><use transform="matrix(0.1111111111111111,0,0,0.1111111111111111,0,0)" xlink:href="#ax"/><use transform="matrix(0.1111111111111111,0,0,0.1111111111111111,22.22222222222222,0)" xlink:href="#bE"/><use transform="matrix(0.1111111111111111,0,0,0.1111111111111111,53.33333333333333,0)" xlink:href="#bF"/></g><path d="M85 4C-2 5 27-109 22-190h50c7 57-23 150 33 157 60-5 35-97 40-157h50l1 190h-47c-2-12 1-28-3-38-12 25-28 42-61 42" id="bG"/><path d="M137-138c1-29-70-34-71-4 15 46 118 7 119 86 1 83-164 76-172 9l43-7c4 19 20 25 44 25 33 8 57-30 24-41C81-84 22-81 20-136c-2-80 154-74 161-7" id="bH"/><g id="z"><use transform="matrix(0.1111111111111111,0,0,0.1111111111111111,0,0)" xlink:href="#aH"/><use transform="matrix(0.1111111111111111,0,0,0.1111111111111111,28.777777777777775,0)" xlink:href="#aL"/><use transform="matrix(0.1111111111111111,0,0,0.1111111111111111,39.888888888888886,0)" xlink:href="#bG"/><use transform="matrix(0.1111111111111111,0,0,0.1111111111111111,64.22222222222221,0)" xlink:href="#bH"/><use transform="matrix(0.1111111111111111,0,0,0.1111111111111111,86.44444444444443,0)" xlink:href="#aC"/><use transform="matrix(0.1111111111111111,0,0,0.1111111111111111,99.66666666666666,0)" xlink:href="#aD"/><use transform="matrix(0.1111111111111111,0,0,0.1111111111111111,121.88888888888889,0)" xlink:href="#aE"/></g><g id="A"><use transform="matrix(0.06172839506172839,0,0,0.06172839506172839,0,0)" xlink:href="#ax"/><use transform="matrix(0.06172839506172839,0,0,0.06172839506172839,12.345679012345679,0)" xlink:href="#ay"/><use transform="matrix(0.06172839506172839,0,0,0.06172839506172839,27.098765432098766,0)" xlink:href="#az"/><use transform="matrix(0.06172839506172839,0,0,0.06172839506172839,48.02469135802469,0)" xlink:href="#aA"/></g><g id="B"><use transform="matrix(0.06172839506172839,0,0,0.06172839506172839,0,0)" xlink:href="#aA"/><use transform="matrix(0.06172839506172839,0,0,0.06172839506172839,14.814814814814813,0)" xlink:href="#aB"/><use transform="matrix(0.06172839506172839,0,0,0.06172839506172839,20.98765432098765,0)" xlink:href="#aC"/><use transform="matrix(0.06172839506172839,0,0,0.06172839506172839,28.33333333333333,0)" xlink:href="#aD"/></g><g id="C"><use transform="matrix(0.06172839506172839,0,0,0.06172839506172839,0,0)" xlink:href="#aA"/><use transform="matrix(0.06172839506172839,0,0,0.06172839506172839,14.814814814814813,0)" xlink:href="#aD"/><use transform="matrix(0.06172839506172839,0,0,0.06172839506172839,27.160493827160494,0)" xlink:href="#aE"/><use transform="matrix(0.06172839506172839,0,0,0.06172839506172839,35.80246913580247,0)" xlink:href="#aF"/><use transform="matrix(0.06172839506172839,0,0,0.06172839506172839,48.148148148148145,0)" xlink:href="#aD"/><use transform="matrix(0.06172839506172839,0,0,0.06172839506172839,60.49382716049382,0)" xlink:href="#aE"/><use transform="matrix(0.06172839506172839,0,0,0.06172839506172839,67.90123456790123,0)" xlink:href="#aG"/></g><g id="D"><use transform="matrix(0.06172839506172839,0,0,0.06172839506172839,0,0)" xlink:href="#aH"/><use transform="matrix(0.06172839506172839,0,0,0.06172839506172839,15.987654320987653,0)" xlink:href="#aE"/><use transform="matrix(0.06172839506172839,0,0,0.06172839506172839,24.629629629629626,0)" xlink:href="#aI"/><use transform="matrix(0.06172839506172839,0,0,0.06172839506172839,38.148148148148145,0)" xlink:href="#aJ"/><use transform="matrix(0.06172839506172839,0,0,0.06172839506172839,57.90123456790123,0)" xlink:href="#aK"/><use transform="matrix(0.06172839506172839,0,0,0.06172839506172839,75.18518518518518,0)" xlink:href="#aD"/><use transform="matrix(0.06172839506172839,0,0,0.06172839506172839,87.53086419753086,0)" xlink:href="#aL"/><use transform="matrix(0.06172839506172839,0,0,0.06172839506172839,93.7037037037037,0)" xlink:href="#aL"/><use transform="matrix(0.06172839506172839,0,0,0.06172839506172839,99.87654320987653,0)" xlink:href="#aG"/></g><path d="M117-194c89-4 53 116 60 194h-32v-121c0-31-8-49-39-48C34-167 62-67 57 0H25l-1-190h30c1 10-1 24 2 32 11-22 29-35 61-36" id="bI"/><g id="E"><use transform="matrix(0.06172839506172839,0,0,0.06172839506172839,0,0)" xlink:href="#aT"/><use transform="matrix(0.06172839506172839,0,0,0.06172839506172839,11.11111111111111,0)" xlink:href="#bc"/><use transform="matrix(0.06172839506172839,0,0,0.06172839506172839,23.45679012345679,0)" xlink:href="#aS"/><use transform="matrix(0.06172839506172839,0,0,0.06172839506172839,30.80246913580247,0)" xlink:href="#aY"/><use transform="matrix(0.06172839506172839,0,0,0.06172839506172839,35.67901234567901,0)" xlink:href="#bg"/><use transform="matrix(0.06172839506172839,0,0,0.06172839506172839,48.02469135802469,0)" xlink:href="#bp"/><use transform="matrix(0.06172839506172839,0,0,0.06172839506172839,60.37037037037037,0)" xlink:href="#aZ"/><use transform="matrix(0.06172839506172839,0,0,0.06172839506172839,66.5432098765432,0)" xlink:href="#bI"/><use transform="matrix(0.06172839506172839,0,0,0.06172839506172839,78.88888888888889,0)" xlink:href="#aW"/><use transform="matrix(0.06172839506172839,0,0,0.06172839506172839,91.23456790123457,0)" xlink:href="#aS"/><use transform="matrix(0.06172839506172839,0,0,0.06172839506172839,98.58024691358025,0)" xlink:href="#aV"/><use transform="matrix(0.06172839506172839,0,0,0.06172839506172839,109.69135802469137,0)" xlink:href="#aT"/><use transform="matrix(0.06172839506172839,0,0,0.06172839506172839,120.80246913580248,0)" xlink:href="#aZ"/><use transform="matrix(0.06172839506172839,0,0,0.06172839506172839,126.97530864197533,0)" xlink:href="#bb"/><use transform="matrix(0.06172839506172839,0,0,0.06172839506172839,139.320987654321,0)" xlink:href="#bc"/><use transform="matrix(0.06172839506172839,0,0,0.06172839506172839,151.66666666666666,0)" xlink:href="#aX"/></g><g id="F"><use transform="matrix(0.1111111111111111,0,0,0.1111111111111111,0,0)" xlink:href="#aH"/><use transform="matrix(0.1111111111111111,0,0,0.1111111111111111,28.777777777777775,0)" xlink:href="#aI"/><use transform="matrix(0.1111111111111111,0,0,0.1111111111111111,53.11111111111111,0)" xlink:href="#aE"/><use transform="matrix(0.1111111111111111,0,0,0.1111111111111111,68.66666666666666,0)" xlink:href="#aB"/></g><g id="G"><use transform="matrix(0.07407407407407408,0,0,0.07407407407407408,0,0)" xlink:href="#ar"/><use transform="matrix(0.07407407407407408,0,0,0.07407407407407408,17.77777777777778,0)" xlink:href="#as"/><use transform="matrix(0.07407407407407408,0,0,0.07407407407407408,36.96296296296296,0)" xlink:href="#at"/><use transform="matrix(0.07407407407407408,0,0,0.07407407407407408,56.14814814814815,0)" xlink:href="#au"/><use transform="matrix(0.07407407407407408,0,0,0.07407407407407408,71.92592592592592,0)" xlink:href="#av"/><use transform="matrix(0.07407407407407408,0,0,0.07407407407407408,88.14814814814817,0)" xlink:href="#as"/><use transform="matrix(0.07407407407407408,0,0,0.07407407407407408,107.33333333333334,0)" xlink:href="#aw"/></g><g id="H"><use transform="matrix(0.07407407407407408,0,0,0.07407407407407408,0,0)" xlink:href="#br"/><use transform="matrix(0.07407407407407408,0,0,0.07407407407407408,19.185185185185187,0)" xlink:href="#bs"/><use transform="matrix(0.07407407407407408,0,0,0.07407407407407408,34,0)" xlink:href="#bt"/><use transform="matrix(0.07407407407407408,0,0,0.07407407407407408,50.22222222222223,0)" xlink:href="#bt"/><use transform="matrix(0.07407407407407408,0,0,0.07407407407407408,66.44444444444446,0)" xlink:href="#bu"/><use transform="matrix(0.07407407407407408,0,0,0.07407407407407408,73.85185185185186,0)" xlink:href="#bv"/><use transform="matrix(0.07407407407407408,0,0,0.07407407407407408,82.66666666666667,0)" xlink:href="#bw"/><use transform="matrix(0.07407407407407408,0,0,0.07407407407407408,104.81481481481485,0)" xlink:href="#bx"/></g><g id="I"><use transform="matrix(0.06172839506172839,0,0,0.06172839506172839,0,0)" xlink:href="#aS"/><use transform="matrix(0.06172839506172839,0,0,0.06172839506172839,7.345679012345679,0)" xlink:href="#by"/><use transform="matrix(0.06172839506172839,0,0,0.06172839506172839,25.80246913580247,0)" xlink:href="#bz"/><use transform="matrix(0.06172839506172839,0,0,0.06172839506172839,38.148148148148145,0)" xlink:href="#aZ"/><use transform="matrix(0.06172839506172839,0,0,0.06172839506172839,44.32098765432099,0)" xlink:href="#bI"/><use transform="matrix(0.06172839506172839,0,0,0.06172839506172839,56.666666666666664,0)" xlink:href="#aW"/><use transform="matrix(0.06172839506172839,0,0,0.06172839506172839,69.01234567901234,0)" xlink:href="#aS"/><use transform="matrix(0.06172839506172839,0,0,0.06172839506172839,76.35802469135803,0)" xlink:href="#aV"/><use transform="matrix(0.06172839506172839,0,0,0.06172839506172839,87.46913580246914,0)" xlink:href="#aT"/><use transform="matrix(0.06172839506172839,0,0,0.06172839506172839,98.58024691358025,0)" xlink:href="#aZ"/><use transform="matrix(0.06172839506172839,0,0,0.06172839506172839,104.75308641975309,0)" xlink:href="#bb"/><use transform="matrix(0.06172839506172839,0,0,0.06172839506172839,117.09876543209877,0)" xlink:href="#bc"/><use transform="matrix(0.06172839506172839,0,0,0.06172839506172839,129.44444444444446,0)" xlink:href="#aX"/></g><path d="M33 0v-248h34V0H33" id="bJ"/><g id="J"><use transform="matrix(0.08641975308641976,0,0,0.08641975308641976,0,0)" xlink:href="#ar"/><use transform="matrix(0.08641975308641976,0,0,0.08641975308641976,20.740740740740744,0)" xlink:href="#bh"/><use transform="matrix(0.08641975308641976,0,0,0.08641975308641976,41.48148148148149,0)" xlink:href="#bJ"/><use transform="matrix(0.08641975308641976,0,0,0.08641975308641976,50.12345679012346,0)" xlink:href="#bB"/></g><path d="M179-190L93 31C79 59 56 82 12 73V49c39 6 53-20 64-50L1-190h34L92-34l54-156h33" id="bK"/><path d="M140-251c81 0 123 46 123 126C263-53 228-8 163 1c7 30 30 48 69 40v23c-55 16-95-15-103-61C56-3 17-48 17-125c0-80 42-126 123-126zm0 227c63 0 89-41 89-101s-29-99-89-99c-61 0-89 39-89 99S79-25 140-24" id="bL"/><path d="M30 0v-248h33v221h125V0H30" id="bM"/><g id="K"><use transform="matrix(0.08641975308641976,0,0,0.08641975308641976,0,0)" xlink:href="#bn"/><use transform="matrix(0.08641975308641976,0,0,0.08641975308641976,25.83950617283951,0)" xlink:href="#bK"/><use transform="matrix(0.08641975308641976,0,0,0.08641975308641976,41.39506172839506,0)" xlink:href="#ar"/><use transform="matrix(0.08641975308641976,0,0,0.08641975308641976,62.13580246913581,0)" xlink:href="#bL"/><use transform="matrix(0.08641975308641976,0,0,0.08641975308641976,86.33333333333334,0)" xlink:href="#bM"/></g><path d="M115-194c55 1 70 41 70 98S169 2 115 4C84 4 66-9 55-30l1 105H24l-1-265h31l2 30c10-21 28-34 59-34zm-8 174c40 0 45-34 45-75s-6-73-45-74c-42 0-51 32-51 76 0 43 10 73 51 73" id="bN"/><path d="M59-47c-2 24 18 29 38 22v24C64 9 27 4 27-40v-127H5v-23h24l9-43h21v43h35v23H59v120" id="bO"/><g id="L"><use transform="matrix(0.06172839506172839,0,0,0.06172839506172839,0,0)" xlink:href="#bC"/><use transform="matrix(0.06172839506172839,0,0,0.06172839506172839,12.345679012345679,0)" xlink:href="#ba"/><use transform="matrix(0.06172839506172839,0,0,0.06172839506172839,24.691358024691358,0)" xlink:href="#aZ"/><use transform="matrix(0.06172839506172839,0,0,0.06172839506172839,30.864197530864196,0)" xlink:href="#by"/><use transform="matrix(0.06172839506172839,0,0,0.06172839506172839,49.32098765432099,0)" xlink:href="#bK"/><use transform="matrix(0.06172839506172839,0,0,0.06172839506172839,60.4320987654321,0)" xlink:href="#aV"/><use transform="matrix(0.06172839506172839,0,0,0.06172839506172839,71.54320987654322,0)" xlink:href="#bz"/><use transform="matrix(0.06172839506172839,0,0,0.06172839506172839,83.8888888888889,0)" xlink:href="#aR"/><use transform="matrix(0.06172839506172839,0,0,0.06172839506172839,88.76543209876544,0)" xlink:href="#aZ"/><use transform="matrix(0.06172839506172839,0,0,0.06172839506172839,94.93827160493828,0)" xlink:href="#bN"/><use transform="matrix(0.06172839506172839,0,0,0.06172839506172839,107.28395061728396,0)" xlink:href="#aS"/><use transform="matrix(0.06172839506172839,0,0,0.06172839506172839,114.62962962962965,0)" xlink:href="#bc"/><use transform="matrix(0.06172839506172839,0,0,0.06172839506172839,126.97530864197533,0)" xlink:href="#bC"/><use transform="matrix(0.06172839506172839,0,0,0.06172839506172839,139.32098765432102,0)" xlink:href="#aU"/><use transform="matrix(0.06172839506172839,0,0,0.06172839506172839,146.66666666666669,0)" xlink:href="#aT"/><use transform="matrix(0.06172839506172839,0,0,0.06172839506172839,157.7777777777778,0)" xlink:href="#be"/><use transform="matrix(0.06172839506172839,0,0,0.06172839506172839,170.12345679012347,0)" xlink:href="#bO"/><use transform="matrix(0.06172839506172839,0,0,0.06172839506172839,176.2962962962963,0)" xlink:href="#bO"/><use transform="matrix(0.06172839506172839,0,0,0.06172839506172839,182.46913580246914,0)" xlink:href="#aR"/><use transform="matrix(0.06172839506172839,0,0,0.06172839506172839,187.34567901234567,0)" xlink:href="#aW"/><use transform="matrix(0.06172839506172839,0,0,0.06172839506172839,199.69135802469134,0)" xlink:href="#aZ"/></g><g id="M"><use transform="matrix(0.06172839506172839,0,0,0.06172839506172839,0,0)" xlink:href="#aV"/><use transform="matrix(0.06172839506172839,0,0,0.06172839506172839,11.11111111111111,0)" xlink:href="#bO"/><use transform="matrix(0.06172839506172839,0,0,0.06172839506172839,17.28395061728395,0)" xlink:href="#be"/><use transform="matrix(0.06172839506172839,0,0,0.06172839506172839,29.629629629629626,0)" xlink:href="#ba"/><use transform="matrix(0.06172839506172839,0,0,0.06172839506172839,41.9753086419753,0)" xlink:href="#aR"/><use transform="matrix(0.06172839506172839,0,0,0.06172839506172839,46.85185185185185,0)" xlink:href="#aW"/><use transform="matrix(0.06172839506172839,0,0,0.06172839506172839,59.197530864197525,0)" xlink:href="#aZ"/><use transform="matrix(0.06172839506172839,0,0,0.06172839506172839,65.37037037037037,0)" xlink:href="#aV"/><use transform="matrix(0.06172839506172839,0,0,0.06172839506172839,76.48148148148148,0)" xlink:href="#bN"/><use transform="matrix(0.06172839506172839,0,0,0.06172839506172839,88.82716049382717,0)" xlink:href="#aY"/><use transform="matrix(0.06172839506172839,0,0,0.06172839506172839,93.70370370370371,0)" xlink:href="#bI"/><use transform="matrix(0.06172839506172839,0,0,0.06172839506172839,106.0493827160494,0)" xlink:href="#aZ"/><use transform="matrix(0.06172839506172839,0,0,0.06172839506172839,112.22222222222223,0)" xlink:href="#bI"/><use transform="matrix(0.06172839506172839,0,0,0.06172839506172839,124.56790123456791,0)" xlink:href="#aW"/><use transform="matrix(0.06172839506172839,0,0,0.06172839506172839,136.9135802469136,0)" xlink:href="#aS"/><use transform="matrix(0.06172839506172839,0,0,0.06172839506172839,144.25925925925927,0)" xlink:href="#aV"/><use transform="matrix(0.06172839506172839,0,0,0.06172839506172839,155.37037037037038,0)" xlink:href="#aT"/><use transform="matrix(0.06172839506172839,0,0,0.06172839506172839,166.4814814814815,0)" xlink:href="#aZ"/><use transform="matrix(0.06172839506172839,0,0,0.06172839506172839,172.65432098765433,0)" xlink:href="#bc"/><use transform="matrix(0.06172839506172839,0,0,0.06172839506172839,185,0)" xlink:href="#aS"/><use transform="matrix(0.06172839506172839,0,0,0.06172839506172839,192.34567901234567,0)" xlink:href="#bb"/></g><path fill="#0c7cba" d="M24-231v-30h32v30H24zM-9 49c24 4 33-6 33-30v-209h32V24c2 40-23 58-65 49V49" id="bP"/><path fill="#0c7cba" d="M100-194c62-1 85 37 85 99 1 63-27 99-86 99S16-35 15-95c0-66 28-99 85-99zM99-20c44 1 53-31 53-75 0-43-8-75-51-75s-53 32-53 75 10 74 51 75" id="bQ"/><path fill="#0c7cba" d="M115-194c53 0 69 39 70 98 0 66-23 100-70 100C84 3 66-7 56-30L54 0H23l1-261h32v101c10-23 28-34 59-34zm-8 174c40 0 45-34 45-75 0-40-5-75-45-74-42 0-51 32-51 76 0 43 10 73 51 73" id="bR"/><g id="N"><use transform="matrix(0.08641975308641976,0,0,0.08641975308641976,0,0)" xlink:href="#bP"/><use transform="matrix(0.08641975308641976,0,0,0.08641975308641976,6.8271604938271615,0)" xlink:href="#bQ"/><use transform="matrix(0.08641975308641976,0,0,0.08641975308641976,24.111111111111114,0)" xlink:href="#bR"/></g><path fill="#0c7cba" d="M135-143c-3-34-86-38-87 0 15 53 115 12 119 90S17 21 10-45l28-5c4 36 97 45 98 0-10-56-113-15-118-90-4-57 82-63 122-42 12 7 21 19 24 35" id="bS"/><path fill="#0c7cba" d="M84 4C-5 8 30-112 23-190h32v120c0 31 7 50 39 49 72-2 45-101 50-169h31l1 190h-30c-1-10 1-25-2-33-11 22-28 36-60 37" id="bT"/><path fill="#0c7cba" d="M210-169c-67 3-38 105-44 169h-31v-121c0-29-5-50-35-48C34-165 62-65 56 0H25l-1-190h30c1 10-1 24 2 32 10-44 99-50 107 0 11-21 27-35 58-36 85-2 47 119 55 194h-31v-121c0-29-5-49-35-48" id="bU"/><path fill="#0c7cba" d="M24-231v-30h32v30H24zM24 0v-190h32V0H24" id="bV"/><path fill="#0c7cba" d="M117-194c89-4 53 116 60 194h-32v-121c0-31-8-49-39-48C34-167 62-67 57 0H25l-1-190h30c1 10-1 24 2 32 11-22 29-35 61-36" id="bW"/><g id="O"><use transform="matrix(0.08641975308641976,0,0,0.08641975308641976,0,0)" xlink:href="#bS"/><use transform="matrix(0.08641975308641976,0,0,0.08641975308641976,15.555555555555557,0)" xlink:href="#bT"/><use transform="matrix(0.08641975308641976,0,0,0.08641975308641976,32.839506172839506,0)" xlink:href="#bR"/><use transform="matrix(0.08641975308641976,0,0,0.08641975308641976,50.123456790123456,0)" xlink:href="#bU"/><use transform="matrix(0.08641975308641976,0,0,0.08641975308641976,75.96296296296296,0)" xlink:href="#bV"/><use transform="matrix(0.08641975308641976,0,0,0.08641975308641976,82.79012345679013,0)" xlink:href="#bS"/><use transform="matrix(0.08641975308641976,0,0,0.08641975308641976,98.34567901234568,0)" xlink:href="#bS"/><use transform="matrix(0.08641975308641976,0,0,0.08641975308641976,113.90123456790124,0)" xlink:href="#bV"/><use transform="matrix(0.08641975308641976,0,0,0.08641975308641976,120.7283950617284,0)" xlink:href="#bQ"/><use transform="matrix(0.08641975308641976,0,0,0.08641975308641976,138.01234567901236,0)" xlink:href="#bW"/></g><g id="P"><use transform="matrix(0.07407407407407408,0,0,0.07407407407407408,0,0)" xlink:href="#bP"/><use transform="matrix(0.07407407407407408,0,0,0.07407407407407408,5.851851851851853,0)" xlink:href="#bQ"/><use transform="matrix(0.07407407407407408,0,0,0.07407407407407408,20.666666666666668,0)" xlink:href="#bR"/></g><g id="Q"><use transform="matrix(0.07407407407407408,0,0,0.07407407407407408,0,0)" xlink:href="#bS"/><use transform="matrix(0.07407407407407408,0,0,0.07407407407407408,13.333333333333336,0)" xlink:href="#bT"/><use transform="matrix(0.07407407407407408,0,0,0.07407407407407408,28.148148148148152,0)" xlink:href="#bR"/><use transform="matrix(0.07407407407407408,0,0,0.07407407407407408,42.96296296296297,0)" xlink:href="#bU"/><use transform="matrix(0.07407407407407408,0,0,0.07407407407407408,65.11111111111111,0)" xlink:href="#bV"/><use transform="matrix(0.07407407407407408,0,0,0.07407407407407408,70.96296296296296,0)" xlink:href="#bS"/><use transform="matrix(0.07407407407407408,0,0,0.07407407407407408,84.2962962962963,0)" xlink:href="#bS"/><use transform="matrix(0.07407407407407408,0,0,0.07407407407407408,97.62962962962965,0)" xlink:href="#bV"/><use transform="matrix(0.07407407407407408,0,0,0.07407407407407408,103.4814814814815,0)" xlink:href="#bQ"/><use transform="matrix(0.07407407407407408,0,0,0.07407407407407408,118.29629629629632,0)" xlink:href="#bW"/></g><path d="M24 0v-248h52v208h133V0H24" id="bX"/><path d="M190-63c-7 42-38 67-86 67-59 0-84-38-90-98-12-110 154-137 174-36l-49 2c-2-19-15-32-35-32-30 0-35 28-38 64-6 74 65 87 74 30" id="bY"/><g id="R"><use transform="matrix(0.1111111111111111,0,0,0.1111111111111111,0,0)" xlink:href="#bX"/><use transform="matrix(0.1111111111111111,0,0,0.1111111111111111,24.333333333333332,0)" xlink:href="#aO"/><use transform="matrix(0.1111111111111111,0,0,0.1111111111111111,46.55555555555556,0)" xlink:href="#aK"/><use transform="matrix(0.1111111111111111,0,0,0.1111111111111111,77.66666666666667,0)" xlink:href="#aE"/><use transform="matrix(0.1111111111111111,0,0,0.1111111111111111,93.22222222222223,0)" xlink:href="#aD"/><use transform="matrix(0.1111111111111111,0,0,0.1111111111111111,115.44444444444446,0)" xlink:href="#aP"/><use transform="matrix(0.1111111111111111,0,0,0.1111111111111111,139.7777777777778,0)" xlink:href="#bY"/><use transform="matrix(0.1111111111111111,0,0,0.1111111111111111,162.00000000000003,0)" xlink:href="#aB"/><use transform="matrix(0.1111111111111111,0,0,0.1111111111111111,173.11111111111114,0)" xlink:href="#bG"/><use transform="matrix(0.1111111111111111,0,0,0.1111111111111111,197.44444444444449,0)" xlink:href="#aJ"/></g><path d="M153-248C145-148 188 4 80 4 36 3 13-21 6-62l32-5c4 25 16 42 43 43 27 0 39-20 39-49v-147H72v-28h81" id="bZ"/><path d="M266 0h-40l-56-210L115 0H75L2-248h35L96-30l15-64 43-154h32l59 218 59-218h35" id="ca"/><g id="S"><use transform="matrix(0.1851851851851852,0,0,0.1851851851851852,0,0)" xlink:href="#bZ"/><use transform="matrix(0.1851851851851852,0,0,0.1851851851851852,33.333333333333336,0)" xlink:href="#au"/><use transform="matrix(0.1851851851851852,0,0,0.1851851851851852,75.37037037037038,0)" xlink:href="#ca"/><use transform="matrix(0.1851851851851852,0,0,0.1851851851851852,138.14814814814815,0)" xlink:href="#ar"/></g><g id="T"><use transform="matrix(0.1851851851851852,0,0,0.1851851851851852,0,0)" xlink:href="#ar"/><use transform="matrix(0.1851851851851852,0,0,0.1851851851851852,44.44444444444445,0)" xlink:href="#bK"/><use transform="matrix(0.1851851851851852,0,0,0.1851851851851852,77.77777777777779,0)" xlink:href="#aV"/><use transform="matrix(0.1851851851851852,0,0,0.1851851851851852,111.11111111111113,0)" xlink:href="#bO"/><use transform="matrix(0.1851851851851852,0,0,0.1851851851851852,129.62962962962962,0)" xlink:href="#aW"/><use transform="matrix(0.1851851851851852,0,0,0.1851851851851852,166.66666666666666,0)" xlink:href="#by"/></g><path d="M101-234c-31-9-42 10-38 44h38v23H63V0H32v-167H5v-23h27c-7-52 17-82 69-68v24" id="cb"/><path d="M84 4C-5 8 30-112 23-190h32v120c0 31 7 50 39 49 72-2 45-101 50-169h31l1 190h-30c-1-10 1-25-2-33-11 22-28 36-60 37" id="cc"/><g id="U"><use transform="matrix(0.1851851851851852,0,0,0.1851851851851852,0,0)" xlink:href="#as"/><use transform="matrix(0.1851851851851852,0,0,0.1851851851851852,47.96296296296297,0)" xlink:href="#bc"/><use transform="matrix(0.1851851851851852,0,0,0.1851851851851852,85,0)" xlink:href="#bI"/><use transform="matrix(0.1851851851851852,0,0,0.1851851851851852,122.03703703703705,0)" xlink:href="#cb"/><use transform="matrix(0.1851851851851852,0,0,0.1851851851851852,140.55555555555554,0)" xlink:href="#aY"/><use transform="matrix(0.1851851851851852,0,0,0.1851851851851852,155.18518518518516,0)" xlink:href="#bb"/><use transform="matrix(0.1851851851851852,0,0,0.1851851851851852,192.2222222222222,0)" xlink:href="#cc"/><use transform="matrix(0.1851851851851852,0,0,0.1851851851851852,229.25925925925924,0)" xlink:href="#aS"/><use transform="matrix(0.1851851851851852,0,0,0.1851851851851852,251.29629629629628,0)" xlink:href="#be"/><use transform="matrix(0.1851851851851852,0,0,0.1851851851851852,288.3333333333333,0)" xlink:href="#bO"/><use transform="matrix(0.1851851851851852,0,0,0.1851851851851852,306.85185185185185,0)" xlink:href="#aY"/><use transform="matrix(0.1851851851851852,0,0,0.1851851851851852,321.48148148148147,0)" xlink:href="#bc"/><use transform="matrix(0.1851851851851852,0,0,0.1851851851851852,358.5185185185185,0)" xlink:href="#bI"/></g><g id="V"><use transform="matrix(0.1851851851851852,0,0,0.1851851851851852,0,0)" xlink:href="#bc"/><use transform="matrix(0.1851851851851852,0,0,0.1851851851851852,37.03703703703704,0)" xlink:href="#bI"/></g><g id="W"><use transform="matrix(0.1851851851851852,0,0,0.1851851851851852,0,0)" xlink:href="#bM"/><use transform="matrix(0.1851851851851852,0,0,0.1851851851851852,37.03703703703704,0)" xlink:href="#bm"/><use transform="matrix(0.1851851851851852,0,0,0.1851851851851852,81.4814814814815,0)" xlink:href="#bM"/></g><g id="X"><use transform="matrix(0.1851851851851852,0,0,0.1851851851851852,0,0)" xlink:href="#bJ"/><use transform="matrix(0.1851851851851852,0,0,0.1851851851851852,18.51851851851852,0)" xlink:href="#av"/></g><g id="Y"><use transform="matrix(0.1851851851851852,0,0,0.1851851851851852,0,0)" xlink:href="#be"/><use transform="matrix(0.1851851851851852,0,0,0.1851851851851852,37.03703703703704,0)" xlink:href="#bI"/><use transform="matrix(0.1851851851851852,0,0,0.1851851851851852,74.07407407407408,0)" xlink:href="#bC"/></g><path d="M30 0v-248h187v28H63v79h144v27H63v87h162V0H30" id="cd"/><g id="Z"><use transform="matrix(0.1851851851851852,0,0,0.1851851851851852,0,0)" xlink:href="#bB"/><use transform="matrix(0.1851851851851852,0,0,0.1851851851851852,47.96296296296297,0)" xlink:href="#cd"/><use transform="matrix(0.1851851851851852,0,0,0.1851851851851852,92.40740740740742,0)" xlink:href="#at"/><use transform="matrix(0.1851851851851852,0,0,0.1851851851851852,140.37037037037038,0)" xlink:href="#ar"/><use transform="matrix(0.1851851851851852,0,0,0.1851851851851852,184.81481481481484,0)" xlink:href="#as"/></g><g id="aa"><use transform="matrix(0.14814814814814817,0,0,0.14814814814814817,0,0)" xlink:href="#bM"/><use transform="matrix(0.14814814814814817,0,0,0.14814814814814817,29.629629629629633,0)" xlink:href="#bm"/><use transform="matrix(0.14814814814814817,0,0,0.14814814814814817,65.18518518518519,0)" xlink:href="#bM"/></g><g id="ab"><use transform="matrix(0.14814814814814817,0,0,0.14814814814814817,0,0)" xlink:href="#bJ"/><use transform="matrix(0.14814814814814817,0,0,0.14814814814814817,14.814814814814817,0)" xlink:href="#av"/></g><g id="ac"><use transform="matrix(0.14814814814814817,0,0,0.14814814814814817,0,0)" xlink:href="#bB"/><use transform="matrix(0.14814814814814817,0,0,0.14814814814814817,38.370370370370374,0)" xlink:href="#cd"/><use transform="matrix(0.14814814814814817,0,0,0.14814814814814817,73.92592592592592,0)" xlink:href="#at"/><use transform="matrix(0.14814814814814817,0,0,0.14814814814814817,112.2962962962963,0)" xlink:href="#ar"/><use transform="matrix(0.14814814814814817,0,0,0.14814814814814817,147.85185185185185,0)" xlink:href="#as"/></g><g id="ad"><use transform="matrix(0.08641975308641976,0,0,0.08641975308641976,0,0)" xlink:href="#bn"/><use transform="matrix(0.08641975308641976,0,0,0.08641975308641976,25.83950617283951,0)" xlink:href="#bK"/><use transform="matrix(0.08641975308641976,0,0,0.08641975308641976,41.39506172839506,0)" xlink:href="#ar"/><use transform="matrix(0.08641975308641976,0,0,0.08641975308641976,62.13580246913581,0)" xlink:href="#bL"/><use transform="matrix(0.08641975308641976,0,0,0.08641975308641976,86.33333333333334,0)" xlink:href="#bM"/></g><g id="ae"><use transform="matrix(0.06172839506172839,0,0,0.06172839506172839,0,0)" xlink:href="#bd"/><use transform="matrix(0.06172839506172839,0,0,0.06172839506172839,4.876543209876543,0)" xlink:href="#be"/><use transform="matrix(0.06172839506172839,0,0,0.06172839506172839,17.22222222222222,0)" xlink:href="#bf"/><use transform="matrix(0.06172839506172839,0,0,0.06172839506172839,33.20987654320987,0)" xlink:href="#aV"/><use transform="matrix(0.06172839506172839,0,0,0.06172839506172839,44.32098765432099,0)" xlink:href="#aU"/><use transform="matrix(0.06172839506172839,0,0,0.06172839506172839,51.666666666666664,0)" xlink:href="#bC"/><use transform="matrix(0.06172839506172839,0,0,0.06172839506172839,64.01234567901234,0)" xlink:href="#ba"/><use transform="matrix(0.06172839506172839,0,0,0.06172839506172839,76.35802469135803,0)" xlink:href="#aZ"/><use transform="matrix(0.06172839506172839,0,0,0.06172839506172839,82.53086419753086,0)" xlink:href="#aR"/><use transform="matrix(0.06172839506172839,0,0,0.06172839506172839,87.4074074074074,0)" xlink:href="#ba"/><use transform="matrix(0.06172839506172839,0,0,0.06172839506172839,99.75308641975309,0)" xlink:href="#aR"/><use transform="matrix(0.06172839506172839,0,0,0.06172839506172839,104.62962962962963,0)" xlink:href="#aZ"/><use transform="matrix(0.06172839506172839,0,0,0.06172839506172839,110.80246913580247,0)" xlink:href="#bb"/><use transform="matrix(0.06172839506172839,0,0,0.06172839506172839,123.14814814814815,0)" xlink:href="#bc"/><use transform="matrix(0.06172839506172839,0,0,0.06172839506172839,135.49382716049382,0)" xlink:href="#aX"/></g><use transform="matrix(0.06172839506172839,0,0,0.06172839506172839,0,0)" xlink:href="#bo" id="af"/><path d="M27 0v-27h64v-190l-56 39v-29l58-41h29v221h61V0H27" id="ce"/><path d="M110-160c48 1 74 30 74 79 0 53-28 85-80 85-65 0-83-55-86-122-5-90 50-162 133-122 14 7 22 21 27 39l-31 6c-5-40-67-38-82-6-9 19-15 44-15 74 11-20 30-34 60-33zm-7 138c34 0 49-23 49-58s-16-56-50-56c-29 0-50 16-49 49 1 36 15 65 50 65" id="cf"/><g id="ag"><use transform="matrix(0.06172839506172839,0,0,0.06172839506172839,0,0)" xlink:href="#as"/><use transform="matrix(0.06172839506172839,0,0,0.06172839506172839,15.987654320987653,0)" xlink:href="#bh"/><use transform="matrix(0.06172839506172839,0,0,0.06172839506172839,30.80246913580247,0)" xlink:href="#bi"/><use transform="matrix(0.06172839506172839,0,0,0.06172839506172839,46.79012345679012,0)" xlink:href="#aV"/><use transform="matrix(0.06172839506172839,0,0,0.06172839506172839,57.90123456790123,0)" xlink:href="#bj"/><use transform="matrix(0.06172839506172839,0,0,0.06172839506172839,64.07407407407406,0)" xlink:href="#ce"/><use transform="matrix(0.06172839506172839,0,0,0.06172839506172839,76.41975308641975,0)" xlink:href="#cf"/><use transform="matrix(0.06172839506172839,0,0,0.06172839506172839,88.76543209876543,0)" xlink:href="#bl"/><use transform="matrix(0.06172839506172839,0,0,0.06172839506172839,106.04938271604938,0)" xlink:href="#bm"/></g><g id="ah"><use transform="matrix(0.06172839506172839,0,0,0.06172839506172839,0,0)" xlink:href="#at"/><use transform="matrix(0.06172839506172839,0,0,0.06172839506172839,15.987654320987653,0)" xlink:href="#au"/><use transform="matrix(0.06172839506172839,0,0,0.06172839506172839,30.80246913580247,0)" xlink:href="#bn"/><use transform="matrix(0.06172839506172839,0,0,0.06172839506172839,49.25925925925925,0)" xlink:href="#bj"/><use transform="matrix(0.06172839506172839,0,0,0.06172839506172839,55.432098765432094,0)" xlink:href="#bo"/><use transform="matrix(0.06172839506172839,0,0,0.06172839506172839,67.77777777777777,0)" xlink:href="#bp"/><use transform="matrix(0.06172839506172839,0,0,0.06172839506172839,80.12345679012346,0)" xlink:href="#bl"/><use transform="matrix(0.06172839506172839,0,0,0.06172839506172839,97.4074074074074,0)" xlink:href="#bm"/></g><g id="ai"><use transform="matrix(0.06172839506172839,0,0,0.06172839506172839,0,0)" xlink:href="#aw"/><use transform="matrix(0.06172839506172839,0,0,0.06172839506172839,15.987654320987653,0)" xlink:href="#bq"/></g><g id="aj"><use transform="matrix(0.08641975308641976,0,0,0.08641975308641976,0,0)" xlink:href="#bD"/><use transform="matrix(0.08641975308641976,0,0,0.08641975308641976,20.740740740740744,0)" xlink:href="#bn"/></g><g id="ak"><use transform="matrix(0.04938271604938272,0,0,0.04938271604938272,0,0)" xlink:href="#as"/><use transform="matrix(0.04938271604938272,0,0,0.04938271604938272,12.790123456790125,0)" xlink:href="#bc"/><use transform="matrix(0.04938271604938272,0,0,0.04938271604938272,22.66666666666667,0)" xlink:href="#bI"/><use transform="matrix(0.04938271604938272,0,0,0.04938271604938272,32.543209876543216,0)" xlink:href="#bC"/><use transform="matrix(0.04938271604938272,0,0,0.04938271604938272,42.41975308641976,0)" xlink:href="#bc"/><use transform="matrix(0.04938271604938272,0,0,0.04938271604938272,52.2962962962963,0)" xlink:href="#aU"/></g><g id="al"><use transform="matrix(0.04938271604938272,0,0,0.04938271604938272,0,0)" xlink:href="#aV"/><use transform="matrix(0.04938271604938272,0,0,0.04938271604938272,8.88888888888889,0)" xlink:href="#bO"/><use transform="matrix(0.04938271604938272,0,0,0.04938271604938272,13.827160493827162,0)" xlink:href="#bc"/><use transform="matrix(0.04938271604938272,0,0,0.04938271604938272,23.703703703703706,0)" xlink:href="#aS"/><use transform="matrix(0.04938271604938272,0,0,0.04938271604938272,29.58024691358025,0)" xlink:href="#be"/><use transform="matrix(0.04938271604938272,0,0,0.04938271604938272,39.4567901234568,0)" xlink:href="#bb"/><use transform="matrix(0.04938271604938272,0,0,0.04938271604938272,49.33333333333334,0)" xlink:href="#aW"/></g><path d="M87 75C49 33 22-17 22-94c0-76 28-126 65-167h31c-38 41-64 92-64 168S80 34 118 75H87" id="cg"/><path d="M33-261c38 41 65 92 65 168S71 34 33 75H2C39 34 66-17 66-93S39-220 2-261h31" id="ch"/><g id="am"><use transform="matrix(0.04938271604938272,0,0,0.04938271604938272,0,0)" xlink:href="#cg"/><use transform="matrix(0.04938271604938272,0,0,0.04938271604938272,5.8765432098765435,0)" xlink:href="#ce"/><use transform="matrix(0.04938271604938272,0,0,0.04938271604938272,15.753086419753087,0)" xlink:href="#av"/><use transform="matrix(0.04938271604938272,0,0,0.04938271604938272,26.567901234567902,0)" xlink:href="#bm"/><use transform="matrix(0.04938271604938272,0,0,0.04938271604938272,38.41975308641976,0)" xlink:href="#ch"/></g><g id="an"><use transform="matrix(0.08641975308641976,0,0,0.08641975308641976,0,0)" xlink:href="#bZ"/><use transform="matrix(0.08641975308641976,0,0,0.08641975308641976,15.555555555555557,0)" xlink:href="#av"/><use transform="matrix(0.08641975308641976,0,0,0.08641975308641976,34.48148148148148,0)" xlink:href="#bn"/></g><path d="M143 0L79-87 56-68V0H24v-261h32v163l83-92h37l-77 82L181 0h-38" id="ci"/><g id="ao"><use transform="matrix(0.08641975308641976,0,0,0.08641975308641976,0,0)" xlink:href="#ca"/><use transform="matrix(0.08641975308641976,0,0,0.08641975308641976,28.69135802469136,0)" xlink:href="#bc"/><use transform="matrix(0.08641975308641976,0,0,0.08641975308641976,45.97530864197531,0)" xlink:href="#aS"/><use transform="matrix(0.08641975308641976,0,0,0.08641975308641976,56.25925925925927,0)" xlink:href="#ci"/><use transform="matrix(0.08641975308641976,0,0,0.08641975308641976,71.81481481481482,0)" xlink:href="#aW"/><use transform="matrix(0.08641975308641976,0,0,0.08641975308641976,89.09876543209877,0)" xlink:href="#aS"/><use transform="matrix(0.08641975308641976,0,0,0.08641975308641976,99.38271604938272,0)" xlink:href="#aV"/></g><g id="ap"><use transform="matrix(0.08641975308641976,0,0,0.08641975308641976,0,0)" xlink:href="#bi"/><use transform="matrix(0.08641975308641976,0,0,0.08641975308641976,22.38271604938272,0)" xlink:href="#aV"/><use transform="matrix(0.08641975308641976,0,0,0.08641975308641976,37.93827160493828,0)" xlink:href="#aW"/><use transform="matrix(0.08641975308641976,0,0,0.08641975308641976,55.22222222222223,0)" xlink:href="#aS"/></g></defs></g></svg>