<svg xmlns="http://www.w3.org/2000/svg" xmlns:xlink="http://www.w3.org/1999/xlink" xmlns:lucid="lucid" width="1740.26" height="1234"><g transform="translate(-10.740740740740733 0)" lucid:page-tab-id="0_0"><path d="M1134.47 60h213.68v160h-213.68z" stroke="#000" stroke-width="2" fill="#fff"/><use xlink:href="#a" transform="matrix(1,0,0,1,1139.4726570199464,65) translate(69.525 80.025)"/><path d="M195 630c8.84 0 16 26.86 16 60s-7.16 60-16 60H67c-8.84 0-16-26.86-16-60s7.16-60 16-60z" stroke="#000" stroke-width="2" fill="#fff"/><path d="M195 750c-8.84 0-16-26.86-16-60s7.16-60 16-60" stroke="#000" stroke-width="2" fill="none"/><use xlink:href="#b" transform="matrix(1,0,0,1,56,635.0000000000699) translate(16.299999999999997 59.0875)"/><path d="M331 315.52c0 52.76-44.77 95.52-100 95.52s-100-42.76-100-95.52c0-52.75 44.77-95.52 100-95.52s100 42.77 100 95.52z" stroke="#000" stroke-width="2" fill="#fff"/><use xlink:href="#c" transform="matrix(1,0,0,1,136,225) translate(34.67475308641974 47.99305555555556)"/><use xlink:href="#d" transform="matrix(1,0,0,1,136,225) translate(110.58833333333334 47.99305555555556)"/><use xlink:href="#e" transform="matrix(1,0,0,1,136,225) translate(53.585246913580235 77.32638888888889)"/><use xlink:href="#f" transform="matrix(1,0,0,1,136,225) translate(36.67283950617282 106.65972222222223)"/><use xlink:href="#g" transform="matrix(1,0,0,1,136,225) translate(17.088333333333317 135.99305555555554)"/><use xlink:href="#h" transform="matrix(1,0,0,1,136,225) translate(72.63154320987654 135.99305555555554)"/><path d="M131 410h240v60H131z" stroke="#000" stroke-opacity="0" stroke-width="2" fill="#fff" fill-opacity="0"/><use xlink:href="#i" transform="matrix(1,0,0,1,136.00000000000003,415.0000000002094) translate(14.743827160493794 28.930555555555557)"/><path d="M414 1023.24c-34.8 0-63-26.5-63-59.2 0-26.16 17.06-48.22 43.53-56.3C393 830.83 498 816.03 540 845.63c21-44.4 126-29.6 126 14.8 63-14.8 126 44.4 84 118.4 42 59.2 0 133.2-84 103.6-21 38.5-105 38.5-126 0-42 29.6-126 14.8-126-59.2zM771 200c0 44.18-35.82 80-80 80s-80-35.82-80-80 35.82-80 80-80 80 35.82 80 80z" stroke="#000" stroke-width="2" fill="#fff"/><use xlink:href="#j" transform="matrix(1,0,0,1,616,124.99999999999999) translate(27.875370370370366 36.67666666666667)"/><use xlink:href="#k" transform="matrix(1,0,0,1,616,124.99999999999999) translate(17.73148148148148 76.67666666666668)"/><use xlink:href="#l" transform="matrix(1,0,0,1,616,124.99999999999999) translate(23.153148148148144 116.67666666666669)"/><path d="M877.92 537.4c0 44.18-35.82 80-80 80s-80-35.82-80-80 35.82-80 80-80 80 35.82 80 80z" stroke="#000" stroke-width="2" fill="#fff"/><use xlink:href="#m" transform="matrix(1,0,0,1,722.9211344706805,462.40000000006967) translate(1.7592592592592666 81.13888888888889)"/><path d="M676 410h240v60H676z" stroke="#000" stroke-opacity="0" stroke-width="2" fill="#fff" fill-opacity="0"/><use xlink:href="#n" transform="matrix(1,0,0,1,681,415.00000000006975) translate(90.04629629629629 32.91666666666667)"/><path d="M477.92 1012.05h240v60h-240z" stroke="#000" stroke-opacity="0" stroke-width="2" fill="#fff" fill-opacity="0"/><use xlink:href="#o" transform="matrix(1,0,0,1,482.9211344706805,1017.0475960940553) translate(8.5 35.125)"/><use xlink:href="#p" transform="matrix(1,0,0,1,482.9211344706805,1017.0475960940553) translate(84.05555555555556 35.125)"/><path d="M113.1 557.67l1.57-15.22m1.57-15.22l.3-3.04m1.58-15.24l3.13-30.44m1.56-15.22l.33-3.04m1.56-15.22l3.12-30.45m1.57-15.23l.3-3.04m1.56-15.22l1.57-15.2" stroke="#000" stroke-width="3" fill="none"/><path d="M111.5 573.35l-3.16-14.66 9.23.94zM134.44 350.2l3.15 14.67-9.23-.95z" stroke="#000" stroke-width="3"/><path d="M226.25 701.8l7.08 5.87m7.1 5.86l1.4 1.17m7.1 5.87l1.4 1.17m7.1 5.87l14.15 11.74m7.1 5.87l1.4 1.18m7.1 5.86l1.4 1.18m7.1 5.86L309.82 771m7.1 5.88l1.4 1.17m7.1 5.87l1.4 1.17m7.1 5.86l14.15 11.73m7.1 5.85l1.4 1.18m7.1 5.86l1.4 1.17m7.1 5.86l14.15 11.73m7.1 5.87l1.4 1.17m7.1 5.87l1.4 1.17m7.1 5.87l14.15 11.74m7.1 5.86l1.4 1.18m7.1 5.86l1.4 1.17m7.1 5.88l7.07 5.86" stroke="#000" stroke-width="2" fill="none"/><path d="M214.5 692.06l13.94 5.53-5.92 7.13zM467.5 901.58l-13.94-5.53 5.92-7.14z" stroke="#000" stroke-width="2"/><path d="M175 579.18c8.84 0 16 26.87 16 60 0 33.14-7.16 60-16 60H47c-8.84 0-16-26.86-16-60 0-33.13 7.16-60 16-60z" stroke="#000" stroke-width="2" fill="#fff"/><path d="M175 699.18c-8.84 0-16-26.86-16-60 0-33.13 7.16-60 16-60" stroke="#000" stroke-width="2" fill="none"/><use xlink:href="#q" transform="matrix(1,0,0,1,36,584.1833423347352) translate(-4.259259259259267 60.333333333333336)"/><path d="M231.5 412.92l.96 1.72m3.88 6.9l1.94 3.43m3.87 6.9l1.94 3.43m3.87 6.9l1.94 3.43m3.9 6.9l1.92 3.43m3.88 6.9l1.94 3.44m3.88 6.88l1.94 3.45m3.87 6.9l1.94 3.43m3.88 6.9l1.94 3.43m3.87 6.88l1.94 3.44m3.88 6.9l1.94 3.43m3.88 6.9l1.94 3.44m3.88 6.87l1.93 3.45m3.88 6.9l1.94 3.43m3.88 6.9l1.94 3.43m3.86 6.9l1.94 3.43m3.88 6.9l1.94 3.45m3.88 6.88l1.93 3.45m3.88 6.88l1.95 3.45m3.88 6.9l1.94 3.44m3.87 6.9l1.94 3.43m3.88 6.9l1.94 3.43m3.88 6.9l1.94 3.44m3.87 6.88l1.93 3.45m3.88 6.9l1.95 3.43m3.88 6.9l1.93 3.43m3.88 6.9l1.94 3.43m3.88 6.9l1.94 3.43m3.87 6.88l1.94 3.45m3.9 6.88l1.93 3.46m3.88 6.9l1.95 3.43m3.87 6.88l1.94 3.44m3.88 6.9l1.94 3.43m3.87 6.9l1.94 3.43m3.87 6.9l1.94 3.44m3.9 6.88l1.93 3.45m3.87 6.9l1.94 3.43m3.88 6.9l1.94 3.43m3.88 6.9l1.93 3.44m3.88 6.9l.97 1.7" stroke="#0c7cba" stroke-width="2" fill="none"/><path d="M231 412.04h1.14l.23.4-1.74 1-.8-1.42z" fill="#0c7cba"/><path d="M465.8 829.16L454.78 819l8.08-4.55z" stroke="#0c7cba" stroke-width="2" fill="#0c7cba"/><path d="M251 600h180v50.82H251z" stroke="#000" stroke-opacity="0" stroke-width="2" fill="#fff" fill-opacity="0"/><use xlink:href="#r" transform="matrix(1,0,0,1,256,605) translate(62.824074074074076 26.66666666666667)"/><use xlink:href="#s" transform="matrix(1,0,0,1,256,605) translate(1.805555555555543 66.66666666666669)"/><path d="M441 1120h240v74H441z" stroke="#000" stroke-opacity="0" stroke-width="2" fill="#fff" fill-opacity="0"/><use xlink:href="#t" transform="matrix(1,0,0,1,446,1125) translate(37.518518518518505 46.66666666666667)"/><use xlink:href="#u" transform="matrix(1,0,0,1,446,1125) translate(145.22222222222223 46.66666666666667)"/><path d="M601 544.8c0 44.18-35.82 80-80 80s-80-35.82-80-80 35.82-80 80-80 80 35.82 80 80z" stroke="#000" stroke-width="2" fill="#fff"/><use xlink:href="#v" transform="matrix(1,0,0,1,446,469.80000000006976) translate(19.49074074074074 82.91666666666667)"/><path d="M401 419h240v60H401z" stroke="#000" stroke-opacity="0" stroke-width="2" fill="#fff" fill-opacity="0"/><use xlink:href="#n" transform="matrix(1,0,0,1,406,424.0000000000698) translate(90.04629629629629 32.91666666666667)"/><path d="M621 580c5.52 0 10 16.74 10 37.4s-4.48 37.4-10 37.4h-80c-5.52 0-10-16.74-10-37.4s4.48-37.4 10-37.4z" stroke="#000" stroke-width="2" fill="#fff"/><path d="M621 654.8c-5.52 0-10-16.74-10-37.4s4.48-37.4 10-37.4" stroke="#000" stroke-width="2" fill="none"/><use xlink:href="#w" transform="matrix(1,0,0,1,536,585) translate(5.913580246913575 14.222222222222223)"/><use xlink:href="#x" transform="matrix(1,0,0,1,536,585) translate(5.395061728395056 35.55555555555556)"/><use xlink:href="#y" transform="matrix(1,0,0,1,536,585) translate(12.851851851851848 56.88888888888889)"/><path d="M597.37 232.55l-17.9 2.68-24.23 4.68-17.3 4.12-13 3.67-10.2 3.34-8.3 3.12-7.03 2.98-6.14 2.92-5.64 2.97-5.53 3.22-6.27 4-19.88 13.55-3.82 2.23-3.55 1.87-3.55 1.7-3.7 1.57-4.05 1.5-4.53 1.5-5.23 1.48-6.26 1.5-7.76 1.5-10.06 1.5-13.8 1.5-20.43 1.32-19.46.44" stroke="#000" stroke-width="2" fill="none"/><path d="M612.47 230.28l-13.42 6.7-1.38-9.17zM334.48 303.7l14.18-4.9.17 9.27z" stroke="#000" stroke-width="2"/><path d="M345.58 345.65l3.95.08m7.9.4l7.88.5m7.9.5l.5.03 7.36.77m7.86.82l4.85.5 3 .45m7.8 1.15l7.7 1.14h.12m7.75 1.5l7.77 1.47m7.7 1.74l7.7 1.8m7.63 2.03l7.6 2.12m7.57 2.33l7.5 2.44m7.46 2.64l7.4 2.75m7.33 2.96l7.3 3.06m7.2 3.26l7.14 3.36m7.07 3.54l7 3.66m6.94 3.8l6.84 3.94m6.82 4l6.67 4.22m6.67 4.24l2.84 1.8 3.73 2.6m6.5 4.5l6.48 4.52m6.36 4.68l6.3 4.8m6.28 4.77l6.3 4.8m6.1 5l6.07 5.06m6.07 5.05l6.07 5.07m6.08 5.05l6.07 5.05m5.96 5.18l5.92 5.23m5.93 5.22l5.94 5.23m5.93 5.22l5.92 5.23m5.92 5.22l5.93 5.23m5.93 5.22l2.96 2.62" stroke="#ef8d22" stroke-width="2" fill="none"/><path d="M330.32 345.34l14.36-4.34-.2 9.27zM714.5 535.26l-13.77-5.96 6.13-6.95z" stroke="#ef8d22" stroke-width="2" fill="#ef8d22"/><path d="M611.5 801.23l1.65-3.62m3.16-7.3l3-7.38m2.82-7.44l2.68-7.5m2.6-7.5l2.35-7.62m2.34-7.6l2.34-7.62m2.32-7.6l2.27-7.65m2.27-7.64l2.27-7.63m2.27-7.63l2.27-7.63m2.28-7.63l.4-1.4 2.2-6.12m2.68-7.5l3-7.37m3.2-7.3l1.56-3.44 1.9-3.7m3.74-7.03l1.68-3 2.38-3.85m4.37-6.65l.66-.98 3.86-5.22.18-.23m5.06-6.14l2.96-3.36 2.4-2.5m5.65-5.62l1.05-1 4.87-4.32m6.2-5l3.18-2.37" stroke="#ef8d22" stroke-width="2" fill="none"/><path d="M604.76 814.92l2.14-14.84 8.32 4.1zM726.3 581.7l-9.33 11.74-5.12-7.73z" stroke="#ef8d22" stroke-width="2" fill="#ef8d22"/><path d="M471 880h210v84.67H471z" stroke="#000" stroke-opacity="0" stroke-width="2" fill="#fff" fill-opacity="0"/><use xlink:href="#z" transform="matrix(1,0,0,1,476,885) translate(1.4814814814814667 43.07291666666667)"/><use xlink:href="#A" transform="matrix(1,0,0,1,476,885) translate(75.37037037037035 43.07291666666667)"/><path d="M1240.23 80.56c-11.4 2.64-18.08 15.04-14.9 27.76 3.18 12.64 14.9 20.32 26.22 17.6 11.4-2.72 18.08-15.12 14.9-27.76-3.18-12.48-15.05-20.32-26.22-17.6zM1264.6 129.28c-2.1-.16-4.6 3.84-7.77 5.44-3.18 1.36-6.6 4.24-15.75 0-9.16-4.24-10.48-7.92-18.24-7.92-7.76 0-20.1 13.52-20.33 33.2h77.6c-.22 0-.92-13.52-5.27-20.8-5.2-9.68-8.14-9.92-10.24-9.92z" stroke="#000" stroke-opacity="0" fill="#00188f"/><use xlink:href="#B" transform="matrix(1,0,0,1,1172.5139187663037,169) translate(36.24691358024691 24.888888888888893)"/><path d="M326.9 384.14l118.24 96.33" stroke="#000" stroke-width="2" fill="none"/><path d="M315.06 374.5l14 5.42-5.86 7.2zM456.97 490.12l-14-5.42 5.87-7.2z" stroke="#000" stroke-width="2"/><path d="M1535 660c8.84 0 16 26.86 16 60s-7.16 60-16 60h-128c-8.84 0-16-26.86-16-60s7.16-60 16-60z" stroke="#000" stroke-width="2" fill="#fff"/><path d="M1535 780c-8.84 0-16-26.86-16-60s7.16-60 16-60" stroke="#000" stroke-width="2" fill="none"/><use xlink:href="#C" transform="matrix(1,0,0,1,1396,664.9999999999999) translate(47.525 59.0875)"/><path d="M1231 375c0 52.47-44.77 95-100 95s-100-42.53-100-95 44.77-95 100-95 100 42.53 100 95z" stroke="#000" stroke-width="2" fill="#fff"/><use xlink:href="#D" transform="matrix(1,0,0,1,1035.9999999999998,285) translate(34.67475308641974 47.83680555555556)"/><use xlink:href="#E" transform="matrix(1,0,0,1,1035.9999999999998,285) translate(110.58833333333334 47.83680555555556)"/><use xlink:href="#F" transform="matrix(1,0,0,1,1035.9999999999998,285) translate(54.26425925925925 77.17013888888889)"/><use xlink:href="#G" transform="matrix(1,0,0,1,1035.9999999999998,285) translate(36.67283950617282 106.50347222222223)"/><use xlink:href="#g" transform="matrix(1,0,0,1,1035.9999999999998,285) translate(17.088333333333317 135.83680555555554)"/><use xlink:href="#h" transform="matrix(1,0,0,1,1035.9999999999998,285) translate(72.63154320987654 135.83680555555554)"/><path d="M1011 452.05h240v74.8h-240z" stroke="#000" stroke-opacity="0" stroke-width="2" fill="#fff" fill-opacity="0"/><use xlink:href="#H" transform="matrix(1,0,0,1,1016,457.04759609405505) translate(25.472222222222186 37.83680555555556)"/><path d="M1011.95 1024c-33.66 0-60.95-28.65-60.95-64 0-28.28 16.5-52.13 42.1-60.87C991.64 816 1093.2 800 1133.85 832c20.32-48 121.9-32 121.9 16 60.95-16 121.9 48 81.27 128 40.64 64 0 144-81.26 112-20.3 41.6-101.58 41.6-121.9 0-40.63 32-121.9 16-121.9-64z" stroke="#000" stroke-width="2" fill="#fff"/><path d="M1071 1012.05h240v60h-240z" stroke="#000" stroke-opacity="0" stroke-width="2" fill="#fff" fill-opacity="0"/><use xlink:href="#I" transform="matrix(1,0,0,1,1076,1017.0475960940553) translate(0.8333333333333428 35.125)"/><use xlink:href="#p" transform="matrix(1,0,0,1,1076,1017.0475960940553) translate(91.72222222222223 35.125)"/><path d="M1515 617.4c8.84 0 16 26.86 16 60s-7.16 60-16 60h-128c-8.84 0-16-26.86-16-60s7.16-60 16-60z" stroke="#000" stroke-width="2" fill="#fff"/><path d="M1515 737.4c-8.84 0-16-26.86-16-60s7.16-60 16-60" stroke="#000" stroke-width="2" fill="none"/><use xlink:href="#q" transform="matrix(1,0,0,1,1376,622.4000000000696) translate(-4.259259259259267 60.333333333333336)"/><path d="M1471 423.1c0 44.17-35.82 80-80 80s-80-35.83-80-80c0-44.2 35.82-80 80-80s80 35.8 80 80z" stroke="#000" stroke-width="2" fill="#fff"/><use xlink:href="#m" transform="matrix(1,0,0,1,1316,348.09140354036015) translate(1.7592592592592666 81.13888888888889)"/><path d="M1271 480h240v74.8h-240z" stroke="#000" stroke-opacity="0" stroke-width="2" fill="#fff" fill-opacity="0"/><use xlink:href="#J" transform="matrix(1,0,0,1,1276,485.0000000000001) translate(37.694444444444414 37.83680555555556)"/><path d="M1271 303.1h240v60h-240z" stroke="#000" stroke-opacity="0" stroke-width="2" fill="#fff" fill-opacity="0"/><use xlink:href="#K" transform="matrix(1,0,0,1,1276,308.09140354036003) translate(76.1574074074074 32.91666666666667)"/><path d="M1691 423.1c0 44.17-35.82 80-80 80s-80-35.83-80-80c0-44.2 35.82-80 80-80s80 35.8 80 80z" stroke="#000" stroke-width="2" fill="#fff"/><use xlink:href="#v" transform="matrix(1,0,0,1,1536,348.09140354036015) translate(19.49074074074074 82.91666666666667)"/><path d="M1491 303.1h240v60h-240z" stroke="#000" stroke-opacity="0" stroke-width="2" fill="#fff" fill-opacity="0"/><use xlink:href="#K" transform="matrix(1,0,0,1,1496,308.09140354036003) translate(76.1574074074074 32.91666666666667)"/><path d="M1071 600h200v38.1h-200z" stroke="#000" stroke-opacity="0" stroke-width="2" fill="#fff" fill-opacity="0"/><use xlink:href="#r" transform="matrix(1,0,0,1,1076,605.0000000000001) translate(72.82407407407408 26.66666666666667)"/><use xlink:href="#s" transform="matrix(1,0,0,1,1076,605.0000000000001) translate(11.805555555555543 66.66666666666669)"/><path d="M1242.27 856.75l7.4-6.58m7.4-6.58l1.48-1.33m7.4-6.58l14.8-13.16m7.4-6.58l1.48-1.32m7.4-6.58l14.8-13.15m7.4-6.57l1.48-1.32m7.4-6.57l14.8-13.15m7.4-6.58l1.5-1.32m7.4-6.58l7.4-6.58" stroke="#000" stroke-width="2" fill="none"/><path d="M1230.86 866.9l7.58-12.95 6.16 6.92zM1378 736.08l-7.6 12.94-6.15-6.92z" stroke="#000" stroke-width="2"/><path d="M1231.52 435.14l6.68 8m6.67 8.02l1.34 1.6m6.68 8.02l13.35 16.02m6.67 8l1.34 1.6m6.67 8.02l13.36 16.02m6.67 8l1.34 1.6m6.67 8.02l13.35 16.02m6.67 8l1.33 1.6m6.68 8.02l13.34 16.03m6.68 8l1.33 1.6m6.68 8.02l6.68 8" stroke="#000" stroke-width="2" fill="none"/><path d="M1221.75 423.42l12.7 8-7.13 5.92zM1381.45 615.1l-12.7-8 7.13-5.94z" stroke="#000" stroke-width="2"/><path d="M1142.6 471.35l.03 2m.16 7.95l.07 3.98m.17 7.96l.08 3.98m.16 7.96l.08 3.98m.17 7.96l.08 3.98m.17 7.96l.08 3.98m.17 7.96l.08 3.98m.16 7.96l.08 3.98m.17 7.96l.1 3.98m.15 7.96l.1 3.98m.15 7.96l.08 3.98m.16 7.96l.1 3.98m.15 7.96l.07 3.98m.17 7.96l.08 3.98m.16 7.96l.08 3.98m.17 7.96l.08 3.98m.17 7.96l.08 3.98m.17 7.96l.08 3.98m.16 7.96l.1 3.98m.15 7.96l.1 3.98m.15 7.96l.1 3.98m.15 7.96l.08 3.97m.17 7.96l.08 3.98m.16 7.97l.07 3.98m.17 7.96l.08 4m.16 7.95l.08 3.98m.17 7.96l.08 3.97m.17 7.96l.04 2" stroke="#0c7cba" stroke-width="2" fill="none"/><path d="M1143.6 471.36l-2 .04-.03-.95 2-.2z" fill="#0c7cba"/><path d="M1149.53 809l-4.93-14.18 9.27-.2z" stroke="#0c7cba" stroke-width="2" fill="#0c7cba"/><path d="M1041 1120h240v74h-240z" stroke="#000" stroke-opacity="0" stroke-width="2" fill="#fff" fill-opacity="0"/><use xlink:href="#L" transform="matrix(1,0,0,1,1046,1125) translate(21.888888888888886 46.66666666666667)"/><path d="M786.5 226.98l2.3.25 17.2 2.66 14.6 2.87 12.56 3.03 11.02 3.16 9.8 3.25 8.83 3.36 8.1 3.47 7.5 3.6 7.1 3.77 6.86 4.02 6.8 4.4 7.1 5 8.05 6.2 36.07 30.17 4.87 3.43 4.34 2.8 4.08 2.4 3.97 2.1 3.95 1.9 4 1.7 4.12 1.57 4.3 1.44 4.56 1.3 4.9 1.18 5.3 1.05 5.84.9 6.52.73 7.4.52 5.3.14" stroke="#000" stroke-width="2" fill="none"/><path d="M771.3 225.3l14.7-3.04-1.02 9.2zM1039.08 329.12l-14.2 4.86-.13-9.27z" stroke="#000" stroke-width="2"/><path d="M1249.85 376.6l1.55.83 1.6 1m5.8 4.44l3.02 2.82 2.2 2.32m4.92 5.4l4.84 5.5m4.84 5.47l2.78 3.14 2.28 2.13m5.68 4.6l.65.46 2.34 1.46.1.04" stroke="#ef8d22" stroke-width="2" fill="none"/><path d="M1235.13 373.47l14.92-1.57-1.92 9.07zM1306.94 420.35l-15 .57 2.54-8.92z" stroke="#ef8d22" stroke-width="2" fill="#ef8d22"/><path d="M1363.28 962.9l1.35.13 2.6.17m7.9.16l2.73-.06 4.75-.3.45-.05m7.86-.97l1.83-.27 5.4-1.02.57-.13m7.68-1.92l3.35-.93 4.23-1.38m7.45-2.68l1.1-.4 6.23-2.62m7.18-3.35l.67-.3 6.37-3.34m6.9-3.9l2.13-1.25 4.6-2.92m6.6-4.37l5.44-3.8 1.04-.78m6.3-4.8l1.36-1 4.8-3.98m6.03-5.13l5.88-5.3m5.72-5.5l4.27-4.18 1.32-1.4m5.42-5.8l2-2.13 3.27-3.78m5.18-6l.07-.08 4.86-6.12m4.84-6.27l4.66-6.4m4.47-6.55l4.1-6.15.26-.46m4.1-6.78l2.13-3.5 1.84-3.36m3.82-6.94l.2-.34 3.34-6.74m3.38-7.16l3.02-6.8.18-.45m2.92-7.36l.83-2.1 1.86-5.35m2.47-7.52l1.8-5.92.42-1.68m1.95-7.68l1.65-7.75m1.33-7.8l.1-.54.3-2.15.6-5.17m.9-7.86l.17-1.54.46-6.36m.58-7.9l.08-1 .2-6.9m.25-7.93l.04-.96-.08-6.95m-.1-7.93v-1.32l-.36-6.6m-.42-7.9l-.1-1.88-.57-6m-.74-7.9l-.24-2.46-.74-5.38m-1.08-7.85l-.4-2.9-.9-4.9m-1.4-7.8l-.53-3-1.07-4.76m-1.74-7.72l-.58-2.6-1.36-5.08m-2.06-7.65l-.44-1.63-1.86-5.95m-2.38-7.55v-.03l-2.68-7.43m-2.78-7.42l-3-7.33m-3.2-7.24l-2.68-5.82-.7-1.35m-3.6-7.05l-.8-1.57-3.02-5.36m-4.02-6.83l-3.3-5.34-.93-1.36m-4.47-6.54l-4.73-6.35m-4.97-6.16l-.48-.6-4.74-5.36m-5.46-5.73l-.04-.03-5.05-4.85-.66-.57m-6-5.17l-3.34-2.7-2.9-2.16m-6.5-4.53l-.47-.32-2.9-1.8" stroke="#ef8d22" stroke-width="2" fill="none"/><path d="M1348.33 959.97l14.9-1.8-1.8 9.1zM1469.27 454.25l14.78 2.52-4.3 8.2z" stroke="#ef8d22" stroke-width="2" fill="#ef8d22"/><path d="M1051 869.04h220v90h-220z" stroke="#000" stroke-opacity="0" stroke-width="2" fill="#fff" fill-opacity="0"/><use xlink:href="#z" transform="matrix(1,0,0,1,1056,874.039267261318) translate(6.481481481481467 46.91666666666667)"/><use xlink:href="#A" transform="matrix(1,0,0,1,1056,874.039267261318) translate(80.37037037037035 46.91666666666667)"/><path d="M1229.24 309.9l7.4-4.38 10.58-5.67 10.08-4.87 9.67-4.18 9.32-3.57 9.03-3.04 8.8-2.56 8.6-2.1 8.48-1.72 8.37-1.32 8.3-.95 8.25-.6 8.26-.26 8.3.08 8.37.45 8.47.8 8.63 1.2 8.8 1.58 9.05 2.04 9.32 2.5 9.65 3.04 10.06 3.62 10.52 4.3 11.08 5.1 11.72 5.98 12.5 7.05 13.4 8.32 14.47 9.86 15.77 11.75 10.9 8.85" stroke="#19967d" stroke-width="2" fill="none"/><path d="M1216.36 318.08l9.55-11.56 4.98 7.82zM1537.1 361l-13.9-5.6 5.95-7.1z" stroke="#19967d" stroke-width="2" fill="#19967d"/><path d="M676 601.78h240v74.8H676z" stroke="#000" stroke-opacity="0" stroke-width="2" fill="#fff" fill-opacity="0"/><use xlink:href="#M" transform="matrix(1,0,0,1,681,606.7833423347353) translate(55.382716049382694 37.83680555555556)"/><path d="M1111 20h260v30h-260z" stroke="#000" stroke-opacity="0" stroke-width="2" fill="#fff" fill-opacity="0"/><use xlink:href="#N" transform="matrix(1,0,0,1,1116,25) translate(32.268518518518505 26.66666666666667)"/><use xlink:href="#O" transform="matrix(1,0,0,1,1116,25) translate(132.82407407407408 26.66666666666667)"/><path d="M345.58 345.65l3.95.08m7.9.4l7.88.5m7.9.5l.5.03 7.36.77m7.86.82l4.85.5 3 .45m7.8 1.15l7.7 1.14h.12m7.75 1.5l7.77 1.47m7.7 1.74l7.7 1.8m7.63 2.03l7.6 2.12m7.57 2.33l7.5 2.44m7.46 2.64l7.4 2.75m7.33 2.96l7.3 3.06m7.2 3.26l7.14 3.36m7.07 3.54l7 3.66m6.94 3.8l6.84 3.94m6.82 4l6.67 4.22m6.67 4.24l2.84 1.8 3.73 2.6m6.5 4.5l6.48 4.52m6.36 4.68l6.3 4.8m6.28 4.77l6.3 4.8m6.1 5l6.07 5.06m6.07 5.05l6.07 5.07m6.08 5.05l6.07 5.05m5.96 5.18l5.92 5.23m5.93 5.22l5.94 5.23m5.93 5.22l5.92 5.23m5.92 5.22l5.93 5.23m5.93 5.22l2.96 2.62" stroke="#ef8d22" stroke-width="2" fill="none"/><path d="M330.32 345.34l14.36-4.34-.2 9.27zM714.5 535.26l-13.77-5.96 6.13-6.95z" stroke="#ef8d22" stroke-width="2" fill="#ef8d22"/><path d="M687.05 299.08l-.85 3.9m-1.7 7.78l-1.14 5.2-.64 2.56m-1.93 7.73l-1.94 7.74m-1.94 7.72l-1.93 7.73m-1.95 7.73l-1.93 7.73m-1.23 7.88l-.22 2.44-.1 2.17v1.9l.08 1.44m1.34 7.83l.42 1.34.53 1.48.63 1.54.76 1.63.7 1.37m3.48 7.17l.2.47 2.14 5.7.45 1.28m2.7 7.5l1.35 3.83 1.58 3.58m3.72 7.04l1.47 2.5 2.82 4.2m4.76 6.4l.48.64 4.65 5.46m5.36 5.9l5.5 5.75m5.72 5.54l2.9 2.7" stroke="#ef8d22" stroke-width="2" fill="none"/><path d="M690.3 284.16l1.5 14.93-9.06-2zM734.54 481.97l-13.62-6.28 6.3-6.82z" stroke="#ef8d22" stroke-width="2" fill="#ef8d22"/><path d="M326.9 384.14l118.24 96.33" stroke="#19967d" stroke-width="2" fill="none"/><path d="M315.06 374.5l14 5.42-5.86 7.2zM456.97 490.12l-14-5.42 5.87-7.2z" stroke="#19967d" stroke-width="2" fill="#19967d"/><path d="M646.55 288.92L576.53 462.9" stroke="#19967d" stroke-width="2" fill="none"/><path d="M652.25 274.76l-1.03 14.97-8.6-3.47zM570.83 477.05l1.03-14.96 8.6 3.45z" stroke="#19967d" stroke-width="2" fill="#19967d"/><path d="M1479.03 1027h80.5M1479.06 1027h-1.03" stroke="#000" stroke-width="2" fill="none"/><path d="M1574.8 1027l-14.27 4.64v-9.28z" stroke="#000" stroke-width="2"/><path d="M1598.03 980h132.65v234h-132.65z" stroke="#000" stroke-opacity="0" stroke-width="2" fill="#fff" fill-opacity="0"/><g><use xlink:href="#P" transform="matrix(1,0,0,1,1603.033610698053,985) translate(0 21.333333333333336)"/><use xlink:href="#Q" transform="matrix(1,0,0,1,1603.033610698053,985) translate(0 53.333333333333336)"/><use xlink:href="#R" transform="matrix(1,0,0,1,1603.033610698053,985) translate(0 85.33333333333334)"/><use xlink:href="#S" transform="matrix(1,0,0,1,1603.033610698053,985) translate(44.37037037037037 85.33333333333334)"/><use xlink:href="#T" transform="matrix(1,0,0,1,1603.033610698053,985) translate(0 117.33333333333334)"/><use xlink:href="#U" transform="matrix(1,0,0,1,1603.033610698053,985) translate(0 149.33333333333334)"/><use xlink:href="#V" transform="matrix(1,0,0,1,1603.033610698053,985) translate(59.111111111111114 149.33333333333334)"/><use xlink:href="#W" transform="matrix(1,0,0,1,1603.033610698053,985) translate(0 181.33333333333334)"/><use xlink:href="#X" transform="matrix(1,0,0,1,1603.033610698053,985) translate(0 213.33333333333334)"/></g><path d="M1480.03 1062h80.5M1480.06 1062h-1.03" stroke="#19967d" stroke-width="2" fill="none"/><path d="M1575.8 1062l-14.27 4.64v-9.28z" stroke="#19967d" stroke-width="2" fill="#19967d"/><path d="M1479.03 1091h8.95m8.94 0h17.9m8.93 0h17.9m8.94 0h8.93M1479.06 1091h-1.03" stroke="#ef8d22" stroke-width="2" fill="none"/><path d="M1574.8 1091l-14.27 4.64v-9.28z" stroke="#ef8d22" stroke-width="2" fill="#ef8d22"/><path d="M1479.03 1125h9.6m9.57 0h1.92m9.58 0h19.16m9.6 0h1.9m9.6 0h9.57M1479.06 1125h-1.03" stroke="#000" stroke-width="2" fill="none"/><path d="M1574.8 1125l-14.27 4.64v-9.28z" stroke="#000" stroke-width="2"/><path d="M1479.03 1157h1.92m7.67 0h3.83m7.67 0h3.83m7.67 0h3.83m7.67 0h3.83m7.66 0h3.85m7.66 0h3.85m7.66 0h1.93M1479.06 1157h-1.03" stroke="#0c7cba" stroke-width="2" fill="none"/><path d="M1574.8 1157l-14.27 4.64v-9.28z" stroke="#0c7cba" stroke-width="2" fill="#0c7cba"/><path d="M1115.15 142.6l-193.47 27.6-31.67 2.06-86.36 1.64h-5.14" stroke="#000" stroke-width="2" fill="none"/><path d="M1130.26 140.46l-13.47 6.6-1.3-9.18zM783.24 173.94l14.25-4.66v9.27z" stroke="#000" stroke-width="2"/><defs><path d="M30-248c87 1 191-15 191 75 0 78-77 80-158 76V0H30v-248zm33 125c57 0 124 11 124-50 0-59-68-47-124-48v98" id="Y"/><path d="M114-163C36-179 61-72 57 0H25l-1-190h30c1 12-1 29 2 39 6-27 23-49 58-41v29" id="Z"/><path d="M100-194c62-1 85 37 85 99 1 63-27 99-86 99S16-35 15-95c0-66 28-99 85-99zM99-20c44 1 53-31 53-75 0-43-8-75-51-75s-53 32-53 75 10 74 51 75" id="aa"/><path d="M96-169c-40 0-48 33-48 73s9 75 48 75c24 0 41-14 43-38l32 2c-6 37-31 61-74 61-59 0-76-41-82-99-10-93 101-131 147-64 4 7 5 14 7 22l-32 3c-4-21-16-35-41-35" id="ab"/><path d="M100-194c63 0 86 42 84 106H49c0 40 14 67 53 68 26 1 43-12 49-29l28 8c-11 28-37 45-77 45C44 4 14-33 15-96c1-61 26-98 85-98zm52 81c6-60-76-77-97-28-3 7-6 17-6 28h103" id="ac"/><path d="M135-143c-3-34-86-38-87 0 15 53 115 12 119 90S17 21 10-45l28-5c4 36 97 45 98 0-10-56-113-15-118-90-4-57 82-63 122-42 12 7 21 19 24 35" id="ad"/><g id="a"><use transform="matrix(0.05,0,0,0.05,0,0)" xlink:href="#Y"/><use transform="matrix(0.05,0,0,0.05,12,0)" xlink:href="#Z"/><use transform="matrix(0.05,0,0,0.05,17.95,0)" xlink:href="#aa"/><use transform="matrix(0.05,0,0,0.05,27.950000000000003,0)" xlink:href="#ab"/><use transform="matrix(0.05,0,0,0.05,36.95,0)" xlink:href="#ac"/><use transform="matrix(0.05,0,0,0.05,46.95,0)" xlink:href="#ad"/><use transform="matrix(0.05,0,0,0.05,55.95,0)" xlink:href="#ad"/></g><path d="M185-189c-5-48-123-54-124 2 14 75 158 14 163 119 3 78-121 87-175 55-17-10-28-26-33-46l33-7c5 56 141 63 141-1 0-78-155-14-162-118-5-82 145-84 179-34 5 7 8 16 11 25" id="ae"/><path d="M212-179c-10-28-35-45-73-45-59 0-87 40-87 99 0 60 29 101 89 101 43 0 62-24 78-52l27 14C228-24 195 4 139 4 59 4 22-46 18-125c-6-104 99-153 187-111 19 9 31 26 39 46" id="af"/><path d="M233-177c-1 41-23 64-60 70L243 0h-38l-65-103H63V0H30v-248c88 3 205-21 203 71zM63-129c60-2 137 13 137-47 0-61-80-42-137-45v92" id="ag"/><path d="M205 0l-28-72H64L36 0H1l101-248h38L239 0h-34zm-38-99l-47-123c-12 45-31 82-46 123h93" id="ah"/><path d="M127-220V0H93v-220H8v-28h204v28h-85" id="ai"/><path d="M197 0v-115H63V0H30v-248h33v105h134v-105h34V0h-34" id="aj"/><g id="b"><use transform="matrix(0.05,0,0,0.05,0,0)" xlink:href="#ae"/><use transform="matrix(0.05,0,0,0.05,12,0)" xlink:href="#af"/><use transform="matrix(0.05,0,0,0.05,24.950000000000003,0)" xlink:href="#ag"/><use transform="matrix(0.05,0,0,0.05,37.900000000000006,0)" xlink:href="#ah"/><use transform="matrix(0.05,0,0,0.05,48.550000000000004,0)" xlink:href="#ai"/><use transform="matrix(0.05,0,0,0.05,59.5,0)" xlink:href="#af"/><use transform="matrix(0.05,0,0,0.05,72.45,0)" xlink:href="#aj"/></g><path d="M176-78C186 10 51 31 16-35c-5-9-9-19-11-32l52-8c4 21 12 37 35 38 23 0 32-16 32-40v-130H75v-41h101v170" id="ak"/><path d="M199 0l-22-63H83L61 0H9l90-248h61L250 0h-51zm-33-102l-36-108c-10 38-24 72-36 108h72" id="al"/><path d="M275 0h-61l-44-196L126 0H64L0-248h53L97-49l45-199h58l43 199 44-199h52" id="am"/><path d="M169-182c-1-43-94-46-97-3 18 66 151 10 154 114 3 95-165 93-204 36-6-8-10-19-12-30l50-8c3 46 112 56 116 5-17-69-150-10-154-114-4-87 153-88 188-35 5 8 8 18 10 28" id="an"/><g id="c"><use transform="matrix(0.06790123456790124,0,0,0.06790123456790124,0,0)" xlink:href="#ak"/><use transform="matrix(0.06790123456790124,0,0,0.06790123456790124,13.580246913580249,0)" xlink:href="#al"/><use transform="matrix(0.06790123456790124,0,0,0.06790123456790124,29.808641975308646,0)" xlink:href="#am"/><use transform="matrix(0.06790123456790124,0,0,0.06790123456790124,52.827160493827165,0)" xlink:href="#an"/></g><path d="M25-224v-37h50v37H25zM25 0v-190h50V0H25" id="ao"/><path d="M115-3C79 11 28 4 28-45v-112H4v-33h27l15-45h31v45h36v33H77v99c-1 23 16 31 38 25v30" id="ap"/><path d="M185-48c-13 30-37 53-82 52C43 2 14-33 14-96s30-98 90-98c62 0 83 45 84 108H66c0 31 8 55 39 56 18 0 30-7 34-22zm-45-69c5-46-57-63-70-21-2 6-4 13-4 21h74" id="aq"/><g id="d"><use transform="matrix(0.06790123456790124,0,0,0.06790123456790124,0,0)" xlink:href="#an"/><use transform="matrix(0.06790123456790124,0,0,0.06790123456790124,16.296296296296298,0)" xlink:href="#ao"/><use transform="matrix(0.06790123456790124,0,0,0.06790123456790124,23.08641975308642,0)" xlink:href="#ap"/><use transform="matrix(0.06790123456790124,0,0,0.06790123456790124,31.16666666666667,0)" xlink:href="#aq"/></g><path d="M135-150c-39-12-60 13-60 57V0H25l-1-190h47c2 13-1 29 3 40 6-28 27-53 61-41v41" id="ar"/><path d="M128 0H69L1-190h53L99-40l48-150h52" id="as"/><path d="M76-54c-1 42 2 86-19 110H24C36 42 46 24 48 0H25v-54h51" id="at"/><g id="e"><use transform="matrix(0.06790123456790124,0,0,0.06790123456790124,0,0)" xlink:href="#an"/><use transform="matrix(0.06790123456790124,0,0,0.06790123456790124,16.296296296296298,0)" xlink:href="#aq"/><use transform="matrix(0.06790123456790124,0,0,0.06790123456790124,29.876543209876544,0)" xlink:href="#ar"/><use transform="matrix(0.06790123456790124,0,0,0.06790123456790124,39.38271604938272,0)" xlink:href="#as"/><use transform="matrix(0.06790123456790124,0,0,0.06790123456790124,52.96296296296297,0)" xlink:href="#aq"/><use transform="matrix(0.06790123456790124,0,0,0.06790123456790124,66.54320987654322,0)" xlink:href="#ar"/><use transform="matrix(0.06790123456790124,0,0,0.06790123456790124,76.0493827160494,0)" xlink:href="#at"/></g><path d="M67-125c0 53 21 87 73 88 37 1 54-22 65-47l45 17C233-25 199 4 140 4 58 4 20-42 15-125 8-235 124-281 211-232c18 10 29 29 36 50l-46 12c-8-25-30-41-62-41-52 0-71 34-72 86" id="au"/><path d="M110-194c64 0 96 36 96 99 0 64-35 99-97 99-61 0-95-36-95-99 0-62 34-99 96-99zm-1 164c35 0 45-28 45-65 0-40-10-65-43-65-34 0-45 26-45 65 0 36 10 65 43 65" id="av"/><path d="M220-157c-53 9-28 100-34 157h-49v-107c1-27-5-49-29-50C55-147 81-57 75 0H25l-1-190h47c2 12-1 28 3 38 10-53 101-56 108 0 13-22 24-43 59-42 82 1 51 116 57 194h-49v-107c-1-25-5-48-29-50" id="aw"/><path d="M231 0h-52l-39-155L100 0H48L-1-190h46L77-45c9-52 24-97 36-145h53l37 145 32-145h46" id="ax"/><path d="M25 0v-261h50V0H25" id="ay"/><g id="f"><use transform="matrix(0.06790123456790124,0,0,0.06790123456790124,0,0)" xlink:href="#au"/><use transform="matrix(0.06790123456790124,0,0,0.06790123456790124,17.58641975308642,0)" xlink:href="#ar"/><use transform="matrix(0.06790123456790124,0,0,0.06790123456790124,27.092592592592595,0)" xlink:href="#av"/><use transform="matrix(0.06790123456790124,0,0,0.06790123456790124,41.96296296296297,0)" xlink:href="#aw"/><use transform="matrix(0.06790123456790124,0,0,0.06790123456790124,63.69135802469137,0)" xlink:href="#ax"/><use transform="matrix(0.06790123456790124,0,0,0.06790123456790124,82.70370370370371,0)" xlink:href="#aq"/><use transform="matrix(0.06790123456790124,0,0,0.06790123456790124,96.28395061728398,0)" xlink:href="#ay"/><use transform="matrix(0.06790123456790124,0,0,0.06790123456790124,103.0740740740741,0)" xlink:href="#ay"/><use transform="matrix(0.06790123456790124,0,0,0.06790123456790124,109.86419753086423,0)" xlink:href="#at"/></g><path d="M136-208V0H84v-208H4v-40h212v40h-80" id="az"/><path d="M230 0l2-204L168 0h-37L68-204 70 0H24v-248h70l56 185 57-185h69V0h-46" id="aA"/><g id="g"><use transform="matrix(0.06790123456790124,0,0,0.06790123456790124,0,0)" xlink:href="#ak"/><use transform="matrix(0.06790123456790124,0,0,0.06790123456790124,13.580246913580249,0)" xlink:href="#az"/><use transform="matrix(0.06790123456790124,0,0,0.06790123456790124,28.45061728395062,0)" xlink:href="#aA"/></g><path d="M133-34C117-15 103 5 69 4 32 3 11-16 11-54c-1-60 55-63 116-61 1-26-3-47-28-47-18 1-26 9-28 27l-52-2c7-38 36-58 82-57s74 22 75 68l1 82c-1 14 12 18 25 15v27c-30 8-71 5-69-32zm-48 3c29 0 43-24 42-57-32 0-66-3-65 30 0 17 8 27 23 27" id="aB"/><path d="M135-194c87-1 58 113 63 194h-50c-7-57 23-157-34-157-59 0-34 97-39 157H25l-1-190h47c2 12-1 28 3 38 12-26 28-41 61-42" id="aC"/><path d="M195-6C206 82 75 100 31 46c-4-6-6-13-8-21l49-6c3 16 16 24 34 25 40 0 42-37 40-79-11 22-30 35-61 35-53 0-70-43-70-97 0-56 18-96 73-97 30 0 46 14 59 34l2-30h47zm-90-29c32 0 41-27 41-63 0-35-9-62-40-62-32 0-39 29-40 63 0 36 9 62 39 62" id="aD"/><g id="h"><use transform="matrix(0.06790123456790124,0,0,0.06790123456790124,0,0)" xlink:href="#aA"/><use transform="matrix(0.06790123456790124,0,0,0.06790123456790124,20.302469135802472,0)" xlink:href="#aB"/><use transform="matrix(0.06790123456790124,0,0,0.06790123456790124,33.88271604938272,0)" xlink:href="#aC"/><use transform="matrix(0.06790123456790124,0,0,0.06790123456790124,48.753086419753096,0)" xlink:href="#aB"/><use transform="matrix(0.06790123456790124,0,0,0.06790123456790124,62.33333333333334,0)" xlink:href="#aD"/><use transform="matrix(0.06790123456790124,0,0,0.06790123456790124,77.20370370370371,0)" xlink:href="#aq"/><use transform="matrix(0.06790123456790124,0,0,0.06790123456790124,90.78395061728396,0)" xlink:href="#ar"/></g><path d="M24 0v-261h32V0H24" id="aE"/><path d="M16-82v-28h88v28H16" id="aF"/><path d="M108 0H70L1-190h34L89-25l56-165h34" id="aG"/><path d="M24-231v-30h32v30H24zM24 0v-190h32V0H24" id="aH"/><path d="M33 0v-38h34V0H33" id="aI"/><path d="M115-194c53 0 69 39 70 98 0 66-23 100-70 100C84 3 66-7 56-30L54 0H23l1-261h32v101c10-23 28-34 59-34zm-8 174c40 0 45-34 45-75 0-40-5-75-45-74-42 0-51 32-51 76 0 43 10 73 51 73" id="aJ"/><path d="M177-190C167-65 218 103 67 71c-23-6-38-20-44-43l32-5c15 47 100 32 89-28v-30C133-14 115 1 83 1 29 1 15-40 15-95c0-56 16-97 71-98 29-1 48 16 59 35 1-10 0-23 2-32h30zM94-22c36 0 50-32 50-73 0-42-14-75-50-75-39 0-46 34-46 75s6 73 46 73" id="aK"/><g id="i"><use transform="matrix(0.06790123456790124,0,0,0.06790123456790124,0,0)" xlink:href="#aE"/><use transform="matrix(0.06790123456790124,0,0,0.06790123456790124,5.364197530864199,0)" xlink:href="#Z"/><use transform="matrix(0.06790123456790124,0,0,0.06790123456790124,13.444444444444446,0)" xlink:href="#ab"/><use transform="matrix(0.06790123456790124,0,0,0.06790123456790124,25.66666666666667,0)" xlink:href="#aF"/><use transform="matrix(0.06790123456790124,0,0,0.06790123456790124,33.74691358024692,0)" xlink:href="#ad"/><use transform="matrix(0.06790123456790124,0,0,0.06790123456790124,45.96913580246914,0)" xlink:href="#ac"/><use transform="matrix(0.06790123456790124,0,0,0.06790123456790124,59.54938271604939,0)" xlink:href="#Z"/><use transform="matrix(0.06790123456790124,0,0,0.06790123456790124,67.62962962962963,0)" xlink:href="#aG"/><use transform="matrix(0.06790123456790124,0,0,0.06790123456790124,79.85185185185186,0)" xlink:href="#aH"/><use transform="matrix(0.06790123456790124,0,0,0.06790123456790124,85.21604938271606,0)" xlink:href="#ab"/><use transform="matrix(0.06790123456790124,0,0,0.06790123456790124,97.43827160493828,0)" xlink:href="#ac"/><use transform="matrix(0.06790123456790124,0,0,0.06790123456790124,111.01851851851855,0)" xlink:href="#ad"/><use transform="matrix(0.06790123456790124,0,0,0.06790123456790124,123.24074074074078,0)" xlink:href="#aI"/><use transform="matrix(0.06790123456790124,0,0,0.06790123456790124,130.0308641975309,0)" xlink:href="#aE"/><use transform="matrix(0.06790123456790124,0,0,0.06790123456790124,135.3950617283951,0)" xlink:href="#aJ"/><use transform="matrix(0.06790123456790124,0,0,0.06790123456790124,148.97530864197532,0)" xlink:href="#aE"/><use transform="matrix(0.06790123456790124,0,0,0.06790123456790124,154.33950617283955,0)" xlink:href="#aI"/><use transform="matrix(0.06790123456790124,0,0,0.06790123456790124,161.12962962962968,0)" xlink:href="#aK"/><use transform="matrix(0.06790123456790124,0,0,0.06790123456790124,174.70987654320993,0)" xlink:href="#aa"/><use transform="matrix(0.06790123456790124,0,0,0.06790123456790124,188.29012345679018,0)" xlink:href="#aG"/></g><g id="j"><use transform="matrix(0.0925925925925926,0,0,0.0925925925925926,0,0)" xlink:href="#ak"/><use transform="matrix(0.0925925925925926,0,0,0.0925925925925926,18.51851851851852,0)" xlink:href="#al"/><use transform="matrix(0.0925925925925926,0,0,0.0925925925925926,40.64814814814815,0)" xlink:href="#am"/><use transform="matrix(0.0925925925925926,0,0,0.0925925925925926,72.03703703703704,0)" xlink:href="#an"/></g><g id="k"><use transform="matrix(0.0925925925925926,0,0,0.0925925925925926,0,0)" xlink:href="#au"/><use transform="matrix(0.0925925925925926,0,0,0.0925925925925926,23.981481481481485,0)" xlink:href="#aq"/><use transform="matrix(0.0925925925925926,0,0,0.0925925925925926,42.5,0)" xlink:href="#aC"/><use transform="matrix(0.0925925925925926,0,0,0.0925925925925926,62.777777777777786,0)" xlink:href="#ap"/><use transform="matrix(0.0925925925925926,0,0,0.0925925925925926,73.7962962962963,0)" xlink:href="#ar"/><use transform="matrix(0.0925925925925926,0,0,0.0925925925925926,86.75925925925927,0)" xlink:href="#aB"/><use transform="matrix(0.0925925925925926,0,0,0.0925925925925926,105.27777777777779,0)" xlink:href="#ay"/></g><g id="l"><use transform="matrix(0.0925925925925926,0,0,0.0925925925925926,0,0)" xlink:href="#an"/><use transform="matrix(0.0925925925925926,0,0,0.0925925925925926,22.222222222222225,0)" xlink:href="#aq"/><use transform="matrix(0.0925925925925926,0,0,0.0925925925925926,40.74074074074075,0)" xlink:href="#ar"/><use transform="matrix(0.0925925925925926,0,0,0.0925925925925926,53.70370370370371,0)" xlink:href="#as"/><use transform="matrix(0.0925925925925926,0,0,0.0925925925925926,72.22222222222223,0)" xlink:href="#aq"/><use transform="matrix(0.0925925925925926,0,0,0.0925925925925926,90.74074074074075,0)" xlink:href="#ar"/></g><path fill="#ef8d22" d="M240-174c0 40-23 61-54 70L253 0h-59l-57-94H76V0H24v-248c93 4 217-23 216 74zM76-134c48-2 112 12 112-38 0-48-66-32-112-35v73" id="aL"/><path fill="#ef8d22" d="M133-34C117-15 103 5 69 4 32 3 11-16 11-54c-1-60 55-63 116-61 1-26-3-47-28-47-18 1-26 9-28 27l-52-2c7-38 36-58 82-57s74 22 75 68l1 82c-1 14 12 18 25 15v27c-30 8-71 5-69-32zm-48 3c29 0 43-24 42-57-32 0-66-3-65 30 0 17 8 27 23 27" id="aM"/><path fill="#ef8d22" d="M135-194c52 0 70 43 70 98 0 56-19 99-73 100-30 1-46-15-58-35L72 0H24l1-261h50v104c11-23 29-37 60-37zM114-30c31 0 40-27 40-66 0-37-7-63-39-63s-41 28-41 65c0 36 8 64 40 64" id="aN"/><path fill="#ef8d22" d="M25-224v-37h50v37H25zM25 0v-190h50V0H25" id="aO"/><path fill="#ef8d22" d="M115-3C79 11 28 4 28-45v-112H4v-33h27l15-45h31v45h36v33H77v99c-1 23 16 31 38 25v30" id="aP"/><path fill="#ef8d22" d="M230 0l2-204L168 0h-37L68-204 70 0H24v-248h70l56 185 57-185h69V0h-46" id="aQ"/><path fill="#ef8d22" d="M140-251c80 0 125 45 125 126 0 70-33 111-92 124 6 28 34 38 68 31l-1 36C177 83 129 55 120 2 51-6 15-50 15-125c0-81 44-126 125-126zm-1 214c52 0 73-35 73-88 0-50-21-86-72-86-52 0-73 35-73 86s22 88 72 88" id="aR"/><g id="m"><use transform="matrix(0.08641975308641976,0,0,0.08641975308641976,0,0)" xlink:href="#aL"/><use transform="matrix(0.08641975308641976,0,0,0.08641975308641976,22.38271604938272,0)" xlink:href="#aM"/><use transform="matrix(0.08641975308641976,0,0,0.08641975308641976,39.66666666666667,0)" xlink:href="#aN"/><use transform="matrix(0.08641975308641976,0,0,0.08641975308641976,58.592592592592595,0)" xlink:href="#aN"/><use transform="matrix(0.08641975308641976,0,0,0.08641975308641976,77.51851851851852,0)" xlink:href="#aO"/><use transform="matrix(0.08641975308641976,0,0,0.08641975308641976,86.1604938271605,0)" xlink:href="#aP"/><use transform="matrix(0.08641975308641976,0,0,0.08641975308641976,96.44444444444443,0)" xlink:href="#aQ"/><use transform="matrix(0.08641975308641976,0,0,0.08641975308641976,122.28395061728395,0)" xlink:href="#aR"/></g><path d="M137 0h-34L2-248h35l83 218 83-218h36" id="aS"/><path d="M240 0l2-218c-23 76-54 145-80 218h-23L58-218 59 0H30v-248h44l77 211c21-75 51-140 76-211h43V0h-30" id="aT"/><g id="n"><use transform="matrix(0.0925925925925926,0,0,0.0925925925925926,0,0)" xlink:href="#aS"/><use transform="matrix(0.0925925925925926,0,0,0.0925925925925926,22.222222222222225,0)" xlink:href="#aT"/></g><path d="M67-125c0 54 23 88 75 88 28 0 53-7 68-21v-34h-60v-39h108v91C232-14 192 4 140 4 58 4 20-42 15-125 8-236 126-280 215-234c19 10 29 26 37 47l-47 15c-11-23-29-39-63-39-53 1-75 33-75 86" id="aU"/><path d="M24 0v-248h52V0H24" id="aV"/><g id="o"><use transform="matrix(0.1111111111111111,0,0,0.1111111111111111,0,0)" xlink:href="#ak"/><use transform="matrix(0.1111111111111111,0,0,0.1111111111111111,22.22222222222222,0)" xlink:href="#aU"/><use transform="matrix(0.1111111111111111,0,0,0.1111111111111111,53.33333333333333,0)" xlink:href="#aV"/></g><path d="M85 4C-2 5 27-109 22-190h50c7 57-23 150 33 157 60-5 35-97 40-157h50l1 190h-47c-2-12 1-28-3-38-12 25-28 42-61 42" id="aW"/><path d="M137-138c1-29-70-34-71-4 15 46 118 7 119 86 1 83-164 76-172 9l43-7c4 19 20 25 44 25 33 8 57-30 24-41C81-84 22-81 20-136c-2-80 154-74 161-7" id="aX"/><g id="p"><use transform="matrix(0.1111111111111111,0,0,0.1111111111111111,0,0)" xlink:href="#au"/><use transform="matrix(0.1111111111111111,0,0,0.1111111111111111,28.777777777777775,0)" xlink:href="#ay"/><use transform="matrix(0.1111111111111111,0,0,0.1111111111111111,39.888888888888886,0)" xlink:href="#aW"/><use transform="matrix(0.1111111111111111,0,0,0.1111111111111111,64.22222222222221,0)" xlink:href="#aX"/><use transform="matrix(0.1111111111111111,0,0,0.1111111111111111,86.44444444444443,0)" xlink:href="#ap"/><use transform="matrix(0.1111111111111111,0,0,0.1111111111111111,99.66666666666666,0)" xlink:href="#aq"/><use transform="matrix(0.1111111111111111,0,0,0.1111111111111111,121.88888888888889,0)" xlink:href="#ar"/></g><g id="q"><use transform="matrix(0.07407407407407408,0,0,0.07407407407407408,0,0)" xlink:href="#ae"/><use transform="matrix(0.07407407407407408,0,0,0.07407407407407408,17.77777777777778,0)" xlink:href="#af"/><use transform="matrix(0.07407407407407408,0,0,0.07407407407407408,36.96296296296296,0)" xlink:href="#ag"/><use transform="matrix(0.07407407407407408,0,0,0.07407407407407408,56.14814814814815,0)" xlink:href="#ah"/><use transform="matrix(0.07407407407407408,0,0,0.07407407407407408,71.92592592592592,0)" xlink:href="#ai"/><use transform="matrix(0.07407407407407408,0,0,0.07407407407407408,88.14814814814817,0)" xlink:href="#af"/><use transform="matrix(0.07407407407407408,0,0,0.07407407407407408,107.33333333333334,0)" xlink:href="#aj"/></g><path fill="#0c7cba" d="M24-231v-30h32v30H24zM-9 49c24 4 33-6 33-30v-209h32V24c2 40-23 58-65 49V49" id="aY"/><path fill="#0c7cba" d="M100-194c62-1 85 37 85 99 1 63-27 99-86 99S16-35 15-95c0-66 28-99 85-99zM99-20c44 1 53-31 53-75 0-43-8-75-51-75s-53 32-53 75 10 74 51 75" id="aZ"/><path fill="#0c7cba" d="M115-194c53 0 69 39 70 98 0 66-23 100-70 100C84 3 66-7 56-30L54 0H23l1-261h32v101c10-23 28-34 59-34zm-8 174c40 0 45-34 45-75 0-40-5-75-45-74-42 0-51 32-51 76 0 43 10 73 51 73" id="ba"/><g id="r"><use transform="matrix(0.0925925925925926,0,0,0.0925925925925926,0,0)" xlink:href="#aY"/><use transform="matrix(0.0925925925925926,0,0,0.0925925925925926,7.314814814814816,0)" xlink:href="#aZ"/><use transform="matrix(0.0925925925925926,0,0,0.0925925925925926,25.833333333333336,0)" xlink:href="#ba"/></g><path fill="#0c7cba" d="M135-143c-3-34-86-38-87 0 15 53 115 12 119 90S17 21 10-45l28-5c4 36 97 45 98 0-10-56-113-15-118-90-4-57 82-63 122-42 12 7 21 19 24 35" id="bb"/><path fill="#0c7cba" d="M84 4C-5 8 30-112 23-190h32v120c0 31 7 50 39 49 72-2 45-101 50-169h31l1 190h-30c-1-10 1-25-2-33-11 22-28 36-60 37" id="bc"/><path fill="#0c7cba" d="M210-169c-67 3-38 105-44 169h-31v-121c0-29-5-50-35-48C34-165 62-65 56 0H25l-1-190h30c1 10-1 24 2 32 10-44 99-50 107 0 11-21 27-35 58-36 85-2 47 119 55 194h-31v-121c0-29-5-49-35-48" id="bd"/><path fill="#0c7cba" d="M24-231v-30h32v30H24zM24 0v-190h32V0H24" id="be"/><path fill="#0c7cba" d="M117-194c89-4 53 116 60 194h-32v-121c0-31-8-49-39-48C34-167 62-67 57 0H25l-1-190h30c1 10-1 24 2 32 11-22 29-35 61-36" id="bf"/><g id="s"><use transform="matrix(0.0925925925925926,0,0,0.0925925925925926,0,0)" xlink:href="#bb"/><use transform="matrix(0.0925925925925926,0,0,0.0925925925925926,16.666666666666668,0)" xlink:href="#bc"/><use transform="matrix(0.0925925925925926,0,0,0.0925925925925926,35.18518518518519,0)" xlink:href="#ba"/><use transform="matrix(0.0925925925925926,0,0,0.0925925925925926,53.70370370370371,0)" xlink:href="#bd"/><use transform="matrix(0.0925925925925926,0,0,0.0925925925925926,81.3888888888889,0)" xlink:href="#be"/><use transform="matrix(0.0925925925925926,0,0,0.0925925925925926,88.70370370370371,0)" xlink:href="#bb"/><use transform="matrix(0.0925925925925926,0,0,0.0925925925925926,105.37037037037038,0)" xlink:href="#bb"/><use transform="matrix(0.0925925925925926,0,0,0.0925925925925926,122.03703703703705,0)" xlink:href="#be"/><use transform="matrix(0.0925925925925926,0,0,0.0925925925925926,129.35185185185188,0)" xlink:href="#aZ"/><use transform="matrix(0.0925925925925926,0,0,0.0925925925925926,147.87037037037038,0)" xlink:href="#bf"/></g><path d="M30 0v-248h33v221h125V0H30" id="bg"/><path d="M160-131c35 5 61 23 61 61C221 17 115-2 30 0v-248c76 3 177-17 177 60 0 33-19 50-47 57zm-97-11c50-1 110 9 110-42 0-47-63-36-110-37v79zm0 115c55-2 124 14 124-45 0-56-70-42-124-44v89" id="bh"/><g id="t"><use transform="matrix(0.14814814814814817,0,0,0.14814814814814817,0,0)" xlink:href="#bg"/><use transform="matrix(0.14814814814814817,0,0,0.14814814814814817,29.629629629629633,0)" xlink:href="#bh"/><use transform="matrix(0.14814814814814817,0,0,0.14814814814814817,65.18518518518519,0)" xlink:href="#bg"/></g><path d="M33 0v-248h34V0H33" id="bi"/><g id="u"><use transform="matrix(0.14814814814814817,0,0,0.14814814814814817,0,0)" xlink:href="#bi"/><use transform="matrix(0.14814814814814817,0,0,0.14814814814814817,14.814814814814817,0)" xlink:href="#ai"/></g><path d="M179-190L93 31C79 59 56 82 12 73V49c39 6 53-20 64-50L1-190h34L92-34l54-156h33" id="bj"/><path d="M140-251c81 0 123 46 123 126C263-53 228-8 163 1c7 30 30 48 69 40v23c-55 16-95-15-103-61C56-3 17-48 17-125c0-80 42-126 123-126zm0 227c63 0 89-41 89-101s-29-99-89-99c-61 0-89 39-89 99S79-25 140-24" id="bk"/><g id="v"><use transform="matrix(0.0925925925925926,0,0,0.0925925925925926,0,0)" xlink:href="#aT"/><use transform="matrix(0.0925925925925926,0,0,0.0925925925925926,27.685185185185187,0)" xlink:href="#bj"/><use transform="matrix(0.0925925925925926,0,0,0.0925925925925926,44.351851851851855,0)" xlink:href="#ae"/><use transform="matrix(0.0925925925925926,0,0,0.0925925925925926,66.57407407407408,0)" xlink:href="#bk"/><use transform="matrix(0.0925925925925926,0,0,0.0925925925925926,92.5,0)" xlink:href="#bg"/></g><path d="M117-194c89-4 53 116 60 194h-32v-121c0-31-8-49-39-48C34-167 62-67 57 0H25l-1-190h30c1 10-1 24 2 32 11-22 29-35 61-36" id="bl"/><path d="M85-194c31 0 48 13 60 33l-1-100h32l1 261h-30c-2-10 0-23-3-31C134-8 116 4 85 4 32 4 16-35 15-94c0-66 23-100 70-100zm9 24c-40 0-46 34-46 75 0 40 6 74 45 74 42 0 51-32 51-76 0-42-9-74-50-73" id="bm"/><g id="w"><use transform="matrix(0.04938271604938272,0,0,0.04938271604938272,0,0)" xlink:href="#af"/><use transform="matrix(0.04938271604938272,0,0,0.04938271604938272,12.790123456790125,0)" xlink:href="#aa"/><use transform="matrix(0.04938271604938272,0,0,0.04938271604938272,22.66666666666667,0)" xlink:href="#bl"/><use transform="matrix(0.04938271604938272,0,0,0.04938271604938272,32.543209876543216,0)" xlink:href="#bm"/><use transform="matrix(0.04938271604938272,0,0,0.04938271604938272,42.41975308641976,0)" xlink:href="#aa"/><use transform="matrix(0.04938271604938272,0,0,0.04938271604938272,52.2962962962963,0)" xlink:href="#aF"/></g><path d="M59-47c-2 24 18 29 38 22v24C64 9 27 4 27-40v-127H5v-23h24l9-43h21v43h35v23H59v120" id="bn"/><path d="M141-36C126-15 110 5 73 4 37 3 15-17 15-53c-1-64 63-63 125-63 3-35-9-54-41-54-24 1-41 7-42 31l-33-3c5-37 33-52 76-52 45 0 72 20 72 64v82c-1 20 7 32 28 27v20c-31 9-61-2-59-35zM48-53c0 20 12 33 32 33 41-3 63-29 60-74-43 2-92-5-92 41" id="bo"/><g id="x"><use transform="matrix(0.04938271604938272,0,0,0.04938271604938272,0,0)" xlink:href="#ad"/><use transform="matrix(0.04938271604938272,0,0,0.04938271604938272,8.88888888888889,0)" xlink:href="#bn"/><use transform="matrix(0.04938271604938272,0,0,0.04938271604938272,13.827160493827162,0)" xlink:href="#aa"/><use transform="matrix(0.04938271604938272,0,0,0.04938271604938272,23.703703703703706,0)" xlink:href="#Z"/><use transform="matrix(0.04938271604938272,0,0,0.04938271604938272,29.58024691358025,0)" xlink:href="#bo"/><use transform="matrix(0.04938271604938272,0,0,0.04938271604938272,39.4567901234568,0)" xlink:href="#aK"/><use transform="matrix(0.04938271604938272,0,0,0.04938271604938272,49.33333333333334,0)" xlink:href="#ac"/></g><path d="M87 75C49 33 22-17 22-94c0-76 28-126 65-167h31c-38 41-64 92-64 168S80 34 118 75H87" id="bp"/><path d="M27 0v-27h64v-190l-56 39v-29l58-41h29v221h61V0H27" id="bq"/><path d="M33-261c38 41 65 92 65 168S71 34 33 75H2C39 34 66-17 66-93S39-220 2-261h31" id="br"/><g id="y"><use transform="matrix(0.04938271604938272,0,0,0.04938271604938272,0,0)" xlink:href="#bp"/><use transform="matrix(0.04938271604938272,0,0,0.04938271604938272,5.8765432098765435,0)" xlink:href="#bq"/><use transform="matrix(0.04938271604938272,0,0,0.04938271604938272,15.753086419753087,0)" xlink:href="#ai"/><use transform="matrix(0.04938271604938272,0,0,0.04938271604938272,26.567901234567902,0)" xlink:href="#bh"/><use transform="matrix(0.04938271604938272,0,0,0.04938271604938272,38.41975308641976,0)" xlink:href="#br"/></g><path d="M153-248C145-148 188 4 80 4 36 3 13-21 6-62l32-5c4 25 16 42 43 43 27 0 39-20 39-49v-147H72v-28h81" id="bs"/><g id="z"><use transform="matrix(0.0925925925925926,0,0,0.0925925925925926,0,0)" xlink:href="#bs"/><use transform="matrix(0.0925925925925926,0,0,0.0925925925925926,16.666666666666668,0)" xlink:href="#ai"/><use transform="matrix(0.0925925925925926,0,0,0.0925925925925926,36.94444444444444,0)" xlink:href="#aT"/></g><path d="M266 0h-40l-56-210L115 0H75L2-248h35L96-30l15-64 43-154h32l59 218 59-218h35" id="bt"/><path d="M143 0L79-87 56-68V0H24v-261h32v163l83-92h37l-77 82L181 0h-38" id="bu"/><g id="A"><use transform="matrix(0.0925925925925926,0,0,0.0925925925925926,0,0)" xlink:href="#bt"/><use transform="matrix(0.0925925925925926,0,0,0.0925925925925926,30.740740740740744,0)" xlink:href="#aa"/><use transform="matrix(0.0925925925925926,0,0,0.0925925925925926,49.25925925925927,0)" xlink:href="#Z"/><use transform="matrix(0.0925925925925926,0,0,0.0925925925925926,60.277777777777786,0)" xlink:href="#bu"/><use transform="matrix(0.0925925925925926,0,0,0.0925925925925926,76.94444444444446,0)" xlink:href="#ac"/><use transform="matrix(0.0925925925925926,0,0,0.0925925925925926,95.46296296296298,0)" xlink:href="#Z"/><use transform="matrix(0.0925925925925926,0,0,0.0925925925925926,106.4814814814815,0)" xlink:href="#ad"/></g><path d="M232-93c-1 65-40 97-104 97C67 4 28-28 28-90v-158h33c8 89-33 224 67 224 102 0 64-133 71-224h33v155" id="bv"/><g id="B"><use transform="matrix(0.08641975308641976,0,0,0.08641975308641976,0,0)" xlink:href="#bv"/><use transform="matrix(0.08641975308641976,0,0,0.08641975308641976,22.38271604938272,0)" xlink:href="#ad"/><use transform="matrix(0.08641975308641976,0,0,0.08641975308641976,37.93827160493828,0)" xlink:href="#ac"/><use transform="matrix(0.08641975308641976,0,0,0.08641975308641976,55.22222222222223,0)" xlink:href="#Z"/></g><path d="M63-220v92h138v28H63V0H30v-248h175v28H63" id="bw"/><g id="C"><use transform="matrix(0.05,0,0,0.05,0,0)" xlink:href="#bw"/><use transform="matrix(0.05,0,0,0.05,10.950000000000001,0)" xlink:href="#ae"/></g><g id="D"><use transform="matrix(0.06790123456790124,0,0,0.06790123456790124,0,0)" xlink:href="#ak"/><use transform="matrix(0.06790123456790124,0,0,0.06790123456790124,13.580246913580249,0)" xlink:href="#al"/><use transform="matrix(0.06790123456790124,0,0,0.06790123456790124,29.808641975308646,0)" xlink:href="#am"/><use transform="matrix(0.06790123456790124,0,0,0.06790123456790124,52.827160493827165,0)" xlink:href="#an"/></g><g id="E"><use transform="matrix(0.06790123456790124,0,0,0.06790123456790124,0,0)" xlink:href="#an"/><use transform="matrix(0.06790123456790124,0,0,0.06790123456790124,16.296296296296298,0)" xlink:href="#ao"/><use transform="matrix(0.06790123456790124,0,0,0.06790123456790124,23.08641975308642,0)" xlink:href="#ap"/><use transform="matrix(0.06790123456790124,0,0,0.06790123456790124,31.16666666666667,0)" xlink:href="#aq"/></g><g id="F"><use transform="matrix(0.06790123456790124,0,0,0.06790123456790124,0,0)" xlink:href="#an"/><use transform="matrix(0.06790123456790124,0,0,0.06790123456790124,16.296296296296298,0)" xlink:href="#aq"/><use transform="matrix(0.06790123456790124,0,0,0.06790123456790124,29.876543209876544,0)" xlink:href="#ar"/><use transform="matrix(0.06790123456790124,0,0,0.06790123456790124,39.38271604938272,0)" xlink:href="#as"/><use transform="matrix(0.06790123456790124,0,0,0.06790123456790124,52.96296296296297,0)" xlink:href="#aq"/><use transform="matrix(0.06790123456790124,0,0,0.06790123456790124,66.54320987654322,0)" xlink:href="#ar"/><use transform="matrix(0.06790123456790124,0,0,0.06790123456790124,74.69135802469137,0)" xlink:href="#at"/></g><g id="G"><use transform="matrix(0.06790123456790124,0,0,0.06790123456790124,0,0)" xlink:href="#au"/><use transform="matrix(0.06790123456790124,0,0,0.06790123456790124,17.58641975308642,0)" xlink:href="#ar"/><use transform="matrix(0.06790123456790124,0,0,0.06790123456790124,27.092592592592595,0)" xlink:href="#av"/><use transform="matrix(0.06790123456790124,0,0,0.06790123456790124,41.96296296296297,0)" xlink:href="#aw"/><use transform="matrix(0.06790123456790124,0,0,0.06790123456790124,63.69135802469137,0)" xlink:href="#ax"/><use transform="matrix(0.06790123456790124,0,0,0.06790123456790124,82.70370370370371,0)" xlink:href="#aq"/><use transform="matrix(0.06790123456790124,0,0,0.06790123456790124,96.28395061728398,0)" xlink:href="#ay"/><use transform="matrix(0.06790123456790124,0,0,0.06790123456790124,103.0740740740741,0)" xlink:href="#ay"/><use transform="matrix(0.06790123456790124,0,0,0.06790123456790124,109.86419753086423,0)" xlink:href="#at"/></g><path d="M101-251c82-7 93 87 43 132L82-64C71-53 59-42 53-27h129V0H18c2-99 128-94 128-182 0-28-16-43-45-43s-46 15-49 41l-32-3c6-41 34-60 81-64" id="bx"/><path d="M101-251c68 0 85 55 85 127S166 4 100 4C33 4 14-52 14-124c0-73 17-127 87-127zm-1 229c47 0 54-49 54-102s-4-102-53-102c-51 0-55 48-55 102 0 53 5 102 54 102" id="by"/><g id="H"><use transform="matrix(0.06790123456790124,0,0,0.06790123456790124,0,0)" xlink:href="#ab"/><use transform="matrix(0.06790123456790124,0,0,0.06790123456790124,12.222222222222223,0)" xlink:href="#aa"/><use transform="matrix(0.06790123456790124,0,0,0.06790123456790124,25.802469135802472,0)" xlink:href="#Z"/><use transform="matrix(0.06790123456790124,0,0,0.06790123456790124,33.88271604938272,0)" xlink:href="#aH"/><use transform="matrix(0.06790123456790124,0,0,0.06790123456790124,39.24691358024692,0)" xlink:href="#bx"/><use transform="matrix(0.06790123456790124,0,0,0.06790123456790124,52.827160493827165,0)" xlink:href="#by"/><use transform="matrix(0.06790123456790124,0,0,0.06790123456790124,66.40740740740742,0)" xlink:href="#aI"/><use transform="matrix(0.06790123456790124,0,0,0.06790123456790124,73.19753086419755,0)" xlink:href="#bl"/><use transform="matrix(0.06790123456790124,0,0,0.06790123456790124,86.7777777777778,0)" xlink:href="#ac"/><use transform="matrix(0.06790123456790124,0,0,0.06790123456790124,100.35802469135805,0)" xlink:href="#Z"/><use transform="matrix(0.06790123456790124,0,0,0.06790123456790124,108.43827160493831,0)" xlink:href="#ad"/><use transform="matrix(0.06790123456790124,0,0,0.06790123456790124,120.66049382716054,0)" xlink:href="#ab"/><use transform="matrix(0.06790123456790124,0,0,0.06790123456790124,132.88271604938276,0)" xlink:href="#aI"/><use transform="matrix(0.06790123456790124,0,0,0.06790123456790124,139.6728395061729,0)" xlink:href="#aK"/><use transform="matrix(0.06790123456790124,0,0,0.06790123456790124,153.25308641975315,0)" xlink:href="#aa"/><use transform="matrix(0.06790123456790124,0,0,0.06790123456790124,166.8333333333334,0)" xlink:href="#aG"/></g><g id="I"><use transform="matrix(0.1111111111111111,0,0,0.1111111111111111,0,0)" xlink:href="#au"/><use transform="matrix(0.1111111111111111,0,0,0.1111111111111111,28.777777777777775,0)" xlink:href="#av"/><use transform="matrix(0.1111111111111111,0,0,0.1111111111111111,53.11111111111111,0)" xlink:href="#ar"/><use transform="matrix(0.1111111111111111,0,0,0.1111111111111111,68.66666666666666,0)" xlink:href="#ao"/></g><path d="M210-169c-67 3-38 105-44 169h-31v-121c0-29-5-50-35-48C34-165 62-65 56 0H25l-1-190h30c1 10-1 24 2 32 10-44 99-50 107 0 11-21 27-35 58-36 85-2 47 119 55 194h-31v-121c0-29-5-49-35-48" id="bz"/><path d="M145-31C134-9 116 4 85 4 32 4 16-35 15-94c0-59 17-99 70-100 32-1 48 14 60 33 0-11-1-24 2-32h30l-1 268h-32zM93-21c41 0 51-33 51-76s-8-73-50-73c-40 0-46 35-46 75s5 74 45 74" id="bA"/><g id="J"><use transform="matrix(0.06790123456790124,0,0,0.06790123456790124,0,0)" xlink:href="#Z"/><use transform="matrix(0.06790123456790124,0,0,0.06790123456790124,8.080246913580249,0)" xlink:href="#bz"/><use transform="matrix(0.06790123456790124,0,0,0.06790123456790124,28.38271604938272,0)" xlink:href="#bA"/><use transform="matrix(0.06790123456790124,0,0,0.06790123456790124,41.96296296296297,0)" xlink:href="#aI"/><use transform="matrix(0.06790123456790124,0,0,0.06790123456790124,48.753086419753096,0)" xlink:href="#bl"/><use transform="matrix(0.06790123456790124,0,0,0.06790123456790124,62.33333333333334,0)" xlink:href="#ac"/><use transform="matrix(0.06790123456790124,0,0,0.06790123456790124,75.9135802469136,0)" xlink:href="#Z"/><use transform="matrix(0.06790123456790124,0,0,0.06790123456790124,83.99382716049385,0)" xlink:href="#ad"/><use transform="matrix(0.06790123456790124,0,0,0.06790123456790124,96.21604938271608,0)" xlink:href="#ab"/><use transform="matrix(0.06790123456790124,0,0,0.06790123456790124,108.43827160493831,0)" xlink:href="#aI"/><use transform="matrix(0.06790123456790124,0,0,0.06790123456790124,115.22839506172843,0)" xlink:href="#aK"/><use transform="matrix(0.06790123456790124,0,0,0.06790123456790124,128.8086419753087,0)" xlink:href="#aa"/><use transform="matrix(0.06790123456790124,0,0,0.06790123456790124,142.38888888888894,0)" xlink:href="#aG"/></g><path d="M190 0L58-211 59 0H30v-248h39L202-35l-2-213h31V0h-41" id="bB"/><g id="K"><use transform="matrix(0.0925925925925926,0,0,0.0925925925925926,0,0)" xlink:href="#ae"/><use transform="matrix(0.0925925925925926,0,0,0.0925925925925926,22.222222222222225,0)" xlink:href="#Y"/><use transform="matrix(0.0925925925925926,0,0,0.0925925925925926,44.44444444444445,0)" xlink:href="#bi"/><use transform="matrix(0.0925925925925926,0,0,0.0925925925925926,53.70370370370371,0)" xlink:href="#bB"/></g><path d="M30 0v-248h187v28H63v79h144v27H63v87h162V0H30" id="bC"/><g id="L"><use transform="matrix(0.14814814814814817,0,0,0.14814814814814817,0,0)" xlink:href="#bB"/><use transform="matrix(0.14814814814814817,0,0,0.14814814814814817,38.370370370370374,0)" xlink:href="#bC"/><use transform="matrix(0.14814814814814817,0,0,0.14814814814814817,73.92592592592592,0)" xlink:href="#ag"/><use transform="matrix(0.14814814814814817,0,0,0.14814814814814817,112.2962962962963,0)" xlink:href="#ae"/><use transform="matrix(0.14814814814814817,0,0,0.14814814814814817,147.85185185185185,0)" xlink:href="#af"/></g><g id="M"><use transform="matrix(0.06790123456790124,0,0,0.06790123456790124,0,0)" xlink:href="#Z"/><use transform="matrix(0.06790123456790124,0,0,0.06790123456790124,8.080246913580249,0)" xlink:href="#bz"/><use transform="matrix(0.06790123456790124,0,0,0.06790123456790124,28.38271604938272,0)" xlink:href="#bA"/><use transform="matrix(0.06790123456790124,0,0,0.06790123456790124,41.96296296296297,0)" xlink:href="#aI"/><use transform="matrix(0.06790123456790124,0,0,0.06790123456790124,48.753086419753096,0)" xlink:href="#aE"/><use transform="matrix(0.06790123456790124,0,0,0.06790123456790124,54.11728395061729,0)" xlink:href="#aJ"/><use transform="matrix(0.06790123456790124,0,0,0.06790123456790124,67.69753086419755,0)" xlink:href="#aE"/><use transform="matrix(0.06790123456790124,0,0,0.06790123456790124,73.06172839506175,0)" xlink:href="#aI"/><use transform="matrix(0.06790123456790124,0,0,0.06790123456790124,79.85185185185188,0)" xlink:href="#aK"/><use transform="matrix(0.06790123456790124,0,0,0.06790123456790124,93.43209876543213,0)" xlink:href="#aa"/><use transform="matrix(0.06790123456790124,0,0,0.06790123456790124,107.01234567901238,0)" xlink:href="#aG"/></g><g id="N"><use transform="matrix(0.0925925925925926,0,0,0.0925925925925926,0,0)" xlink:href="#bs"/><use transform="matrix(0.0925925925925926,0,0,0.0925925925925926,16.666666666666668,0)" xlink:href="#ah"/><use transform="matrix(0.0925925925925926,0,0,0.0925925925925926,37.68518518518519,0)" xlink:href="#bt"/><use transform="matrix(0.0925925925925926,0,0,0.0925925925925926,69.07407407407408,0)" xlink:href="#ae"/></g><g id="O"><use transform="matrix(0.0925925925925926,0,0,0.0925925925925926,0,0)" xlink:href="#af"/><use transform="matrix(0.0925925925925926,0,0,0.0925925925925926,23.981481481481485,0)" xlink:href="#aE"/><use transform="matrix(0.0925925925925926,0,0,0.0925925925925926,31.296296296296298,0)" xlink:href="#aH"/><use transform="matrix(0.0925925925925926,0,0,0.0925925925925926,38.611111111111114,0)" xlink:href="#ac"/><use transform="matrix(0.0925925925925926,0,0,0.0925925925925926,57.12962962962963,0)" xlink:href="#bl"/><use transform="matrix(0.0925925925925926,0,0,0.0925925925925926,75.64814814814815,0)" xlink:href="#bn"/></g><g id="Q"><use transform="matrix(0.07407407407407408,0,0,0.07407407407407408,0,0)" xlink:href="#ag"/><use transform="matrix(0.07407407407407408,0,0,0.07407407407407408,19.185185185185187,0)" xlink:href="#bC"/><use transform="matrix(0.07407407407407408,0,0,0.07407407407407408,36.96296296296296,0)" xlink:href="#ae"/><use transform="matrix(0.07407407407407408,0,0,0.07407407407407408,54.74074074074074,0)" xlink:href="#ai"/></g><path d="M30-248c118-7 216 8 213 122C240-48 200 0 122 0H30v-248zM63-27c89 8 146-16 146-99s-60-101-146-95v194" id="bD"/><g id="R"><use transform="matrix(0.07407407407407408,0,0,0.07407407407407408,0,0)" xlink:href="#bD"/><use transform="matrix(0.07407407407407408,0,0,0.07407407407407408,19.185185185185187,0)" xlink:href="#bh"/></g><g id="S"><use transform="matrix(0.07407407407407408,0,0,0.07407407407407408,0,0)" xlink:href="#ah"/><use transform="matrix(0.07407407407407408,0,0,0.07407407407407408,17.77777777777778,0)" xlink:href="#Y"/><use transform="matrix(0.07407407407407408,0,0,0.07407407407407408,35.55555555555556,0)" xlink:href="#bi"/></g><g id="T"><use transform="matrix(0.07407407407407408,0,0,0.07407407407407408,0,0)" xlink:href="#ah"/><use transform="matrix(0.07407407407407408,0,0,0.07407407407407408,17.77777777777778,0)" xlink:href="#aT"/><use transform="matrix(0.07407407407407408,0,0,0.07407407407407408,39.92592592592593,0)" xlink:href="#bk"/><use transform="matrix(0.07407407407407408,0,0,0.07407407407407408,60.66666666666667,0)" xlink:href="#Y"/></g><g id="U"><use transform="matrix(0.07407407407407408,0,0,0.07407407407407408,0,0)" xlink:href="#bD"/><use transform="matrix(0.07407407407407408,0,0,0.07407407407407408,19.185185185185187,0)" xlink:href="#aH"/><use transform="matrix(0.07407407407407408,0,0,0.07407407407407408,25.037037037037035,0)" xlink:href="#ad"/><use transform="matrix(0.07407407407407408,0,0,0.07407407407407408,38.370370370370374,0)" xlink:href="#bu"/></g><path d="M0 4l72-265h28L28 4H0" id="bE"/><path d="M140-251c81 0 123 46 123 126C263-46 219 4 140 4 59 4 17-45 17-125s42-126 123-126zm0 227c63 0 89-41 89-101s-29-99-89-99c-61 0-89 39-89 99S79-25 140-24" id="bF"/><g id="V"><use transform="matrix(0.07407407407407408,0,0,0.07407407407407408,0,0)" xlink:href="#bi"/><use transform="matrix(0.07407407407407408,0,0,0.07407407407407408,7.407407407407408,0)" xlink:href="#bE"/><use transform="matrix(0.07407407407407408,0,0,0.07407407407407408,14.814814814814817,0)" xlink:href="#bF"/></g><g id="W"><use transform="matrix(0.07407407407407408,0,0,0.07407407407407408,0,0)" xlink:href="#ae"/><use transform="matrix(0.07407407407407408,0,0,0.07407407407407408,17.77777777777778,0)" xlink:href="#bg"/><use transform="matrix(0.07407407407407408,0,0,0.07407407407407408,32.592592592592595,0)" xlink:href="#bv"/><use transform="matrix(0.07407407407407408,0,0,0.07407407407407408,51.777777777777786,0)" xlink:href="#ag"/><use transform="matrix(0.07407407407407408,0,0,0.07407407407407408,70.96296296296298,0)" xlink:href="#aT"/></g></defs></g></svg>