<svg xmlns="http://www.w3.org/2000/svg" xmlns:xlink="http://www.w3.org/1999/xlink" xmlns:lucid="lucid" width="1730" height="1368"><g transform="translate(10 20)" lucid:page-tab-id="0_0"><path d="M0 0h1760v1360H0z" fill="#fff"/><path d="M480 60h500v177.75H480z" fill-opacity="0"/><path d="M499.6 60h19.62m9.8 0h19.6m9.8 0h19.62m9.8 0h19.6m9.8 0h19.62m9.8 0h19.6m9.82 0h19.6m9.8 0h19.62m9.8 0h19.6m9.8 0h19.62m9.8 0h19.6m9.82 0h19.6m9.8 0h19.62m9.8 0h19.6m9.8 0H931m9.8 0h19.6m9.82 0h9.8v9.88m0 9.87V99.5m0 9.88v19.75m0 9.87v19.75m0 9.88v19.75m0 9.87V218m0 9.88v9.87h-9.8m-9.8 0h-19.62m-9.8 0h-19.6m-9.8 0h-19.62m-9.8 0h-19.6m-9.8 0h-19.62m-9.8 0h-19.6m-9.82 0h-19.6m-9.8 0H734.9m-9.8 0h-19.6m-9.8 0h-19.62m-9.8 0h-19.6m-9.82 0h-19.6m-9.8 0h-19.62m-9.8 0h-19.6m-9.8 0H529m-9.8 0h-19.6m-9.82 0H480v-9.87m0-9.88v-19.75m0-9.87v-19.75m0-9.88V139m0-9.87v-19.75m0-9.88V79.75m0-9.87V60h9.8" stroke="#000" stroke-width="2" fill="none"/><path d="M420 20h220v200H420z" stroke="#000" stroke-opacity="0" stroke-width="2" fill="#fff" fill-opacity="0"/><use xlink:href="#a" transform="matrix(1,0,0,1,425,25) translate(71.75925925925925 107.05208333333334)"/><path d="M32 960h808v368H32z" fill-opacity="0"/><path d="M51.95 960H71.9m9.98 0h19.95m9.97 0h19.95m9.98 0h19.95m9.97 0h19.95m9.98 0h19.95m9.98 0h19.96m9.97 0h19.95m9.98 0h19.95m9.98 0h19.95m9.98 0h19.96m9.98 0h19.95m9.96 0H431m10 0h19.94m9.97 0h19.96m9.98 0h19.95m9.97 0h19.95m9.97 0h19.94m9.98 0h19.95m9.97 0h19.95m9.97 0h19.95m9.98 0h19.95m9.97 0h19.95m9.98 0h19.95m9.97 0h19.95m9.98 0h19.95m9.97 0H840v10.22m0 10.22v20.45m0 10.2v20.46m0 10.22v20.44m0 10.22v20.45m0 10.2v20.46m0 10.22v20.44m0 10.22v20.45m0 10.2v20.46m0 10.22v20.44m0 10.22v20.45m0 10.2v20.46m0 10.22V1328h-9.98m-9.97 0H800.1m-9.98 0h-19.95m-9.97 0h-19.95m-9.98 0h-19.95m-9.97 0H680.4m-9.98 0h-19.95m-9.98 0h-19.96m-9.97 0h-19.95m-9.98 0H560.7m-9.98 0h-19.95m-9.98 0h-19.96m-9.98 0H470.9m-9.96 0H441m-10 0h-19.94m-9.97 0h-19.96m-9.98 0H351.2m-9.97 0h-19.95m-9.97 0h-19.94m-9.98 0h-19.95m-9.97 0H231.5m-9.97 0h-19.95m-9.98 0h-19.95m-9.97 0h-19.95m-9.98 0H111.8m-9.97 0H81.88m-9.98 0H51.95m-9.97 0H32v-10.22m0-10.22v-20.45m0-10.2v-20.46m0-10.22v-20.44m0-10.22v-20.45m0-10.2v-20.46m0-10.22v-20.44m0-10.22v-20.45m0-10.2v-20.46m0-10.22v-20.44m0-10.22v-20.45m0-10.2v-20.46m0-10.22V960h9.98" stroke="#000" stroke-width="2" fill="none"/><path d="M940 960h640v368H940z" fill-opacity="0"/><path d="M960.32 960h20.3m10.17 0h20.3m10.17 0h20.32m10.15 0h20.3m10.17 0h20.32m10.16 0h20.32m10.15 0h20.32m10.15 0h20.32m10.16 0h20.3m10.17 0h20.32m10.16 0h20.32m10.16 0h20.3m10.17 0h20.32m10.16 0h20.33m10.15 0h20.32m10.16 0h20.32m10.16 0h20.3m10.17 0h20.33m10.16 0h20.3m10.17 0h20.3m10.17 0H1580v10.22m0 10.22v20.45m0 10.2v20.46m0 10.22v20.44m0 10.22v20.45m0 10.2v20.46m0 10.22v20.44m0 10.22v20.45m0 10.2v20.46m0 10.22v20.44m0 10.22v20.45m0 10.2v20.46m0 10.22V1328h-10.16m-10.16 0h-20.3m-10.17 0h-20.3m-10.17 0h-20.32m-10.15 0h-20.3m-10.17 0h-20.32m-10.16 0h-20.32m-10.15 0h-20.32m-10.15 0h-20.32m-10.16 0h-20.3m-10.17 0h-20.32m-10.16 0h-20.32m-10.16 0h-20.3m-10.17 0h-20.32m-10.16 0h-20.33m-10.15 0h-20.32m-10.16 0h-20.32m-10.16 0h-20.3m-10.17 0h-20.33m-10.16 0h-20.3m-10.17 0h-20.3m-10.17 0H940v-10.22m0-10.22v-20.45m0-10.2v-20.46m0-10.22v-20.44m0-10.22v-20.45m0-10.2v-20.46m0-10.22v-20.44m0-10.22v-20.45m0-10.2v-20.46m0-10.22v-20.44m0-10.22v-20.45m0-10.2v-20.46m0-10.22V960h10.16" stroke="#000" stroke-width="2" fill="none"/><path d="M740 305h260v120H740z" stroke="#000" stroke-width="2" fill="#ffeca9"/><path d="M766 305v120m208-120v120" stroke="#000" stroke-width="2" fill="none"/><use xlink:href="#b" transform="matrix(1,0,0,1,777.5,310) translate(-7.314814814814824 68.33333333333334)"/><path d="M540 560h280v120H540z" stroke="#000" stroke-width="2" fill="#ffeca9"/><path d="M568 560v120m224-120v120" stroke="#000" stroke-width="2" fill="none"/><use xlink:href="#c" transform="matrix(1,0,0,1,580,565) translate(48.24074074074073 68.33333333333334)"/><path d="M950 560h280v120H950z" stroke="#000" stroke-width="2" fill="#ffeca9"/><path d="M978 560v120m224-120v120" stroke="#000" stroke-width="2" fill="none"/><use xlink:href="#c" transform="matrix(1,0,0,1,990,565) translate(48.24074074074073 68.33333333333334)"/><path d="M871.5 283.38h-3v-7.55h3zm0-34.2h-3V222.5h3z"/><path d="M871.5 222.54h-3V221h3zM870 299.15l-4.64-14.27h9.28z"/><path d="M870 304l-6.7-20.62h13.4zm-2.57-17.62l2.57 7.9 2.57-7.9z"/><use xlink:href="#d" transform="matrix(1,0,0,1,840.4320987654321,249.16666666666666) translate(0 17.77777777777778)"/><path d="M1091.5 491v47.38h-3V494h-23.78v-3zm-92.15 0v3H868.5v-47.38h3V491zM874.64 445.12h-9.28l4.64-14.27z"/><path d="M876.7 446.62h-13.4L870 426zm-9.27-3h5.14l-2.57-7.9zM1090 554.15l-4.64-14.27h9.28z"/><path d="M1090 559l-6.7-20.62h13.4zm-2.57-17.62l2.57 7.9 2.57-7.9z"/><use xlink:href="#e" transform="matrix(1,0,0,1,999.352218555189,479.1666666666667) translate(0 17.77777777777778)"/><path d="M705.22 494H681.5v44.38h-3V491h26.72zm166.28 0H770.6v-3h97.9v-44.38h3zM874.64 445.12h-9.28l4.64-14.27z"/><path d="M876.7 446.62h-13.4L870 426zm-9.27-3h5.14l-2.57-7.9zM680 554.15l-4.64-14.27h9.28z"/><path d="M680 559l-6.7-20.62h13.4zm-2.57-17.62l2.57 7.9 2.57-7.9z"/><use xlink:href="#e" transform="matrix(1,0,0,1,705.224134714059,479.1666666666667) translate(0 17.77777777777778)"/><path d="M1520 80c11.05 0 20 35.82 20 80s-8.95 80-20 80h-160c-11.05 0-20-35.82-20-80s8.95-80 20-80z" stroke="#000" stroke-width="2" fill="#e5e5e5"/><path d="M1520 240c-11.05 0-20-35.82-20-80s8.95-80 20-80" stroke="#000" stroke-width="2" fill="none"/><use xlink:href="#f" transform="matrix(1,0,0,1,1345,85) translate(8.518518518518505 86.14583333333334)"/><path d="M1520 540c11.05 0 20 35.82 20 80s-8.95 80-20 80h-160c-11.05 0-20-35.82-20-80s8.95-80 20-80z" stroke="#000" stroke-width="2" fill="#e5e5e5"/><path d="M1520 700c-11.05 0-20-35.82-20-80s8.95-80 20-80" stroke="#000" stroke-width="2" fill="none"/><use xlink:href="#g" transform="matrix(1,0,0,1,1345,545) translate(8.518518518518505 86.14583333333334)"/><path d="M1233 620h104" stroke="#0c7cba" stroke-width="4" fill="none"/><path d="M1233.05 622H1231v-4h2.05zM1339 620v2h-2.05v-4h2.1z" fill="#0c7cba"/><path d="M953 160h384" stroke="#0c7cba" stroke-width="4" fill="none"/><path d="M953.05 162H951v-4h2.05zM1339 160v2h-2.05v-4h2.1z" fill="#0c7cba"/><path d="M1442 537h-4v-23.67h4zm100-35h-41.35v-4H1538v-35h4z"/><path d="M1542 463.05h-4V461h4zM1442 539h-4v-2.05h4z"/><use xlink:href="#h" transform="matrix(1,0,0,1,1416.949397570525,486.66671065502015) translate(0 17.77777777777778)"/><path d="M1380 320h320v140h-320z" stroke="#000" stroke-width="2" fill="#e5e5e5"/><path d="M1412 320v140m256-140v140" stroke="#000" stroke-width="2" fill="none"/><use xlink:href="#i" transform="matrix(1,0,0,1,1425,325) translate(30.62962962962962 43.66666666666667)"/><use xlink:href="#j" transform="matrix(1,0,0,1,1425,325) translate(16.925925925925924 107.66666666666667)"/><path d="M1542 278v39h-4v-35h-36.72v-4zm-100-11.33h-4V243h4z"/><path d="M1442 243.05h-4V241h4zM1542 319h-4v-2.05h4z"/><use xlink:href="#h" transform="matrix(1,0,0,1,1417.5714624223097,266.6666226783132) translate(0 17.77777777777778)"/><path d="M460 780h360v120H460z" stroke="#000" stroke-width="2" fill="#e5e5e5"/><path d="M496 780v120m288-120v120" stroke="#000" stroke-width="2" fill="none"/><use xlink:href="#k" transform="matrix(1,0,0,1,510,785) translate(-8.333333333333343 68.33333333333334)"/><path d="M960 780h360v120H960z" stroke="#000" stroke-width="2" fill="#e5e5e5"/><path d="M996 780v120m288-120v120" stroke="#000" stroke-width="2" fill="none"/><use xlink:href="#k" transform="matrix(1,0,0,1,1010,785) translate(-8.333333333333343 68.33333333333334)"/><path d="M460 980h360v120H460z" stroke="#000" stroke-width="2" fill="#ffeca9"/><path d="M496 980v120m288-120v120" stroke="#000" stroke-width="2" fill="none"/><use xlink:href="#l" transform="matrix(1,0,0,1,510,985) translate(-1.2962962962963047 68.33333333333334)"/><path d="M960 980h360v120H960z" stroke="#000" stroke-width="2" fill="#ffeca9"/><path d="M996 980v120m288-120v120" stroke="#000" stroke-width="2" fill="none"/><use xlink:href="#l" transform="matrix(1,0,0,1,1010,985) translate(-1.2962962962963047 68.33333333333334)"/><path d="M540 1180h280v120H540z" stroke="#000" stroke-width="2" fill="#ffeca9"/><path d="M568 1180v120m224-120v120" stroke="#000" stroke-width="2" fill="none"/><use xlink:href="#m" transform="matrix(1,0,0,1,580,1185) translate(0.27777777777777146 68.33333333333334)"/><path d="M220 1180h280v120H220z" stroke="#000" stroke-width="2" fill="#ffeca9"/><path d="M248 1180v120m224-120v120" stroke="#000" stroke-width="2" fill="none"/><use xlink:href="#m" transform="matrix(1,0,0,1,260,1185) translate(0.27777777777777146 68.33333333333334)"/><path d="M650.43 731.5h-8.93v26.88h-3V728.5h11.93zm31.07-17.08h-3v-12.8h3zM684.64 700.12h-9.28l4.64-14.27z"/><path d="M686.7 701.62h-13.4L680 681zm-9.27-3h5.14l-2.57-7.9zM640 774.15l-4.64-14.27h9.28z"/><path d="M640 779l-6.7-20.62h13.4zm-2.57-17.62l2.57 7.9 2.57-7.9z"/><use xlink:href="#d" transform="matrix(1,0,0,1,650.4320987654321,714.4248530646514) translate(0 17.77777777777778)"/><path d="M1421.5 1138.5v19.88h-3v-16.88h-105.8v-3zm-174.2 0v3h-108.8v-39h3v36z"/><path d="M1141.5 1102.54h-3V1101h3zM1420 1174.15l-4.64-14.27h9.28z"/><path d="M1420 1179l-6.7-20.62h13.4zm-2.57-17.62l2.57 7.9 2.57-7.9z"/><use xlink:href="#e" transform="matrix(1,0,0,1,1247.3148148148148,1126.6666666666667) translate(0 17.77777777777778)"/><path d="M1140 1121.62V1140h-40v18.38" stroke="#000" stroke-width="3" fill="none"/><path d="M1140 1105.85l4.64 14.27h-9.28zM1100 1174.15l-4.64-14.27h9.28z" stroke="#000" stroke-width="3"/><path d="M497.9 1141.5H361.5v16.88h-3v-19.88h139.4zm143.6 0h-78.23v-3h75.23v-36h3z"/><path d="M641.5 1102.54h-3V1101h3zM360 1174.15l-4.64-14.27h9.28z"/><path d="M360 1179l-6.7-20.62h13.4zm-2.57-17.62l2.57 7.9 2.57-7.9z"/><use xlink:href="#e" transform="matrix(1,0,0,1,497.89772938767914,1126.6666666666667) translate(0 17.77777777777778)"/><path d="M640 1121.62V1140h40v18.38" stroke="#000" stroke-width="3" fill="none"/><path d="M640 1105.85l4.64 14.27h-9.28zM680 1174.15l-4.64-14.27h9.28z" stroke="#000" stroke-width="3"/><path d="M1141.5 958.38h-3v-16.4h3zM1143.07 915.32h-6.14l3.07-9.47z"/><path d="M1144.65 915.32h-3.15l-1.5-4.6-1.5 4.6h-3.15L1140 901zM1140 974.15l-4.64-14.27h9.28z"/><path d="M1140 979l-6.7-20.62h13.4zm-2.57-17.62l2.57 7.9 2.57-7.9z"/><use xlink:href="#e" transform="matrix(1,0,0,1,1107.3148148148148,915.3156090772114) translate(0 17.77777777777778)"/><path d="M641.5 958.38h-3v-16.6h3zM643 915.1h-6l3-9.25z"/><path d="M644.58 915.1h-3.15l-1.43-4.4-1.43 4.4h-3.15L640 901zM640 974.15l-4.64-14.27h9.28z"/><path d="M640 979l-6.7-20.62h13.4zm-2.57-17.62l2.57 7.9 2.57-7.9z"/><use xlink:href="#e" transform="matrix(1,0,0,1,607.3148148148148,915.104953820319) translate(0 17.77777777777778)"/><path d="M1141.5 728.5v29.88h-3V731.5h-11.48v-3zm-50-11.83h-3v-15.05h3zM1094.64 700.12h-9.28l4.64-14.27z"/><path d="M1096.7 701.62h-13.4L1090 681zm-9.27-3h5.14l-2.57-7.9zM1140 774.15l-4.64-14.27h9.28z"/><path d="M1140 779l-6.7-20.62h13.4zm-2.57-17.62l2.57 7.9 2.57-7.9z"/><use xlink:href="#d" transform="matrix(1,0,0,1,1067.8807080906156,716.6666666666666) translate(0 17.77777777777778)"/><path d="M960 1180h280v120H960z" stroke="#000" stroke-width="2" fill="#ffeca9"/><path d="M988 1180v120m224-120v120" stroke="#000" stroke-width="2" fill="none"/><use xlink:href="#m" transform="matrix(1,0,0,1,1000,1185) translate(0.27777777777777146 68.33333333333334)"/><path d="M1280 1180h280v120h-280z" stroke="#000" stroke-width="2" fill="#ffeca9"/><path d="M1308 1180v120m224-120v120" stroke="#000" stroke-width="2" fill="none"/><use xlink:href="#m" transform="matrix(1,0,0,1,1320,1185) translate(0.27777777777777146 68.33333333333334)"/><path d="M1563 1240h38V620h-58" stroke="#0c7cba" stroke-width="4" fill="none"/><path d="M1563.05 1242H1561v-4h2.05zM1543.05 622h-2.1l.05-2v-2h2.05z" fill="#0c7cba"/><path d="M1231.33 777v-37H1440v-37" stroke="#0c7cba" stroke-width="4" fill="none"/><path d="M1233.33 779h-4v-2.05h4zM1442 703.05h-4V701h4z" fill="#0c7cba"/><path d="M790 119.92L950 100v120H790z" stroke="#000" stroke-width="2" fill="#ffeca9"/><use xlink:href="#n" transform="matrix(1,0,0,1,795,125) translate(-2.5925925925926094 58.333333333333336)"/><path d="M20 935h220v200H20z" stroke="#000" stroke-opacity="0" stroke-width="2" fill="#fff" fill-opacity="0"/><use xlink:href="#o" transform="matrix(1,0,0,1,25,940) translate(40.37037037037037 107.05208333333334)"/><path d="M1251.95 328c0 6.63-47.44 12-105.97 12S1040 334.63 1040 328v-96c0-6.63 47.45-12 105.98-12s105.97 5.37 105.97 12z" stroke="#000" stroke-width="2" fill="#ffeca9"/><path d="M1251.95 232c0 6.63-47.44 12-105.97 12S1040 238.63 1040 232" stroke="#000" stroke-width="2" fill="none"/><path d="M1521 888c0 6.63-26.86 12-60 12s-60-5.37-60-12v-96c0-6.63 26.86-12 60-12s60 5.37 60 12z" stroke="#000" stroke-width="2" fill="#e5e5e5"/><path d="M1521 792c0 6.63-26.86 12-60 12s-60-5.37-60-12" stroke="#000" stroke-width="2" fill="none"/><path d="M1399 840h-77" stroke="#999" stroke-width="2" fill="none"/><path d="M1400 841h-1.03v-2h1.03zM1322.03 841H1321v-2h1.03z" fill="#999"/><path d="M1038 280h-18v85h-18" stroke="#999" stroke-width="2" fill="none"/><path d="M1039 281h-1.02v-2h1.02zM1002.03 366H1001v-2h1.03z" fill="#999"/><path d="M490 668c0 6.63-26.86 12-60 12s-60-5.37-60-12v-96c0-6.63 26.86-12 60-12s60 5.37 60 12z" stroke="#000" stroke-width="2" fill="#ffeca9"/><path d="M490 572c0 6.63-26.86 12-60 12s-60-5.37-60-12" stroke="#000" stroke-width="2" fill="none"/><path d="M492 620h46" stroke="#999" stroke-width="2" fill="none"/><path d="M492.03 621H491v-2h1.03zM539 621h-1.03v-2H539z" fill="#999"/><path d="M1521 1088c0 6.63-26.86 12-60 12s-60-5.37-60-12v-96c0-6.63 26.86-12 60-12s60 5.37 60 12z" stroke="#000" stroke-width="2" fill="#ffeca9"/><path d="M1521 992c0 6.63-26.86 12-60 12s-60-5.37-60-12" stroke="#000" stroke-width="2" fill="none"/><path d="M1399 1040h-77" stroke="#999" stroke-width="2" fill="none"/><path d="M1400 1041h-1.03v-2h1.03zM1322.03 1041H1321v-2h1.03z" fill="#999"/><path d="M370 1088c0 6.63-26.86 12-60 12s-60-5.37-60-12v-96c0-6.63 26.86-12 60-12s60 5.37 60 12z" stroke="#000" stroke-width="2" fill="#ffeca9"/><path d="M370 992c0 6.63-26.86 12-60 12s-60-5.37-60-12" stroke="#000" stroke-width="2" fill="none"/><path d="M372 1040h86" stroke="#999" stroke-width="2" fill="none"/><path d="M372.03 1041H371v-2h1.03zM459 1041h-1.03v-2H459z" fill="#999"/><path d="M600 100h140c11.05 0 20 26.86 20 60s-8.95 60-20 60H600l-40-60z" stroke="#000" stroke-width="2" fill="#e5e5e5"/><use xlink:href="#p" transform="matrix(1,0,0,1,565,105) translate(70.39388888888888 38.875)"/><use xlink:href="#q" transform="matrix(1,0,0,1,565,105) translate(36.06055555555557 86.875)"/><path d="M160 305h440v120H160z" stroke="#000" stroke-width="2" fill="#ffeca9"/><path d="M204 305v120m352-120v120" stroke="#000" stroke-width="2" fill="none"/><use xlink:href="#r" transform="matrix(1,0,0,1,220,310) translate(2.685185185185162 68.33333333333334)"/><path d="M640.43 366.5H602.5v-3h37.93zm77.95 0h-18.8v-3h18.8z"/><path d="M602.54 366.5H601v-3h1.54zM734.15 365l-14.27 4.64v-9.28z"/><path d="M739 365l-20.62 6.7v-13.4zm-17.62 2.57l7.9-2.57-7.9-2.57z"/><use xlink:href="#d" transform="matrix(1,0,0,1,640.4320987654321,351.6666666666667) translate(0 17.77777777777778)"/><path d="M558.36 264H381.5v19.38h-3V261h179.86zm103.14 0h-45.3v-3h42.3v-19.38h3zM664.64 240.12h-9.28l4.64-14.27z"/><path d="M666.7 241.62h-13.4L660 221zm-9.27-3h5.14l-2.57-7.9zM380 299.15l-4.64-14.27h9.28z"/><path d="M380 304l-6.7-20.62h13.4zm-2.57-17.62l2.57 7.9 2.57-7.9z"/><use xlink:href="#s" transform="matrix(1,0,0,1,558.3627581243427,249.16666666666666) translate(0 17.77777777777778)"/><path d="M862.5 1041.5h-20.88v-3h17.88V750h3zm0-318.17h-3V619.5h-17.88v-3h20.88zM840.12 622.64L825.85 618l14.27-4.64z"/><path d="M841.62 624.7L821 618l20.62-6.7zm-10.9-6.7l7.9 2.57v-5.14zM840.12 1044.64l-14.27-4.64 14.27-4.64z"/><path d="M841.62 1046.7L821 1040l20.62-6.7zm-10.9-6.7l7.9 2.57v-5.14z"/><use xlink:href="#e" transform="matrix(1,0,0,1,828.3148148148148,723.3333333333333) translate(0 17.77777777777778)"/><path d="M910.5 1038.5h27.88v3H907.5v-97.86h3zm17.88-417H910.5v295.48h-3V618.5h20.88zM944.15 620l-14.27 4.64v-9.28z"/><path d="M949 620l-20.62 6.7v-13.4zm-17.62 2.57l7.9-2.57-7.9-2.57zM954.15 1040l-14.27 4.64v-9.28z"/><path d="M959 1040l-20.62 6.7v-13.4zm-17.62 2.57l7.9-2.57-7.9-2.57z"/><use xlink:href="#e" transform="matrix(1,0,0,1,876.3148148148148,916.9776625017664) translate(0 17.77777777777778)"/><path d="M310 1102v76" stroke="#000" stroke-width="2" fill="none"/><path d="M310 1101l1-.03v1.06h-2v-1.07zM311 1179h-2v-1.03h2z"/><path d="M1461 1102v76" stroke="#000" stroke-width="2" fill="none"/><path d="M1461 1101l1-.03v1.06h-2v-1.07zM1462 1179h-2v-1.03h2zM1306.5 595.5h-54.88v-3h51.88v-63.25h3zm51.88-156.17h-51.88v63.25h-3v-66.25h54.88zM1250.12 598.64l-14.27-4.64 14.27-4.64z"/><path d="M1251.62 600.7L1231 594l20.62-6.7zm-10.9-6.7l7.9 2.57v-5.14zM1374.15 437.83l-14.27 4.64v-9.27z"/><path d="M1379 437.83l-20.62 6.7v-13.4zm-17.62 2.57l7.9-2.57-7.9-2.57z"/><use xlink:href="#d" transform="matrix(1,0,0,1,1275.432098765432,502.5833333333333) translate(0 17.77777777777778)"/><path d="M1311.5 388.5h46.88v3h-49.88v-69.07h3zm0-92.74h-3V184.83H971.62v-3h339.88zM970.12 187.97l-14.27-4.64 14.27-4.63z"/><path d="M971.62 190.03l-20.62-6.7 20.62-6.7zm-10.9-6.7l7.9 2.57v-5.14zM1374.15 390l-14.27 4.64v-9.28z"/><path d="M1379 390l-20.62 6.7v-13.4zm-17.62 2.57l7.9-2.57-7.9-2.57z"/><use xlink:href="#d" transform="matrix(1,0,0,1,1280.432098765432,295.7618006196464) translate(0 17.77777777777778)"/><path d="M20 0h220v200H20z" stroke="#000" stroke-opacity="0" stroke-width="2" fill="#fff" fill-opacity="0"/><use xlink:href="#t" transform="matrix(1,0,0,1,25,5) translate(13.703703703703695 107.05208333333334)"/><path d="M20 460h260v120H20z" stroke="#000" stroke-width="2" fill="#ffeca9"/><path d="M46 460v120m208-120v120" stroke="#000" stroke-width="2" fill="none"/><use xlink:href="#u" transform="matrix(1,0,0,1,57.5,465) translate(9.166666666666671 68.33333333333334)"/><path d="M160 728c0 6.63-26.86 12-60 12s-60-5.37-60-12v-96c0-6.63 26.86-12 60-12s60 5.37 60 12z" stroke="#000" stroke-width="2" fill="#ffeca9"/><path d="M160 632c0 6.63-26.86 12-60 12s-60-5.37-60-12" stroke="#000" stroke-width="2" fill="none"/><path d="M383.58 535H299.5v-2h84.08zM720.5 404.34H661V535H442.43v-2H659V402.34h61.5zM735.76 403.33l-14.26 4.64v-9.27z"/><path d="M739 403.33l-18.5 6.02v-12.03zm-16.5 3.26l10.03-3.27-10.03-3.26zM298.5 538.64L284.24 534l14.26-4.63z"/><path d="M299.5 540.02l-18.5-6 18.5-6.02zm-12.03-6l10.03 3.25v-6.52z"/><use xlink:href="#v" transform="matrix(1,0,0,1,383.57866428130643,523.2076377523186) translate(0 14.4)"/><path d="M381 506h-81.5v-2H379v-77h2z"/><path d="M381 427.03h-2V426h2zM298.5 509.63L284.24 505l14.26-4.64z"/><path d="M299.5 511l-18.5-6 18.5-6.02zm-12.03-6l10.03 3.25v-6.52z"/><path d="M100 582v36" stroke="#000" stroke-width="2" fill="none"/><path d="M101 582.03h-2V581h2zM101 619.04l-1-.04-1 .03v-1.06h2z"/><path d="M213.76 599.5V721h386.9v-21.5" stroke="#000" stroke-width="2" fill="none"/><path d="M213.76 584.24l4.64 14.26h-9.27zM600.67 684.24l4.63 14.26h-9.27z" stroke="#000" stroke-width="2"/><path d="M825.67 291H631v230H299.5v-2H629V289h194.67v-49.5h2zM829.3 238.5h-9.27l4.64-14.26z"/><path d="M830.68 239.5h-12.03l6.02-18.5zm-9.27-2h6.53l-3.26-10.03zM298.5 524.64L284.24 520l14.26-4.64z"/><path d="M299.5 526l-18.5-6 18.5-6zm-12.03-6l10.03 3.26v-6.52z"/><path d="M62 780h308v137.5H62z" stroke="#000" stroke-width="2" fill="#e5e5e5"/><path d="M92.8 780v137.5M339.2 780v137.5" stroke="#000" stroke-width="2" fill="none"/><use xlink:href="#i" transform="matrix(1,0,0,1,105.5,785) translate(26.12962962962962 42.66666666666667)"/><use xlink:href="#w" transform="matrix(1,0,0,1,105.5,785) translate(34.94444444444443 106.66666666666667)"/><path d="M182 599.5v161" stroke="#000" stroke-width="2" fill="none"/><path d="M182 584.24l4.64 14.26h-9.28zM182 775.76l-4.64-14.26h9.28z" stroke="#000" stroke-width="2"/><path d="M10 130h240v60H10z" stroke="#000" stroke-opacity="0" stroke-width="2" fill="#fff" fill-opacity="0"/><use xlink:href="#x" transform="matrix(1,0,0,1,15,135) translate(7.574999999999989 17.525)"/><use xlink:href="#y" transform="matrix(1,0,0,1,15,135) translate(19.57499999999999 17.525)"/><use xlink:href="#z" transform="matrix(1,0,0,1,15,135) translate(71.52499999999999 17.525)"/><use xlink:href="#A" transform="matrix(1,0,0,1,15,135) translate(157.475 17.525)"/><use xlink:href="#B" transform="matrix(1,0,0,1,15,135) translate(40.125 39.125)"/><use xlink:href="#C" transform="matrix(1,0,0,1,15,135) translate(117.075 39.125)"/><use xlink:href="#D" transform="matrix(1,0,0,1,15,135) translate(143.025 39.125)"/><path d="M1228.67 508c0 6.63-26.87 12-60 12-33.14 0-60-5.37-60-12v-96c0-6.63 26.86-12 60-12 33.13 0 60 5.37 60 12z" stroke="#000" stroke-width="2" fill="#ffeca9"/><path d="M1228.67 412c0 6.63-26.87 12-60 12-33.14 0-60-5.37-60-12" stroke="#000" stroke-width="2" fill="none"/><path d="M1168.67 558v-36" stroke="#999" stroke-width="2" fill="none"/><path d="M1169.67 559h-2v-1.03h2zM1168.66 521l1-.03v1.06h-2v-1.07z" fill="#999"/><defs><path d="M232-93c-1 65-40 97-104 97C67 4 28-28 28-90v-158h33c8 89-33 224 67 224 102 0 64-133 71-224h33v155" id="E"/><path d="M33 0v-248h34V0H33" id="F"/><g id="a"><use transform="matrix(0.1851851851851852,0,0,0.1851851851851852,0,0)" xlink:href="#E"/><use transform="matrix(0.1851851851851852,0,0,0.1851851851851852,47.96296296296297,0)" xlink:href="#F"/></g><path d="M96-169c-40 0-48 33-48 73s9 75 48 75c24 0 41-14 43-38l32 2c-6 37-31 61-74 61-59 0-76-41-82-99-10-93 101-131 147-64 4 7 5 14 7 22l-32 3c-4-21-16-35-41-35" id="G"/><path d="M100-194c63 0 86 42 84 106H49c0 40 14 67 53 68 26 1 43-12 49-29l28 8c-11 28-37 45-77 45C44 4 14-33 15-96c1-61 26-98 85-98zm52 81c6-60-76-77-97-28-3 7-6 17-6 28h103" id="H"/><path d="M117-194c89-4 53 116 60 194h-32v-121c0-31-8-49-39-48C34-167 62-67 57 0H25l-1-190h30c1 10-1 24 2 32 11-22 29-35 61-36" id="I"/><path d="M59-47c-2 24 18 29 38 22v24C64 9 27 4 27-40v-127H5v-23h24l9-43h21v43h35v23H59v120" id="J"/><path d="M114-163C36-179 61-72 57 0H25l-1-190h30c1 12-1 29 2 39 6-27 23-49 58-41v29" id="K"/><path d="M141-36C126-15 110 5 73 4 37 3 15-17 15-53c-1-64 63-63 125-63 3-35-9-54-41-54-24 1-41 7-42 31l-33-3c5-37 33-52 76-52 45 0 72 20 72 64v82c-1 20 7 32 28 27v20c-31 9-61-2-59-35zM48-53c0 20 12 33 32 33 41-3 63-29 60-74-43 2-92-5-92 41" id="L"/><path d="M24 0v-261h32V0H24" id="M"/><g id="b"><use transform="matrix(0.1851851851851852,0,0,0.1851851851851852,0,0)" xlink:href="#G"/><use transform="matrix(0.1851851851851852,0,0,0.1851851851851852,33.333333333333336,0)" xlink:href="#H"/><use transform="matrix(0.1851851851851852,0,0,0.1851851851851852,70.37037037037038,0)" xlink:href="#I"/><use transform="matrix(0.1851851851851852,0,0,0.1851851851851852,107.40740740740742,0)" xlink:href="#J"/><use transform="matrix(0.1851851851851852,0,0,0.1851851851851852,125.92592592592594,0)" xlink:href="#K"/><use transform="matrix(0.1851851851851852,0,0,0.1851851851851852,147.962962962963,0)" xlink:href="#L"/><use transform="matrix(0.1851851851851852,0,0,0.1851851851851852,185.00000000000003,0)" xlink:href="#M"/></g><path d="M135-143c-3-34-86-38-87 0 15 53 115 12 119 90S17 21 10-45l28-5c4 36 97 45 98 0-10-56-113-15-118-90-4-57 82-63 122-42 12 7 21 19 24 35" id="N"/><path d="M24-231v-30h32v30H24zM24 0v-190h32V0H24" id="O"/><g id="c"><use transform="matrix(0.1851851851851852,0,0,0.1851851851851852,0,0)" xlink:href="#N"/><use transform="matrix(0.1851851851851852,0,0,0.1851851851851852,33.333333333333336,0)" xlink:href="#O"/><use transform="matrix(0.1851851851851852,0,0,0.1851851851851852,47.96296296296297,0)" xlink:href="#J"/><use transform="matrix(0.1851851851851852,0,0,0.1851851851851852,66.4814814814815,0)" xlink:href="#H"/></g><path d="M233-177c-1 41-23 64-60 70L243 0h-38l-65-103H63V0H30v-248c88 3 205-21 203 71zM63-129c60-2 137 13 137-47 0-61-80-42-137-45v92" id="P"/><path d="M30 0v-248h187v28H63v79h144v27H63v87h162V0H30" id="Q"/><path d="M185-189c-5-48-123-54-124 2 14 75 158 14 163 119 3 78-121 87-175 55-17-10-28-26-33-46l33-7c5 56 141 63 141-1 0-78-155-14-162-118-5-82 145-84 179-34 5 7 8 16 11 25" id="R"/><path d="M127-220V0H93v-220H8v-28h204v28h-85" id="S"/><g id="d"><use transform="matrix(0.06172839506172839,0,0,0.06172839506172839,0,0)" xlink:href="#P"/><use transform="matrix(0.06172839506172839,0,0,0.06172839506172839,15.987654320987653,0)" xlink:href="#Q"/><use transform="matrix(0.06172839506172839,0,0,0.06172839506172839,30.80246913580247,0)" xlink:href="#R"/><use transform="matrix(0.06172839506172839,0,0,0.06172839506172839,45.61728395061728,0)" xlink:href="#S"/></g><path d="M205 0l-28-72H64L36 0H1l101-248h38L239 0h-34zm-38-99l-47-123c-12 45-31 82-46 123h93" id="T"/><path d="M240 0l2-218c-23 76-54 145-80 218h-23L58-218 59 0H30v-248h44l77 211c21-75 51-140 76-211h43V0h-30" id="U"/><path d="M140-251c81 0 123 46 123 126C263-53 228-8 163 1c7 30 30 48 69 40v23c-55 16-95-15-103-61C56-3 17-48 17-125c0-80 42-126 123-126zm0 227c63 0 89-41 89-101s-29-99-89-99c-61 0-89 39-89 99S79-25 140-24" id="V"/><path d="M30-248c87 1 191-15 191 75 0 78-77 80-158 76V0H30v-248zm33 125c57 0 124 11 124-50 0-59-68-47-124-48v98" id="W"/><g id="e"><use transform="matrix(0.06172839506172839,0,0,0.06172839506172839,0,0)" xlink:href="#T"/><use transform="matrix(0.06172839506172839,0,0,0.06172839506172839,14.814814814814813,0)" xlink:href="#U"/><use transform="matrix(0.06172839506172839,0,0,0.06172839506172839,33.2716049382716,0)" xlink:href="#V"/><use transform="matrix(0.06172839506172839,0,0,0.06172839506172839,50.55555555555555,0)" xlink:href="#W"/></g><path d="M190 0L58-211 59 0H30v-248h39L202-35l-2-213h31V0h-41" id="X"/><path d="M63-220v92h138v28H63V0H30v-248h175v28H63" id="Y"/><g id="f"><use transform="matrix(0.1851851851851852,0,0,0.1851851851851852,0,0)" xlink:href="#X"/><use transform="matrix(0.1851851851851852,0,0,0.1851851851851852,47.96296296296297,0)" xlink:href="#Y"/><use transform="matrix(0.1851851851851852,0,0,0.1851851851851852,88.51851851851853,0)" xlink:href="#R"/></g><g id="g"><use transform="matrix(0.1851851851851852,0,0,0.1851851851851852,0,0)" xlink:href="#X"/><use transform="matrix(0.1851851851851852,0,0,0.1851851851851852,47.96296296296297,0)" xlink:href="#Y"/><use transform="matrix(0.1851851851851852,0,0,0.1851851851851852,88.51851851851853,0)" xlink:href="#R"/></g><path d="M143 4C61 4 22-44 18-125c-5-107 100-154 193-111 17 8 29 25 37 43l-32 9c-13-25-37-40-76-40-61 0-88 39-88 99 0 61 29 100 91 101 35 0 62-11 79-27v-45h-74v-28h105v86C228-13 192 4 143 4" id="Z"/><path d="M85-194c31 0 48 13 60 33l-1-100h32l1 261h-30c-2-10 0-23-3-31C134-8 116 4 85 4 32 4 16-35 15-94c0-66 23-100 70-100zm9 24c-40 0-46 34-46 75 0 40 6 74 45 74 42 0 51-32 51-76 0-42-9-74-50-73" id="aa"/><g id="h"><use transform="matrix(0.06172839506172839,0,0,0.06172839506172839,0,0)" xlink:href="#Z"/><use transform="matrix(0.06172839506172839,0,0,0.06172839506172839,17.28395061728395,0)" xlink:href="#K"/><use transform="matrix(0.06172839506172839,0,0,0.06172839506172839,24.629629629629626,0)" xlink:href="#O"/><use transform="matrix(0.06172839506172839,0,0,0.06172839506172839,29.50617283950617,0)" xlink:href="#aa"/><use transform="matrix(0.06172839506172839,0,0,0.06172839506172839,41.85185185185185,0)" xlink:href="#Y"/><use transform="matrix(0.06172839506172839,0,0,0.06172839506172839,55.37037037037037,0)" xlink:href="#S"/><use transform="matrix(0.06172839506172839,0,0,0.06172839506172839,68.88888888888889,0)" xlink:href="#W"/></g><path d="M100-194c62-1 85 37 85 99 1 63-27 99-86 99S16-35 15-95c0-66 28-99 85-99zM99-20c44 1 53-31 53-75 0-43-8-75-51-75s-53 32-53 75 10 74 51 75" id="ab"/><path d="M115-194c53 0 69 39 70 98 0 66-23 100-70 100C84 3 66-7 56-30L54 0H23l1-261h32v101c10-23 28-34 59-34zm-8 174c40 0 45-34 45-75 0-40-5-75-45-74-42 0-51 32-51 76 0 43 10 73 51 73" id="ac"/><path d="M84 4C-5 8 30-112 23-190h32v120c0 31 7 50 39 49 72-2 45-101 50-169h31l1 190h-30c-1-10 1-25-2-33-11 22-28 36-60 37" id="ad"/><g id="i"><use transform="matrix(0.14814814814814817,0,0,0.14814814814814817,0,0)" xlink:href="#Z"/><use transform="matrix(0.14814814814814817,0,0,0.14814814814814817,41.48148148148149,0)" xlink:href="#M"/><use transform="matrix(0.14814814814814817,0,0,0.14814814814814817,53.18518518518519,0)" xlink:href="#ab"/><use transform="matrix(0.14814814814814817,0,0,0.14814814814814817,82.81481481481482,0)" xlink:href="#ac"/><use transform="matrix(0.14814814814814817,0,0,0.14814814814814817,112.44444444444446,0)" xlink:href="#ad"/><use transform="matrix(0.14814814814814817,0,0,0.14814814814814817,142.07407407407408,0)" xlink:href="#N"/></g><path d="M101-234c-31-9-42 10-38 44h38v23H63V0H32v-167H5v-23h27c-7-52 17-82 69-68v24" id="ae"/><g id="j"><use transform="matrix(0.14814814814814817,0,0,0.14814814814814817,0,0)" xlink:href="#S"/><use transform="matrix(0.14814814814814817,0,0,0.14814814814814817,30.518518518518523,0)" xlink:href="#K"/><use transform="matrix(0.14814814814814817,0,0,0.14814814814814817,48.14814814814815,0)" xlink:href="#L"/><use transform="matrix(0.14814814814814817,0,0,0.14814814814814817,77.77777777777779,0)" xlink:href="#I"/><use transform="matrix(0.14814814814814817,0,0,0.14814814814814817,107.40740740740742,0)" xlink:href="#N"/><use transform="matrix(0.14814814814814817,0,0,0.14814814814814817,134.07407407407408,0)" xlink:href="#ae"/><use transform="matrix(0.14814814814814817,0,0,0.14814814814814817,148.88888888888889,0)" xlink:href="#H"/><use transform="matrix(0.14814814814814817,0,0,0.14814814814814817,178.51851851851853,0)" xlink:href="#K"/></g><path d="M212-179c-10-28-35-45-73-45-59 0-87 40-87 99 0 60 29 101 89 101 43 0 62-24 78-52l27 14C228-24 195 4 139 4 59 4 22-46 18-125c-6-104 99-153 187-111 19 9 31 26 39 46" id="af"/><path d="M210-169c-67 3-38 105-44 169h-31v-121c0-29-5-50-35-48C34-165 62-65 56 0H25l-1-190h30c1 10-1 24 2 32 10-44 99-50 107 0 11-21 27-35 58-36 85-2 47 119 55 194h-31v-121c0-29-5-49-35-48" id="ag"/><path d="M206 0h-36l-40-164L89 0H53L-1-190h32L70-26l43-164h34l41 164 42-164h31" id="ah"/><g id="k"><use transform="matrix(0.1851851851851852,0,0,0.1851851851851852,0,0)" xlink:href="#af"/><use transform="matrix(0.1851851851851852,0,0,0.1851851851851852,47.96296296296297,0)" xlink:href="#K"/><use transform="matrix(0.1851851851851852,0,0,0.1851851851851852,70,0)" xlink:href="#ab"/><use transform="matrix(0.1851851851851852,0,0,0.1851851851851852,107.03703703703705,0)" xlink:href="#ag"/><use transform="matrix(0.1851851851851852,0,0,0.1851851851851852,162.40740740740742,0)" xlink:href="#ah"/><use transform="matrix(0.1851851851851852,0,0,0.1851851851851852,210.37037037037038,0)" xlink:href="#H"/><use transform="matrix(0.1851851851851852,0,0,0.1851851851851852,247.40740740740742,0)" xlink:href="#M"/><use transform="matrix(0.1851851851851852,0,0,0.1851851851851852,262.03703703703707,0)" xlink:href="#M"/></g><path d="M177-190C167-65 218 103 67 71c-23-6-38-20-44-43l32-5c15 47 100 32 89-28v-30C133-14 115 1 83 1 29 1 15-40 15-95c0-56 16-97 71-98 29-1 48 16 59 35 1-10 0-23 2-32h30zM94-22c36 0 50-32 50-73 0-42-14-75-50-75-39 0-46 34-46 75s6 73 46 73" id="ai"/><g id="l"><use transform="matrix(0.1851851851851852,0,0,0.1851851851851852,0,0)" xlink:href="#ag"/><use transform="matrix(0.1851851851851852,0,0,0.1851851851851852,55.370370370370374,0)" xlink:href="#L"/><use transform="matrix(0.1851851851851852,0,0,0.1851851851851852,92.40740740740742,0)" xlink:href="#I"/><use transform="matrix(0.1851851851851852,0,0,0.1851851851851852,129.44444444444446,0)" xlink:href="#L"/><use transform="matrix(0.1851851851851852,0,0,0.1851851851851852,166.4814814814815,0)" xlink:href="#ai"/><use transform="matrix(0.1851851851851852,0,0,0.1851851851851852,203.51851851851853,0)" xlink:href="#H"/><use transform="matrix(0.1851851851851852,0,0,0.1851851851851852,240.55555555555557,0)" xlink:href="#K"/></g><path d="M143 0L79-87 56-68V0H24v-261h32v163l83-92h37l-77 82L181 0h-38" id="aj"/><g id="m"><use transform="matrix(0.1851851851851852,0,0,0.1851851851851852,0,0)" xlink:href="#ah"/><use transform="matrix(0.1851851851851852,0,0,0.1851851851851852,47.96296296296297,0)" xlink:href="#ab"/><use transform="matrix(0.1851851851851852,0,0,0.1851851851851852,85,0)" xlink:href="#K"/><use transform="matrix(0.1851851851851852,0,0,0.1851851851851852,107.03703703703705,0)" xlink:href="#aj"/><use transform="matrix(0.1851851851851852,0,0,0.1851851851851852,140.37037037037038,0)" xlink:href="#H"/><use transform="matrix(0.1851851851851852,0,0,0.1851851851851852,177.40740740740742,0)" xlink:href="#K"/></g><g id="n"><use transform="matrix(0.1851851851851852,0,0,0.1851851851851852,0,0)" xlink:href="#G"/><use transform="matrix(0.1851851851851852,0,0,0.1851851851851852,33.333333333333336,0)" xlink:href="#M"/><use transform="matrix(0.1851851851851852,0,0,0.1851851851851852,47.96296296296297,0)" xlink:href="#O"/><use transform="matrix(0.1851851851851852,0,0,0.1851851851851852,62.592592592592595,0)" xlink:href="#H"/><use transform="matrix(0.1851851851851852,0,0,0.1851851851851852,99.62962962962963,0)" xlink:href="#I"/><use transform="matrix(0.1851851851851852,0,0,0.1851851851851852,136.66666666666669,0)" xlink:href="#J"/></g><path d="M153-248C145-148 188 4 80 4 36 3 13-21 6-62l32-5c4 25 16 42 43 43 27 0 39-20 39-49v-147H72v-28h81" id="ak"/><g id="o"><use transform="matrix(0.1851851851851852,0,0,0.1851851851851852,0,0)" xlink:href="#ak"/><use transform="matrix(0.1851851851851852,0,0,0.1851851851851852,33.333333333333336,0)" xlink:href="#S"/><use transform="matrix(0.1851851851851852,0,0,0.1851851851851852,73.88888888888889,0)" xlink:href="#U"/></g><g id="p"><use transform="matrix(0.1111111111111111,0,0,0.1111111111111111,0,0)" xlink:href="#ah"/><use transform="matrix(0.1111111111111111,0,0,0.1111111111111111,28.777777777777775,0)" xlink:href="#H"/><use transform="matrix(0.1111111111111111,0,0,0.1111111111111111,51,0)" xlink:href="#ac"/></g><g id="q"><use transform="matrix(0.1111111111111111,0,0,0.1111111111111111,0,0)" xlink:href="#ac"/><use transform="matrix(0.1111111111111111,0,0,0.1111111111111111,22.22222222222222,0)" xlink:href="#K"/><use transform="matrix(0.1111111111111111,0,0,0.1111111111111111,35.44444444444444,0)" xlink:href="#ab"/><use transform="matrix(0.1111111111111111,0,0,0.1111111111111111,57.666666666666664,0)" xlink:href="#ah"/><use transform="matrix(0.1111111111111111,0,0,0.1111111111111111,86.44444444444444,0)" xlink:href="#N"/><use transform="matrix(0.1111111111111111,0,0,0.1111111111111111,106.44444444444444,0)" xlink:href="#H"/><use transform="matrix(0.1111111111111111,0,0,0.1111111111111111,128.66666666666666,0)" xlink:href="#K"/></g><path d="M106-169C34-169 62-67 57 0H25v-261h32l-1 103c12-21 28-36 61-36 89 0 53 116 60 194h-32v-121c2-32-8-49-39-48" id="al"/><g id="r"><use transform="matrix(0.1851851851851852,0,0,0.1851851851851852,0,0)" xlink:href="#aa"/><use transform="matrix(0.1851851851851852,0,0,0.1851851851851852,37.03703703703704,0)" xlink:href="#L"/><use transform="matrix(0.1851851851851852,0,0,0.1851851851851852,74.07407407407408,0)" xlink:href="#N"/><use transform="matrix(0.1851851851851852,0,0,0.1851851851851852,107.40740740740742,0)" xlink:href="#al"/><use transform="matrix(0.1851851851851852,0,0,0.1851851851851852,144.44444444444446,0)" xlink:href="#ac"/><use transform="matrix(0.1851851851851852,0,0,0.1851851851851852,181.4814814814815,0)" xlink:href="#ab"/><use transform="matrix(0.1851851851851852,0,0,0.1851851851851852,218.51851851851853,0)" xlink:href="#L"/><use transform="matrix(0.1851851851851852,0,0,0.1851851851851852,255.55555555555557,0)" xlink:href="#K"/><use transform="matrix(0.1851851851851852,0,0,0.1851851851851852,277.5925925925926,0)" xlink:href="#aa"/></g><path d="M197 0v-115H63V0H30v-248h33v105h134v-105h34V0h-34" id="am"/><g id="s"><use transform="matrix(0.06172839506172839,0,0,0.06172839506172839,0,0)" xlink:href="#am"/><use transform="matrix(0.06172839506172839,0,0,0.06172839506172839,15.987654320987653,0)" xlink:href="#S"/><use transform="matrix(0.06172839506172839,0,0,0.06172839506172839,29.50617283950617,0)" xlink:href="#S"/><use transform="matrix(0.06172839506172839,0,0,0.06172839506172839,43.02469135802469,0)" xlink:href="#W"/></g><path d="M266 0h-40l-56-210L115 0H75L2-248h35L96-30l15-64 43-154h32l59 218 59-218h35" id="an"/><g id="t"><use transform="matrix(0.1851851851851852,0,0,0.1851851851851852,0,0)" xlink:href="#ak"/><use transform="matrix(0.1851851851851852,0,0,0.1851851851851852,33.333333333333336,0)" xlink:href="#T"/><use transform="matrix(0.1851851851851852,0,0,0.1851851851851852,75.37037037037038,0)" xlink:href="#an"/><use transform="matrix(0.1851851851851852,0,0,0.1851851851851852,138.14814814814815,0)" xlink:href="#R"/></g><g id="u"><use transform="matrix(0.1851851851851852,0,0,0.1851851851851852,0,0)" xlink:href="#ab"/><use transform="matrix(0.1851851851851852,0,0,0.1851851851851852,37.03703703703704,0)" xlink:href="#L"/><use transform="matrix(0.1851851851851852,0,0,0.1851851851851852,74.07407407407408,0)" xlink:href="#ad"/><use transform="matrix(0.1851851851851852,0,0,0.1851851851851852,111.11111111111113,0)" xlink:href="#J"/><use transform="matrix(0.1851851851851852,0,0,0.1851851851851852,129.62962962962962,0)" xlink:href="#al"/></g><g id="v"><use transform="matrix(0.05,0,0,0.05,0,0)" xlink:href="#am"/><use transform="matrix(0.05,0,0,0.05,12.950000000000001,0)" xlink:href="#S"/><use transform="matrix(0.05,0,0,0.05,23.900000000000002,0)" xlink:href="#S"/><use transform="matrix(0.05,0,0,0.05,34.85,0)" xlink:href="#W"/><use transform="matrix(0.05,0,0,0.05,46.85,0)" xlink:href="#R"/></g><path d="M140-251c81 0 123 46 123 126C263-46 219 4 140 4 59 4 17-45 17-125s42-126 123-126zm0 227c63 0 89-41 89-101s-29-99-89-99c-61 0-89 39-89 99S79-25 140-24" id="ao"/><g id="w"><use transform="matrix(0.14814814814814817,0,0,0.14814814814814817,0,0)" xlink:href="#ao"/><use transform="matrix(0.14814814814814817,0,0,0.14814814814814817,41.48148148148149,0)" xlink:href="#T"/><use transform="matrix(0.14814814814814817,0,0,0.14814814814814817,77.03703703703702,0)" xlink:href="#ad"/><use transform="matrix(0.14814814814814817,0,0,0.14814814814814817,106.66666666666666,0)" xlink:href="#J"/><use transform="matrix(0.14814814814814817,0,0,0.14814814814814817,121.4814814814815,0)" xlink:href="#al"/></g><path d="M80-196l47-18 7 23-49 13 32 44-20 13-27-46-27 45-21-12 33-44-49-13 8-23 47 19-2-53h23" id="ap"/><use transform="matrix(0.05,0,0,0.05,0,0)" xlink:href="#ap" id="x"/><g id="y"><use transform="matrix(0.05,0,0,0.05,0,0)" xlink:href="#R"/><use transform="matrix(0.05,0,0,0.05,12,0)" xlink:href="#ab"/><use transform="matrix(0.05,0,0,0.05,22,0)" xlink:href="#ag"/><use transform="matrix(0.05,0,0,0.05,36.95,0)" xlink:href="#H"/></g><g id="z"><use transform="matrix(0.05,0,0,0.05,0,0)" xlink:href="#K"/><use transform="matrix(0.05,0,0,0.05,5.95,0)" xlink:href="#H"/><use transform="matrix(0.05,0,0,0.05,15.949999999999998,0)" xlink:href="#aa"/><use transform="matrix(0.05,0,0,0.05,25.950000000000003,0)" xlink:href="#ad"/><use transform="matrix(0.05,0,0,0.05,35.95,0)" xlink:href="#I"/><use transform="matrix(0.05,0,0,0.05,45.95,0)" xlink:href="#aa"/><use transform="matrix(0.05,0,0,0.05,55.95,0)" xlink:href="#L"/><use transform="matrix(0.05,0,0,0.05,65.95,0)" xlink:href="#I"/><use transform="matrix(0.05,0,0,0.05,75.95,0)" xlink:href="#J"/></g><g id="A"><use transform="matrix(0.05,0,0,0.05,0,0)" xlink:href="#ae"/><use transform="matrix(0.05,0,0,0.05,5,0)" xlink:href="#H"/><use transform="matrix(0.05,0,0,0.05,15,0)" xlink:href="#L"/><use transform="matrix(0.05,0,0,0.05,25,0)" xlink:href="#J"/><use transform="matrix(0.05,0,0,0.05,30,0)" xlink:href="#ad"/><use transform="matrix(0.05,0,0,0.05,40,0)" xlink:href="#K"/><use transform="matrix(0.05,0,0,0.05,45.95,0)" xlink:href="#H"/><use transform="matrix(0.05,0,0,0.05,55.95,0)" xlink:href="#N"/></g><path d="M141 0L90-78 38 0H4l68-98-65-92h35l48 74 47-74h35l-64 92 68 98h-35" id="aq"/><g id="B"><use transform="matrix(0.05,0,0,0.05,0,0)" xlink:href="#H"/><use transform="matrix(0.05,0,0,0.05,10,0)" xlink:href="#aq"/><use transform="matrix(0.05,0,0,0.05,19,0)" xlink:href="#G"/><use transform="matrix(0.05,0,0,0.05,28,0)" xlink:href="#M"/><use transform="matrix(0.05,0,0,0.05,31.950000000000003,0)" xlink:href="#ad"/><use transform="matrix(0.05,0,0,0.05,41.95,0)" xlink:href="#aa"/><use transform="matrix(0.05,0,0,0.05,51.95,0)" xlink:href="#H"/><use transform="matrix(0.05,0,0,0.05,61.95,0)" xlink:href="#aa"/></g><g id="C"><use transform="matrix(0.05,0,0,0.05,0,0)" xlink:href="#ae"/><use transform="matrix(0.05,0,0,0.05,5,0)" xlink:href="#ab"/><use transform="matrix(0.05,0,0,0.05,15,0)" xlink:href="#K"/></g><path d="M179-190L93 31C79 59 56 82 12 73V49c39 6 53-20 64-50L1-190h34L92-34l54-156h33" id="ar"/><g id="D"><use transform="matrix(0.05,0,0,0.05,0,0)" xlink:href="#G"/><use transform="matrix(0.05,0,0,0.05,9,0)" xlink:href="#M"/><use transform="matrix(0.05,0,0,0.05,12.949999999999998,0)" xlink:href="#L"/><use transform="matrix(0.05,0,0,0.05,22.95,0)" xlink:href="#K"/><use transform="matrix(0.05,0,0,0.05,28.899999999999995,0)" xlink:href="#O"/><use transform="matrix(0.05,0,0,0.05,32.85,0)" xlink:href="#J"/><use transform="matrix(0.05,0,0,0.05,37.85,0)" xlink:href="#ar"/></g></defs></g></svg>