<?xml version="1.0" encoding="UTF-8" standalone="no"?>
<svg
   xmlns:lucid="lucid"
   xmlns:dc="http://purl.org/dc/elements/1.1/"
   xmlns:cc="http://creativecommons.org/ns#"
   xmlns:rdf="http://www.w3.org/1999/02/22-rdf-syntax-ns#"
   xmlns:svg="http://www.w3.org/2000/svg"
   xmlns="http://www.w3.org/2000/svg"
   xmlns:xlink="http://www.w3.org/1999/xlink"
   xmlns:sodipodi="http://sodipodi.sourceforge.net/DTD/sodipodi-0.dtd"
   xmlns:inkscape="http://www.inkscape.org/namespaces/inkscape"
   width="1381.5"
   height="742"
   version="1.1"
   id="svg1267"
   sodipodi:docname="why_jaws.svg"
   inkscape:version="1.0.1 (c497b03c, 2020-09-10)">
  <metadata
     id="metadata1273">
    <rdf:RDF>
      <cc:Work
         rdf:about="">
        <dc:format>image/svg+xml</dc:format>
        <dc:type
           rdf:resource="http://purl.org/dc/dcmitype/StillImage" />
      </cc:Work>
    </rdf:RDF>
  </metadata>
  <defs
     id="defs1271" />
  <sodipodi:namedview
     pagecolor="#ffffff"
     bordercolor="#666666"
     borderopacity="1"
     objecttolerance="10"
     gridtolerance="10"
     guidetolerance="10"
     inkscape:pageopacity="0"
     inkscape:pageshadow="2"
     inkscape:window-width="1627"
     inkscape:window-height="790"
     id="namedview1269"
     showgrid="false"
     inkscape:zoom="0.79406442"
     inkscape:cx="631.56085"
     inkscape:cy="371"
     inkscape:window-x="95"
     inkscape:window-y="23"
     inkscape:window-maximized="0"
     inkscape:current-layer="g1265" />
  <g
     transform="translate(0 0)"
     lucid:page-tab-id="0_0"
     id="g1265">
    <path
       d="M941.5 400c0-11.05 8.95-20 20-20h380c11.05 0 20 8.95 20 20v280c0 11.05-8.95 20-20 20h-380c-11.05 0-20-8.95-20-20z"
       stroke="#000"
       stroke-width="2"
       fill="#ff8f80"
       id="path833" />
    <path
       d="M20 40c0-11.05 8.95-20 20-20h380c11.05 0 20 8.95 20 20v280c0 11.05-8.95 20-20 20H40c-11.05 0-20-8.95-20-20z"
       stroke="#000"
       stroke-width="2"
       fill="#b2d6ef"
       id="path835" />
    <path
       d="M291.1 130.2c9.87-7.92 9.87-20.88 0-28.8l-43.3-35.46c-9.85-7.92-25.75-7.92-35.6 0l-43.3 35.46c-9.87 7.92-9.87 20.88 0 28.8l38.08 31.14v59.94L230 240l20-16.2v-.18l11.65-9.54-11.65-9.54 11.65-9.36-11.65-9.54 11.65-9.36-11.65-9.54v-2.88l41.1-33.66zM230 74.58c7.95-.18 14.38 5.04 14.52 11.34.14 6.48-6.16 11.7-13.97 11.88H230c-7.95-.18-14.1-5.4-13.97-11.88.13-6.3 6.3-11.34 13.97-11.34z"
       stroke="#000"
       stroke-opacity="0"
       stroke-width="3"
       fill="#fcd116"
       id="path837" />
    <path
       d="M217.74 218.25l8.97 7.2v-57.42l-8.96-3.6z"
       stroke="#000"
       stroke-opacity="0"
       stroke-width="3"
       fill="#ff8c00"
       fill-opacity=".4"
       id="path839" />
    <path
       d="M187.43 109.02h82.37v9.65h-82.37zm0 15.68h82.37v9.65h-82.37z"
       stroke="#000"
       stroke-opacity="0"
       stroke-width="3"
       fill="#fff"
       fill-opacity=".5"
       id="path841" />
    <use
       xlink:href="#a"
       transform="matrix(1,0,0,1,131.5,249) translate(40.685185185185176 24.888888888888893)"
       id="use843" />
    <path
       d="M20 260h420v122H20z"
       stroke="#000"
       stroke-opacity="0"
       stroke-width="2"
       fill="#fff"
       fill-opacity="0"
       id="path845" />
    <use
       xlink:href="#b"
       transform="matrix(1,0,0,1,25,265) translate(51.38888888888886 42.54513888888889)"
       id="use847" />
    <use
       xlink:href="#c"
       transform="matrix(1,0,0,1,25,265) translate(85.95679012345676 42.54513888888889)"
       id="use849" />
    <use
       xlink:href="#d"
       transform="matrix(1,0,0,1,25,265) translate(168.66049382716048 42.54513888888889)"
       id="use851" />
    <use
       xlink:href="#e"
       transform="matrix(1,0,0,1,25,265) translate(248.08024691358025 42.54513888888889)"
       id="use853" />
    <use
       xlink:href="#f"
       transform="matrix(1,0,0,1,25,265) translate(308.5740740740741 42.54513888888889)"
       id="use855" />
    <use
       xlink:href="#g"
       transform="matrix(1,0,0,1,25,265) translate(205 79.87847222222223)"
       id="use857" />
    <path
       d="M481.5 40c0-11.05 8.95-20 20-20h380c11.05 0 20 8.95 20 20v280c0 11.05-8.95 20-20 20h-380c-11.05 0-20-8.95-20-20z"
       stroke="#000"
       stroke-width="2"
       fill="#c7e8ac"
       id="path859" />
    <path
       d="M481.5 240h420v122h-420z"
       stroke="#000"
       stroke-opacity="0"
       stroke-width="2"
       fill="#fff"
       fill-opacity="0"
       id="path861" />
    <use
       xlink:href="#h"
       transform="matrix(1,0,0,1,486.5,245) translate(144.679012345679 63.73263888888889)"
       id="use863" />
    <path
       d="M689.55 168.5v-17.66c0-1.78-1.25-3.17-2.83-3.17h-12.07c-.58 0-1.08-.3-1.4-.7-.34-.4-.6-1-.6-1.68 0-.6.26-1.2.67-1.8l20.05-23.5c.34-.4.75-.6 1.34-.6-4.4-21.04-19.96-37-39.02-38-24.8-1.4-45.26 22.72-44.1 51.78 1 26.6 19.97 47.32 42.6 47.32h35.45v-12z"
       stroke="#000"
       stroke-opacity="0"
       stroke-width=".37"
       fill="#45add2"
       id="path865" />
    <path
       d="M713.58 190.86v-10.44h16.28c22.92 0 41.64-21.06 41.64-46.8 0-24.84-17.4-45.18-39.2-46.26C724.1 70.44 708.48 60 691 60c-11.53 0-22.16 4.68-30.25 12.6 10.4 1.98 20.05 7.56 27.7 16.56 8.85 10.62 14.05 24.3 14.72 38.88l13.18 15.48c.33.36.55 1.08.55 1.62 0 .72-.22 1.26-.66 1.8-.34.36-.9.72-1.33.72h-11.73v60.84c0 1.8-1.22 3.24-2.88 3.24h.1-12.07c-.56 0-1 .36-1.44.72-.34.54-.57 1.08-.57 1.62 0 .72.23 1.26.56 1.8l20.14 23.4c.34.54.78.72 1.44.72.56 0 1-.18 1.44-.72l19.94-23.4c.44-.54.66-1.26.66-1.8 0-.72-.22-1.26-.55-1.62-.33-.54-.9-.72-1.44-.72h-12.07c-1.55 0-2.77-1.44-2.77-3.24v-17.64z"
       stroke="#000"
       stroke-opacity="0"
       stroke-width=".37"
       fill="#2272b9"
       id="path867" />
    <path
       d="M689.54 180.5h-37.16s-36.36-1.08-40.66-47.64c0 0-1.28-32.45 23.92-46.33 0 0 3.5-3.83 16.27-5.4l8.78-8.5s40.02-34.7 71.6 14.74c0 0 31.9 1.3 38.75 40.46 0 0 2.7 25.38-14.5 41.18 0 0-9.74 10.66-26.32 11.14l-16.58.36z"
       stroke="#000"
       stroke-opacity="0"
       stroke-width="0"
       fill-opacity="0"
       id="path869" />
    <path
       d="M654.3 147.9h75.55c.16 0 .23.1.23.3v31.64c0 .2-.07.3-.23.3H654.3c-.15 0-.22-.1-.22-.3V148.2c0-.2.07-.3.22-.3z"
       stroke="#000"
       stroke-width="0"
       fill-opacity="0"
       id="path871" />
    <use
       xlink:href="#i"
       transform="matrix(1,0,0,1,581.5,249) translate(25.82716049382715 24.888888888888893)"
       id="use873" />
    <path
       d="M941.5 40c0-11.05 8.95-20 20-20h380c11.05 0 20 8.95 20 20v280c0 11.05-8.95 20-20 20h-380c-11.05 0-20-8.95-20-20z"
       stroke="#000"
       stroke-width="2"
       fill="#d1bcd2"
       id="path875" />
    <path
       d="M941.5 240h420v122h-420z"
       stroke="#000"
       stroke-opacity="0"
       stroke-width="2"
       fill="#fff"
       fill-opacity="0"
       id="path877" />
    <use
       xlink:href="#j"
       transform="matrix(1,0,0,1,946.5,245) translate(148.91358024691357 63.73263888888889)"
       id="use879" />
    <path
       d="M1168.78 240h-34.56c-1.08 0-1.98-.36-2.7-1.26-.72-.72-1.08-1.62-1.08-2.88l.72-10.98c-6.84-1.8-12.24-4.14-18.36-7.74l-7.2 8.46c-.72.9-1.8 1.26-2.88 1.26-1.08 0-1.98-.36-2.7-1.08l-24.3-24.12c-.72-.72-1.08-1.62-1.08-2.88 0-1.08.36-1.98 1.26-2.7l8.28-7.38c-3.42-6.12-5.58-11.7-7.38-18.36l-11.16.72c-2.16.18-3.96-1.44-4.14-3.6v-34.74c0-1.08.36-1.98 1.26-2.7.72-.72 1.62-1.08 2.88-1.08l11.16.72c1.8-6.66 4.14-12.24 7.74-18.18l-8.64-7.38c-.9-.72-1.26-1.8-1.26-2.88 0-1.08.36-2.16 1.08-2.88l24.12-24.12c.72-.72 1.62-1.08 2.88-1.08 1.08 0 1.98.36 2.7 1.26l7.38 8.28c6.12-3.42 11.7-5.58 18.36-7.38l-.72-11.16c0-1.26.36-2.16 1.08-2.88.72-.9 1.62-1.26 2.7-1.26h34.56c1.08 0 1.98.36 2.7 1.26.72.72 1.08 1.62 1.08 2.88l-.72 11.16c6.66 1.98 12.06 4.14 18.18 7.74l7.56-8.46c1.44-1.44 3.96-1.62 5.4-.18l.18.18 24.12 23.76c.72.72 1.08 1.62 1.08 2.88 0 1.08-.36 1.98-1.26 2.7l-8.28 7.38c3.42 6.12 5.76 11.52 7.56 18.18l11.16-.54c1.08-.18 1.98.18 2.88 1.08.72.72 1.08 1.62 1.08 2.7v34.56c0 1.08-.36 1.98-1.26 2.7-.72.72-1.62 1.08-2.88 1.08l-11.16-.72c-1.8 6.66-4.14 12.24-7.74 18.18l8.28 7.38c.9.72 1.26 1.8 1.44 2.88 0 1.08-.36 1.98-1.26 2.7l-23.76 24.3c-.72.72-1.62 1.08-2.88 1.08-1.08 0-1.98-.36-2.7-1.26l-7.38-8.28c-5.94 3.42-11.52 5.76-18.18 7.56l.54 10.98c0 1.26-.36 2.16-1.08 2.88-.72.9-1.62 1.26-2.7 1.26zm-30.24-7.74h26.1l-.54-10.08c0-1.98 1.26-3.42 3.06-3.96 8.1-1.8 14.76-4.5 21.78-9 1.62-.9 3.6-.72 4.86.72l6.84 7.74 18.54-18.54-7.74-6.84c-1.44-1.26-1.62-3.24-.72-4.86 4.5-7.2 7.2-13.68 9-21.78.36-1.8 1.98-3.06 3.78-3.06l10.26.54v-26.28l-10.26.72c-1.8 0-3.42-1.26-3.78-3.06-1.8-8.1-4.5-14.76-9-21.78-1.08-1.62-.72-3.6.72-4.86l7.56-6.84-18.54-18.54-6.84 7.74c-1.26 1.44-3.24 1.62-4.86.54-7.02-4.32-13.68-7.02-21.78-9-1.8-.36-3.06-1.98-3.06-3.78l.72-10.26h-26.28l.72 10.26c0 1.8-1.26 3.42-3.06 3.78-8.1 1.8-14.76 4.5-21.78 9-1.62 1.08-3.6.72-4.86-.72l-6.84-7.56-18.54 18.54 7.74 6.84c1.44 1.26 1.62 3.24.54 4.86-4.32 7.02-7.02 13.68-9 21.78-.36 1.8-1.98 3.06-3.78 3.06l-10.26-.72v26.28l10.08-.72c1.98 0 3.42 1.26 3.96 3.06 1.8 8.1 4.5 14.76 9 21.78.9 1.62.72 3.6-.72 4.86l-7.74 6.84 18.54 18.54 6.84-7.74c1.26-1.44 3.24-1.62 4.86-.54 7.02 4.32 13.68 7.02 21.78 9 1.8.36 3.06 1.98 3.06 3.78z"
       stroke="#fff"
       stroke-opacity="0"
       fill="#cd2264"
       id="path881" />
    <path
       d="M1151.74 195.12c-21.14.07-38.9-13.9-43.86-34.46l7.7-1.76c3.44 14.5 14.23 24.94 28.82 27.94 20.34 4.16 40.06-8.92 44.2-29.18l7.7 1.54c-4.5 21.3-22.72 36.07-44.56 35.92zM1115.07 142.5l-7.6-1.55c5.06-24.42 28.88-40.13 53.3-35.1 16.8 3.46 29.42 15.04 34.23 31.5l-7.1 2.17c-4-13.82-14.52-23.48-28.62-26.34-20.3-4.1-40.1 9.02-44.2 29.3z"
       stroke="#fff"
       stroke-opacity="0"
       fill="#cd2264"
       id="path883" />
    <path
       d="M1175.36 133.22l1.45-2.8 13.8 6.97 5.97-14.3 2.92 1.24-7.3 17.4-16.84-8.52zM1108.72 186.57l-7.66-1.57 5.52-26.33c.45-2.04 2.44-3.34 4.46-2.94l27.55 4.33-1.2 7.66-23.92-3.83z"
       stroke="#fff"
       stroke-opacity="0"
       fill="#cd2264"
       id="path885" />
    <path
       d="M1193 145.56c-.56 0-1.03-.1-1.54-.3l-25.45-11.5 3.17-7.02 22.08 9.85 10.57-20.72 6.82 3.47-12.2 24.13c-.67 1.34-1.95 2.1-3.45 2.08z"
       stroke="#fff"
       stroke-opacity="0"
       fill="#cd2264"
       id="path887" />
    <use
       xlink:href="#k"
       transform="matrix(1,0,0,1,1031.5,249) translate(17.160493827160494 24.888888888888893)"
       id="use889" />
    <path
       d="M23 400c0-11.05 8.95-20 20-20h380c11.05 0 20 8.95 20 20v280c0 11.05-8.95 20-20 20H43c-11.05 0-20-8.95-20-20z"
       stroke="#000"
       stroke-width="2"
       fill="#ffbbb1"
       id="path891" />
    <path
       d="M21.5 599h420v122h-420z"
       stroke="#000"
       stroke-opacity="0"
       stroke-width="2"
       fill="#fff"
       fill-opacity="0"
       id="path893" />
    <use
       xlink:href="#l"
       transform="matrix(1,0,0,1,26.5,604) translate(56.617283950617264 63.73263888888889)"
       id="use895" />
    <use
       xlink:href="#e"
       transform="matrix(1,0,0,1,26.5,604) translate(201.45679012345678 63.73263888888889)"
       id="use897" />
    <use
       xlink:href="#m"
       transform="matrix(1,0,0,1,26.5,604) translate(261.95061728395063 63.73263888888889)"
       id="use899" />
    <path
       d="M163 446.25h17.1V450h-14s-3.1 0-3.1-3.75z"
       stroke="#000"
       stroke-opacity="0"
       stroke-width="3"
       fill="#646565"
       id="path901" />
    <path
       d="M175.44 435h-3.1c-5.16 0-9.34 5.04-9.34 11.25h3.1c0-4.14 2.8-7.5 6.23-7.5h3.1z"
       stroke="#000"
       stroke-opacity="0"
       stroke-width="3"
       fill="#646565"
       fill-opacity=".5"
       id="path903" />
    <path
       d="M163 468.75h17.1v3.75h-14s-3.1 0-3.1-3.75z"
       stroke="#000"
       stroke-opacity="0"
       stroke-width="3"
       fill="#646565"
       id="path905" />
    <path
       d="M175.44 457.5h-3.1c-5.16 0-9.34 5.04-9.34 11.25h3.1c0-4.14 2.8-7.5 6.23-7.5h3.1z"
       stroke="#000"
       stroke-opacity="0"
       stroke-width="3"
       fill="#646565"
       fill-opacity=".5"
       id="path907" />
    <path
       d="M163 491.25h17.1V495h-14s-3.1 0-3.1-3.75z"
       stroke="#000"
       stroke-opacity="0"
       stroke-width="3"
       fill="#646565"
       id="path909" />
    <path
       d="M175.44 480h-3.1c-5.16 0-9.34 5.04-9.34 11.25h3.1c0-4.14 2.8-7.5 6.23-7.5h3.1z"
       stroke="#000"
       stroke-opacity="0"
       stroke-width="3"
       fill="#646565"
       fill-opacity=".5"
       id="path911" />
    <path
       d="M163 513.75h17.1v3.75h-14s-3.1 0-3.1-3.75z"
       stroke="#000"
       stroke-opacity="0"
       stroke-width="3"
       fill="#646565"
       id="path913" />
    <path
       d="M175.44 502.5h-3.1c-5.16 0-9.34 5.04-9.34 11.25h3.1c0-4.14 2.8-7.5 6.23-7.5h3.1z"
       stroke="#000"
       stroke-opacity="0"
       stroke-width="3"
       fill="#646565"
       fill-opacity=".5"
       id="path915" />
    <path
       d="M163 536.25h17.1V540h-14s-3.1 0-3.1-3.75z"
       stroke="#000"
       stroke-opacity="0"
       stroke-width="3"
       fill="#646565"
       id="path917" />
    <path
       d="M175.44 525h-3.1c-5.16 0-9.34 5.04-9.34 11.25h3.1c0-4.14 2.8-7.5 6.23-7.5h3.1z"
       stroke="#000"
       stroke-opacity="0"
       stroke-width="3"
       fill="#646565"
       fill-opacity=".5"
       id="path919" />
    <path
       d="M163 558.75h17.1v3.75h-14s-3.1 0-3.1-3.75z"
       stroke="#000"
       stroke-opacity="0"
       stroke-width="3"
       fill="#646565"
       id="path921" />
    <path
       d="M175.44 547.5h-3.1c-5.16 0-9.34 5.04-9.34 11.25h3.1c0-4.14 2.8-7.5 6.23-7.5h3.1z"
       stroke="#000"
       stroke-opacity="0"
       stroke-width="3"
       fill="#646565"
       fill-opacity=".5"
       id="path923" />
    <path
       d="M163 581.25h17.1V585h-14s-3.1 0-3.1-3.75z"
       stroke="#000"
       stroke-opacity="0"
       stroke-width="3"
       fill="#646565"
       id="path925" />
    <path
       d="M175.44 570h-3.1c-5.16 0-9.34 5.04-9.34 11.25h3.1c0-4.14 2.8-7.5 6.23-7.5h3.1z"
       stroke="#000"
       stroke-opacity="0"
       stroke-width="3"
       fill="#646565"
       fill-opacity=".5"
       id="path927" />
    <path
       d="M200.33 420c-9.33 0-21.77 11.28-21.77 11.28h6.22v157.4h108.9v7.57l9.32-11.28V420z"
       stroke="#000"
       stroke-opacity="0"
       stroke-width="3"
       fill="#0072c6"
       id="path929" />
    <path
       d="M194.07 423.75l-10.85 7.43h4.67V592.5h105.8l6.2-7.42V423.75z"
       stroke="#000"
       stroke-opacity="0"
       stroke-width="3"
       fill="#fff"
       fill-opacity=".75"
       id="path931" />
    <path
       d="M195.7 423.75l-10.92 7.5h108.9l6.2-7.5z"
       stroke="#000"
       stroke-opacity="0"
       stroke-width="3"
       fill="#fff"
       fill-opacity=".8"
       id="path933" />
    <path
       d="M175.44 600v-11.3h6.27l3.08-3.72v-3.7l-3.07-3.72h-6.26v-11.3h6.27l3.08-3.72v-3.7l-3.07-3.9h-6.26V543.8h6.27l3.08-3.88v-3.7l-3.07-3.72h-6.26v-11.3h6.27l3.08-3.72v-3.7l-3.07-3.72h-6.26v-11.3h6.27l3.08-3.72v-3.72l-3.07-3.88h-6.26V476.3h6.27l3.08-3.88v-3.7L181.7 465h-6.26v-11.3h6.27l3.08-3.72v-3.7l-3.07-3.72h-6.26v-11.3h118.23V600z"
       stroke="#000"
       stroke-opacity="0"
       stroke-width="3"
       fill="#0072c6"
       id="path935" />
    <path
       d="M245.94 528.93h.2l13.83-9.32c.14 0 .2-.17.2-.35V500.7c0-.17-.06-.35-.2-.44-.13-.1-.27-.1-.4 0l-13.83 9.22c-.14.1-.2.27-.2.45v18.54c0 .2.06.37.2.46h.2m0 24.42c.07 0 .14 0 .2-.1l13.83-9.22c.14-.1.2-.18.2-.36v-18.54c0-.18-.06-.36-.2-.45-.13-.1-.27-.1-.4 0l-13.83 9.22c-.14.1-.2.27-.2.45v18.54c0 .27.2.45.4.45m17.93-36.63h.2l13.84-9.23c.14-.1.2-.28.2-.46V488.5c0-.18-.06-.36-.2-.45-.13-.1-.27-.1-.4 0l-13.83 9.3c-.14 0-.2.2-.2.37v18.55c0 .18.06.36.2.45h.2m0 24.42c.07 0 .14 0 .2-.1l13.84-9.22c.14-.1.2-.18.2-.36v-18.54c0-.18-.06-.36-.2-.45-.13-.1-.27-.1-.4 0l-13.83 9.22c-.14.08-.2.26-.2.44v18.54c0 .2.06.28.2.37.07.1.14.1.2.1m-22.03-12.22h-.2l-13.84-9.32c-.13 0-.2-.17-.2-.35V500.7c0-.17.07-.35.2-.44.14-.1.28-.1.42 0l13.82 9.22c.14.1.2.27.2.45v18.54c0 .28-.13.46-.4.46m0 24.42c-.07 0-.14 0-.2-.1l-13.84-9.22c-.13-.1-.2-.18-.2-.36v-18.54c0-.18.07-.36.2-.45.14-.1.28-.1.42 0l13.82 9.22c.14.1.2.27.2.45v18.54c0 .27-.13.45-.4.45m-17.94-36.63h-.2l-13.83-9.23c-.13-.1-.2-.28-.2-.46V488.5c0-.18.07-.36.2-.45.14-.1.28-.1.4 0l13.84 9.3c.15 0 .2.2.2.37v18.55c0 .27-.12.45-.33.45h-.07m0 24.42c-.07 0-.13 0-.2-.1l-13.83-9.22c-.13-.1-.2-.18-.2-.36v-18.54c0-.18.07-.36.2-.45.14-.1.28-.1.4 0l13.84 9.22c.15.08.2.26.2.44v18.54c0 .28-.12.46-.33.46h-.07m6.03-45.95c.06-.1.06-.2.13-.2l13.76-9.03c.14-.1.27-.1.4 0l13.63 8.95c.14.1.2.18.2.36s-.06.36-.2.45l-13.76 8.96c-.14.08-.28.08-.42 0l-13.62-8.87c-.2-.2-.27-.46-.13-.64M212 483.42c.06-.1.06-.18.13-.18l13.62-9.04c.14-.08.27-.08.4 0l13.5 8.96c.06.1.2.18.2.36-.07.2-.14.37-.27.46l-13.56 8.95c-.13.1-.27.1-.4 0l-13.5-8.86c-.13-.1-.2-.27-.2-.45 0-.1.07-.2.07-.2m36.2.2c.07-.1.14-.2.2-.2l13.56-9.03c.14-.1.27-.1.4 0l13.5 8.94c.06.1.2.28.2.46-.07.1-.14.27-.28.36l-13.55 9.04c-.13.1-.27.1-.4 0l-13.5-8.95c-.06-.1-.2-.27-.2-.45 0-.1.07-.1.07-.18M230 472.04c.06-.1.06-.18.13-.18L243.9 463c.13-.1.26-.1.4 0l13.62 8.77c.14.1.2.18.2.36s-.06.36-.2.45l-13.76 8.86c-.13.1-.27.1-.4 0l-13.63-8.86c-.14 0-.2-.18-.2-.36 0-.1.06-.18.06-.18"
       stroke="#000"
       stroke-opacity="0"
       stroke-width="3"
       fill="#fff"
       id="path937" />
    <path
       d="M228.74 574.38c-5.62 0-10.58-5.57-14.23-9.65-1.02-1.15-2.05-2.26-2.6-2.78-2.44-2.07-7.12-4.28-11.8-4.28h-4.2c-2.63 0-4.7-2.54-4.7-5.6v-17.48c0-3.08 2.07-5.63 4.7-5.63h6.92l.37 3.75v-3.75c1.96 0 5.14-.67 7.85-1.3 2.25-.52 4.3-.95 6.08-1.15.75-.1 1.5-.14 2.25-.14 2.25 0 9.64.43 12.9 6 .4.62 2.07 3.17 2.9 3.94.67.67 2.35 1.34 5.07 1.34h.47c.18 0 .65-.05 1.3-.14 1.88-.2 4.68-.48 6.84-.48.47 0 .93 0 1.3.04 4.12.4 6.28 3.7 6.75 6.87.1 1.2 0 2.83-.56 4.36l1.5-.9c4.77-2.83 11.32-6.72 15.16-8.25 1.4-.63 2.7-.87 4.3-.9 3 0 5.62 1.52 6.74 4.1.66 1.4 1.5 4.28-.46 8.03-1.03 1.97-2.62 3.84-4.4 5.13-3.56 2.7-6.55 4.9-10.2 7.55-1.4 1.06-2.9 2.2-4.3 3.36-5.06 3.9-8.24 6.34-10.68 6.73-1.12.14-2.05.2-3.27.2-1.03 0-2.25-.06-3.37-.06-1.22-.05-2.25-.1-3.46-.1-.84 0-1.6.05-2.25.1l-3.18.34c-2.8.34-6.27.78-9.73.78z"
       stroke="#000"
       stroke-opacity="0"
       stroke-width="3"
       fill="#0072c6"
       id="path939" />
    <path
       d="M273.68 543.06c-5.24 2.15-16.86 9.44-19.48 10.82-3.14 1.62-9.35 2.6-16.25 2.43-3.84-.08-6.55-.6-8.12-2.3 0 0-5.5-5.4-6.55-6.68-1.92-2.23.52-5.63 2.36-3.85 1.4 1.33 3.75 4.13 6.02 6.2 2.27 2.02 10.22 1.1 13.54.8 3.85-.32 6.03-1.2 6.82-1.74 1.22-.7 1.57-2.95 1.48-3.88-.17-1.38-1.22-3.4-3.84-3.65-2.62-.24-8.3.57-9.17.57-4.03.12-6.4-.97-7.53-2.15-1.22-1.17-3.32-4.2-3.58-4.74-2.02-3.44-7.6-4.78-12.32-4.25-3.94.45-10.66 2.6-14.5 2.47h-7c-.87 0-1.57.85-1.57 1.86v17.46c0 1.05.7 1.86 1.6 1.86l4.27.04c4.98 0 10.3 2.27 13.45 4.94 3.14 2.67 9.26 11.75 15.1 11.75 4.73 0 9.45-.8 12.68-1.1 3.32-.3 9.6.3 12.23-.1 2.53-.46 8.56-5.8 13.7-9.53 3.16-2.3 6.65-4.9 10.23-7.57 1.4-1.05 2.62-2.5 3.4-3.93 2.54-4.9-1.83-7.77-6.98-5.7z"
       stroke="#000"
       stroke-opacity="0"
       stroke-width="3"
       fill="#fff"
       id="path941" />
    <path
       d="M163 446.27v135l6.4 3.88h5.75l.26 3.54V600h118.27V431.25H175.4v3.7l-6.52 2.38z"
       stroke="#000"
       stroke-opacity="0"
       stroke-width="0"
       fill-opacity="0"
       id="path943" />
    <use
       xlink:href="#n"
       transform="matrix(1,0,0,1,133,609) translate(13.839506172839506 24.888888888888893)"
       id="use945" />
    <path
       d="M483 400c0-11.05 8.95-20 20-20h380c11.05 0 20 8.95 20 20v280c0 11.05-8.95 20-20 20H503c-11.05 0-20-8.95-20-20z"
       stroke="#000"
       stroke-width="2"
       fill="#ffeca9"
       id="path947" />
    <path
       d="M481.5 600h420v122h-420z"
       stroke="#000"
       stroke-opacity="0"
       stroke-width="2"
       fill="#fff"
       fill-opacity="0"
       id="path949" />
    <path
       d="M1177.1 424.6c-31.37 0-56.85 26.46-57.66 59.23 6.57-3.64 12.9-5.34 20.4-5.34 24.34 0 44.06 20.75 44.06 46.36 0 7.64-1.85 14.8-4.85 21.12 30.9-1.1 55.7-27.8 55.7-60.7 0-33.37-25.83-60.7-57.66-60.7z"
       stroke="#000"
       stroke-opacity="0"
       stroke-width="3"
       fill="#fff"
       id="path953" />
    <path
       d="M1180.36 548.6c12.52-11.64 25.92-29.98 25.92-63.26s-13.18-52.38-26.04-63.27l-5.2 5.45c12.04 10.24 23.18 24.3 23.18 57.82 0 33.78-11.52 47.2-23.32 58.07l5.46 5.2z"
       stroke="#000"
       stroke-opacity="0"
       stroke-width="3"
       fill="#3898c5"
       id="path955" />
    <path
       d="M1123.16 481.54h108.47v7.6h-108.47zm54.23-24.67c-17.8 0-33.85-5.2-43.5-13l-4.34 4.58c10.74 9.05 28.1 14.98 47.83 14.98 19.74 0 37.1-5.93 47.83-14.98l-4.34-4.57c-9.66 7.78-25.72 13-43.5 13z"
       stroke="#000"
       stroke-opacity="0"
       stroke-width="3"
       fill="#3898c5"
       id="path957" />
    <path
       d="M1105.44 546.7l-34.1 35.98c-3.8 3.94-3.8 10.4 0 14.34 3.74 4 9.86 4 13.6 0l34.17-35.92-13.66-14.4z"
       stroke="#000"
       stroke-opacity="0"
       stroke-width="3"
       fill="#7a7b7b"
       id="path959" />
    <path
       d="M1092.06 560.8c3.74 6.03 7.94 10.45 13.66 14.4l8.92-9.4-13.66-14.38-8.92 9.4z"
       stroke="#000"
       stroke-opacity="0"
       stroke-width="3"
       fill="#1d1d1d"
       fill-opacity=".4"
       id="path961" />
    <path
       d="M1169.63 524.52c0 17.85-13.76 32.35-30.72 32.35-16.95 0-30.7-14.5-30.7-32.35 0-17.86 13.75-32.35 30.7-32.35 16.97 0 30.73 14.5 30.73 32.35z"
       stroke="#000"
       stroke-opacity="0"
       stroke-width="3"
       fill="#fff"
       id="path963" />
    <path
       d="M1177.4 524.88c0 21.82-16.83 39.53-37.55 39.53-20.73 0-37.55-17.7-37.55-39.52 0-21.83 16.82-39.54 37.55-39.54 20.72 0 37.55 17.7 37.55 39.54z"
       stroke="#000"
       stroke-opacity="0"
       stroke-width="3"
       fill="#fff"
       id="path965" />
    <path
       d="M1156.62 481.98c.76-31.1 11.55-44.62 23.2-54.46l-5.3-5.45c-12.1 10.27-24.4 27.76-25.86 57.4 2.76.52 5.43 1.46 7.96 2.5zm24.03 25.44c.76 2.1 1.45 4.3 2 6.6 15.67.84 29.52 5.76 38.17 12.78l4.36-4.6c-10.1-8.5-26.24-14.25-44.53-14.78z"
       stroke="#000"
       stroke-opacity="0"
       stroke-width="3"
       fill="#3898c5"
       id="path967" />
    <path
       d="M1177.4 421c-33.73 0-61.1 28.82-61.1 64.34v.38c2.68-1.67 5-2.95 7.8-4.1 1.85-29.35 25.07-52.5 53.3-52.5 29.45 0 53.4 25.2 53.4 56.22 0 29.72-22 54.17-49.86 56.1-1.1 2.96-2.32 5.4-3.9 8.24h.36c33.73 0 61.1-28.83 61.1-64.34 0-35.52-27.37-64.34-61.1-64.34z"
       stroke="#000"
       stroke-opacity="0"
       stroke-width="3"
       fill="#3898c5"
       id="path969" />
    <path
       d="M1134.98 546.44l-7.04-21.95-5.4 11.24h-10v-5.63h6.6l9.78-20.27 6.06 18.7 8.63-27.07 7.06 21.9 6.6-13.22h9.9v5.67h-6.78l-10.7 22.23-6.07-18.7-8.62 27.1z"
       stroke="#000"
       stroke-opacity="0"
       stroke-width="3"
       fill="#7fba00"
       id="path971" />
    <path
       d="M1114.2 537.4c0-23.37 15.48-39.52 37.54-39.52 6.86 0 13.3 2 18.83 5.38-6.5-11.8-18.55-19.75-32.5-19.75-20.7 0-37.5 17.7-37.5 39.52 0 14.67 7.55 27.35 18.75 34.2-3.5-6.33-5.1-12.53-5.1-19.83z"
       stroke="#000"
       stroke-opacity="0"
       stroke-width="3"
       fill="#3898c5"
       fill-opacity=".2"
       id="path973" />
    <path
       d="M1139.85 474.92c-26.2 0-47.45 22.38-47.45 49.96 0 27.57 21.25 49.96 47.45 49.96 26.2 0 47.45-22.4 47.45-49.96 0-27.58-21.26-49.96-47.45-49.96zm0 87.03c-19.46 0-35.2-16.6-35.2-37.07 0-20.5 15.74-37.07 35.2-37.07 19.45 0 35.2 16.6 35.2 37.08 0 20.48-15.75 37.07-35.2 37.07z"
       stroke="#000"
       stroke-opacity="0"
       stroke-width="3"
       fill="#7a7b7b"
       id="path975" />
    <use
       xlink:href="#p"
       transform="matrix(1,0,0,1,1038.5,609) translate(-1.018518518518519 24.888888888888893)"
       id="use977" />
    <path
       d="M941.5 600h420v122h-420z"
       stroke="#000"
       stroke-opacity="0"
       stroke-width="2"
       fill="#fff"
       fill-opacity="0"
       id="path979" />
    <use
       xlink:href="#j"
       transform="matrix(1,0,0,1,946.5,605) translate(148.91358024691357 63.73263888888889)"
       id="use981" />
    <path
       d="M781.5 522.54c0 47.7-39.7 86.44-88.6 86.44-48.9 0-88.6-38.73-88.6-86.44 0-47.72 39.7-86.45 88.6-86.45 48.9 0 88.6 38.72 88.6 86.44z"
       fill="#9d5025"
       id="path983" />
    <path
       d="M781.5 515.45c0 47.7-39.7 86.44-88.6 86.44-48.9 0-88.6-38.74-88.6-86.45 0-47.72 39.7-86.45 88.6-86.45 48.9 0 88.6 38.73 88.6 86.45z"
       fill="#f58536"
       id="path985" />
    <path
       d="M618.42 490.22h32.16v50.45h-32.16v-50.45zM721.22 455.75h28.7v28h-28.7v-28zM721.22 501.43h28.7v28h-28.7v-28zM721.22 547.15h28.7v28h-28.7v-28z"
       fill="#fff"
       id="path987" />
    <path
       d="M713.28 519.1l4.8-2.23 3.14-1.5-3.14-1.53-4.25-2.06-12.8-6.17v6.18h-38.44l43.7-27.35 3.45 5.28 7.23-11.97 2.12-3.48 2.12-3.5-4.1.46-4.62.54-13.68 1.6 3.3 4.93-53.6 33.5-5.9 3.68 7.08 4.37 52.42 32.8-3.3 4.92 13.68 1.6 4.63.54 4.1.45-2.13-3.5-2.12-3.47-7.23-11.98-3.46 5.28-43.7-27.35H701v6l12.26-6z"
       fill="#fff"
       id="path989" />
    <g
       id="g993">
      <use
         xlink:href="#q"
         transform="matrix(1,0,0,1,604.3143276139276,609) translate(-6.623456790123456 24.888888888888893)"
         id="use991" />
    </g>
    <defs
       id="defs1263">
      <path
         d="M169-182c-1-43-94-46-97-3 18 66 151 10 154 114 3 95-165 93-204 36-6-8-10-19-12-30l50-8c3 46 112 56 116 5-17-69-150-10-154-114-4-87 153-88 188-35 5 8 8 18 10 28"
         id="r" />
      <path
         d="M24 0v-248h52V0H24"
         id="s" />
      <path
         d="M230 0l2-204L168 0h-37L68-204 70 0H24v-248h70l56 185 57-185h69V0h-46"
         id="t" />
      <path
         d="M24-248c93 1 206-16 204 79-1 75-69 88-152 82V0H24v-248zm52 121c47 0 100 7 100-41 0-47-54-39-100-39v80"
         id="u" />
      <path
         d="M24 0v-248h52v208h133V0H24"
         id="v" />
      <path
         d="M24 0v-248h195v40H76v63h132v40H76v65h150V0H24"
         id="w" />
      <g
         id="a">
        <use
           transform="matrix(0.08641975308641976,0,0,0.08641975308641976,0,0)"
           xlink:href="#r"
           id="use1001" />
        <use
           transform="matrix(0.08641975308641976,0,0,0.08641975308641976,20.740740740740744,0)"
           xlink:href="#s"
           id="use1003" />
        <use
           transform="matrix(0.08641975308641976,0,0,0.08641975308641976,29.382716049382726,0)"
           xlink:href="#t"
           id="use1005" />
        <use
           transform="matrix(0.08641975308641976,0,0,0.08641975308641976,55.22222222222223,0)"
           xlink:href="#u"
           id="use1007" />
        <use
           transform="matrix(0.08641975308641976,0,0,0.08641975308641976,75.96296296296298,0)"
           xlink:href="#v"
           id="use1009" />
        <use
           transform="matrix(0.08641975308641976,0,0,0.08641975308641976,94.8888888888889,0)"
           xlink:href="#w"
           id="use1011" />
      </g>
      <path
         d="M59-47c-2 24 18 29 38 22v24C64 9 27 4 27-40v-127H5v-23h24l9-43h21v43h35v23H59v120"
         id="x" />
      <path
         d="M100-194c62-1 85 37 85 99 1 63-27 99-86 99S16-35 15-95c0-66 28-99 85-99zM99-20c44 1 53-31 53-75 0-43-8-75-51-75s-53 32-53 75 10 74 51 75"
         id="y" />
      <g
         id="b">
        <use
           transform="matrix(0.08641975308641976,0,0,0.08641975308641976,0,0)"
           xlink:href="#x"
           id="use1016" />
        <use
           transform="matrix(0.08641975308641976,0,0,0.08641975308641976,8.641975308641976,0)"
           xlink:href="#y"
           id="use1018" />
      </g>
      <path
         d="M206 0h-36l-40-164L89 0H53L-1-190h32L70-26l43-164h34l41 164 42-164h31"
         id="z" />
      <path
         d="M114-163C36-179 61-72 57 0H25l-1-190h30c1 12-1 29 2 39 6-27 23-49 58-41v29"
         id="A" />
      <path
         d="M24-231v-30h32v30H24zM24 0v-190h32V0H24"
         id="B" />
      <path
         d="M100-194c63 0 86 42 84 106H49c0 40 14 67 53 68 26 1 43-12 49-29l28 8c-11 28-37 45-77 45C44 4 14-33 15-96c1-61 26-98 85-98zm52 81c6-60-76-77-97-28-3 7-6 17-6 28h103"
         id="C" />
      <path
         d="M68-38c1 34 0 65-14 84H32c9-13 17-26 17-46H33v-38h35"
         id="D" />
      <g
         id="c">
        <use
           transform="matrix(0.08641975308641976,0,0,0.08641975308641976,0,0)"
           xlink:href="#z"
           id="use1026" />
        <use
           transform="matrix(0.08641975308641976,0,0,0.08641975308641976,22.38271604938272,0)"
           xlink:href="#A"
           id="use1028" />
        <use
           transform="matrix(0.08641975308641976,0,0,0.08641975308641976,32.66666666666667,0)"
           xlink:href="#B"
           id="use1030" />
        <use
           transform="matrix(0.08641975308641976,0,0,0.08641975308641976,39.49382716049384,0)"
           xlink:href="#x"
           id="use1032" />
        <use
           transform="matrix(0.08641975308641976,0,0,0.08641975308641976,48.13580246913581,0)"
           xlink:href="#C"
           id="use1034" />
        <use
           transform="matrix(0.08641975308641976,0,0,0.08641975308641976,65.41975308641976,0)"
           xlink:href="#D"
           id="use1036" />
      </g>
      <path
         d="M141-36C126-15 110 5 73 4 37 3 15-17 15-53c-1-64 63-63 125-63 3-35-9-54-41-54-24 1-41 7-42 31l-33-3c5-37 33-52 76-52 45 0 72 20 72 64v82c-1 20 7 32 28 27v20c-31 9-61-2-59-35zM48-53c0 20 12 33 32 33 41-3 63-29 60-74-43 2-92-5-92 41"
         id="E" />
      <path
         d="M85-194c31 0 48 13 60 33l-1-100h32l1 261h-30c-2-10 0-23-3-31C134-8 116 4 85 4 32 4 16-35 15-94c0-66 23-100 70-100zm9 24c-40 0-46 34-46 75 0 40 6 74 45 74 42 0 51-32 51-76 0-42-9-74-50-73"
         id="F" />
      <g
         id="d">
        <use
           transform="matrix(0.08641975308641976,0,0,0.08641975308641976,0,0)"
           xlink:href="#A"
           id="use1041" />
        <use
           transform="matrix(0.08641975308641976,0,0,0.08641975308641976,10.283950617283951,0)"
           xlink:href="#C"
           id="use1043" />
        <use
           transform="matrix(0.08641975308641976,0,0,0.08641975308641976,27.567901234567906,0)"
           xlink:href="#E"
           id="use1045" />
        <use
           transform="matrix(0.08641975308641976,0,0,0.08641975308641976,44.85185185185187,0)"
           xlink:href="#F"
           id="use1047" />
        <use
           transform="matrix(0.08641975308641976,0,0,0.08641975308641976,62.13580246913581,0)"
           xlink:href="#D"
           id="use1049" />
      </g>
      <path
         d="M117-194c89-4 53 116 60 194h-32v-121c0-31-8-49-39-48C34-167 62-67 57 0H25l-1-190h30c1 10-1 24 2 32 11-22 29-35 61-36"
         id="G" />
      <g
         id="e">
        <use
           transform="matrix(0.08641975308641976,0,0,0.08641975308641976,0,0)"
           xlink:href="#E"
           id="use1053" />
        <use
           transform="matrix(0.08641975308641976,0,0,0.08641975308641976,17.283950617283953,0)"
           xlink:href="#G"
           id="use1055" />
        <use
           transform="matrix(0.08641975308641976,0,0,0.08641975308641976,34.567901234567906,0)"
           xlink:href="#F"
           id="use1057" />
      </g>
      <g
         id="f">
        <use
           transform="matrix(0.08641975308641976,0,0,0.08641975308641976,0,0)"
           xlink:href="#C"
           id="use1060" />
        <use
           transform="matrix(0.08641975308641976,0,0,0.08641975308641976,17.283950617283953,0)"
           xlink:href="#F"
           id="use1062" />
        <use
           transform="matrix(0.08641975308641976,0,0,0.08641975308641976,34.567901234567906,0)"
           xlink:href="#B"
           id="use1064" />
        <use
           transform="matrix(0.08641975308641976,0,0,0.08641975308641976,41.39506172839506,0)"
           xlink:href="#x"
           id="use1066" />
      </g>
      <path
         d="M101-234c-31-9-42 10-38 44h38v23H63V0H32v-167H5v-23h27c-7-52 17-82 69-68v24"
         id="H" />
      <path
         d="M24 0v-261h32V0H24"
         id="I" />
      <path
         d="M135-143c-3-34-86-38-87 0 15 53 115 12 119 90S17 21 10-45l28-5c4 36 97 45 98 0-10-56-113-15-118-90-4-57 82-63 122-42 12 7 21 19 24 35"
         id="J" />
      <g
         id="h">
        <use
           transform="matrix(0.08641975308641976,0,0,0.08641975308641976,0,0)"
           xlink:href="#z"
           id="use1072" />
        <use
           transform="matrix(0.08641975308641976,0,0,0.08641975308641976,22.38271604938272,0)"
           xlink:href="#y"
           id="use1074" />
        <use
           transform="matrix(0.08641975308641976,0,0,0.08641975308641976,39.66666666666667,0)"
           xlink:href="#A"
           id="use1076" />
        <use
           transform="matrix(0.08641975308641976,0,0,0.08641975308641976,49.95061728395062,0)"
           xlink:href="#H"
           id="use1078" />
        <use
           transform="matrix(0.08641975308641976,0,0,0.08641975308641976,58.592592592592595,0)"
           xlink:href="#I"
           id="use1080" />
        <use
           transform="matrix(0.08641975308641976,0,0,0.08641975308641976,65.41975308641976,0)"
           xlink:href="#y"
           id="use1082" />
        <use
           transform="matrix(0.08641975308641976,0,0,0.08641975308641976,82.70370370370371,0)"
           xlink:href="#z"
           id="use1084" />
        <use
           transform="matrix(0.08641975308641976,0,0,0.08641975308641976,105.08641975308643,0)"
           xlink:href="#J"
           id="use1086" />
      </g>
      <path
         d="M140-251c80 0 125 45 125 126S219 4 139 4C58 4 15-44 15-125s44-126 125-126zm-1 214c52 0 73-35 73-88 0-50-21-86-72-86-52 0-73 35-73 86s22 88 72 88"
         id="K" />
      <path
         d="M240-174c0 40-23 61-54 70L253 0h-59l-57-94H76V0H24v-248c93 4 217-23 216 74zM76-134c48-2 112 12 112-38 0-48-66-32-112-35v73"
         id="L" />
      <path
         d="M136-208V0H84v-208H4v-40h212v40h-80"
         id="M" />
      <path
         d="M199 0l-22-63H83L61 0H9l90-248h61L250 0h-51zm-33-102l-36-108c-10 38-24 72-36 108h72"
         id="N" />
      <path
         d="M182-130c37 4 62 22 62 59C244 23 116-4 24 0v-248c84 5 203-23 205 63 0 31-19 50-47 55zM76-148c40-3 101 13 101-30 0-44-60-28-101-31v61zm0 110c48-3 116 14 116-37 0-48-69-32-116-35v72"
         id="O" />
      <g
         id="i">
        <use
           transform="matrix(0.08641975308641976,0,0,0.08641975308641976,0,0)"
           xlink:href="#u"
           id="use1094" />
        <use
           transform="matrix(0.08641975308641976,0,0,0.08641975308641976,20.740740740740744,0)"
           xlink:href="#K"
           id="use1096" />
        <use
           transform="matrix(0.08641975308641976,0,0,0.08641975308641976,44.93827160493828,0)"
           xlink:href="#L"
           id="use1098" />
        <use
           transform="matrix(0.08641975308641976,0,0,0.08641975308641976,67.320987654321,0)"
           xlink:href="#M"
           id="use1100" />
        <use
           transform="matrix(0.08641975308641976,0,0,0.08641975308641976,83.9135802469136,0)"
           xlink:href="#N"
           id="use1102" />
        <use
           transform="matrix(0.08641975308641976,0,0,0.08641975308641976,106.29629629629633,0)"
           xlink:href="#O"
           id="use1104" />
        <use
           transform="matrix(0.08641975308641976,0,0,0.08641975308641976,128.67901234567904,0)"
           xlink:href="#v"
           id="use1106" />
        <use
           transform="matrix(0.08641975308641976,0,0,0.08641975308641976,147.60493827160496,0)"
           xlink:href="#w"
           id="use1108" />
      </g>
      <path
         d="M179-190L93 31C79 59 56 82 12 73V49c39 6 53-20 64-50L1-190h34L92-34l54-156h33"
         id="P" />
      <g
         id="j">
        <use
           transform="matrix(0.08641975308641976,0,0,0.08641975308641976,0,0)"
           xlink:href="#E"
           id="use1112" />
        <use
           transform="matrix(0.08641975308641976,0,0,0.08641975308641976,17.283950617283953,0)"
           xlink:href="#G"
           id="use1114" />
        <use
           transform="matrix(0.08641975308641976,0,0,0.08641975308641976,34.567901234567906,0)"
           xlink:href="#E"
           id="use1116" />
        <use
           transform="matrix(0.08641975308641976,0,0,0.08641975308641976,51.851851851851855,0)"
           xlink:href="#I"
           id="use1118" />
        <use
           transform="matrix(0.08641975308641976,0,0,0.08641975308641976,58.67901234567903,0)"
           xlink:href="#P"
           id="use1120" />
        <use
           transform="matrix(0.08641975308641976,0,0,0.08641975308641976,74.23456790123458,0)"
           xlink:href="#J"
           id="use1122" />
        <use
           transform="matrix(0.08641975308641976,0,0,0.08641975308641976,89.79012345679013,0)"
           xlink:href="#B"
           id="use1124" />
        <use
           transform="matrix(0.08641975308641976,0,0,0.08641975308641976,96.61728395061732,0)"
           xlink:href="#J"
           id="use1126" />
      </g>
      <g
         id="k">
        <use
           transform="matrix(0.08641975308641976,0,0,0.08641975308641976,0,0)"
           xlink:href="#L"
           id="use1129" />
        <use
           transform="matrix(0.08641975308641976,0,0,0.08641975308641976,22.38271604938272,0)"
           xlink:href="#w"
           id="use1131" />
        <use
           transform="matrix(0.08641975308641976,0,0,0.08641975308641976,43.12345679012346,0)"
           xlink:href="#u"
           id="use1133" />
        <use
           transform="matrix(0.08641975308641976,0,0,0.08641975308641976,63.8641975308642,0)"
           xlink:href="#w"
           id="use1135" />
        <use
           transform="matrix(0.08641975308641976,0,0,0.08641975308641976,84.60493827160495,0)"
           xlink:href="#N"
           id="use1137" />
        <use
           transform="matrix(0.08641975308641976,0,0,0.08641975308641976,104.65432098765436,0)"
           xlink:href="#M"
           id="use1139" />
        <use
           transform="matrix(0.08641975308641976,0,0,0.08641975308641976,121.24691358024694,0)"
           xlink:href="#N"
           id="use1141" />
        <use
           transform="matrix(0.08641975308641976,0,0,0.08641975308641976,143.62962962962965,0)"
           xlink:href="#O"
           id="use1143" />
        <use
           transform="matrix(0.08641975308641976,0,0,0.08641975308641976,166.01234567901236,0)"
           xlink:href="#v"
           id="use1145" />
        <use
           transform="matrix(0.08641975308641976,0,0,0.08641975308641976,184.93827160493828,0)"
           xlink:href="#w"
           id="use1147" />
      </g>
      <path
         d="M143 0L79-87 56-68V0H24v-261h32v163l83-92h37l-77 82L181 0h-38"
         id="Q" />
      <g
         id="l">
        <use
           transform="matrix(0.08641975308641976,0,0,0.08641975308641976,0,0)"
           xlink:href="#z"
           id="use1151" />
        <use
           transform="matrix(0.08641975308641976,0,0,0.08641975308641976,22.38271604938272,0)"
           xlink:href="#y"
           id="use1153" />
        <use
           transform="matrix(0.08641975308641976,0,0,0.08641975308641976,39.66666666666667,0)"
           xlink:href="#A"
           id="use1155" />
        <use
           transform="matrix(0.08641975308641976,0,0,0.08641975308641976,49.95061728395062,0)"
           xlink:href="#Q"
           id="use1157" />
        <use
           transform="matrix(0.08641975308641976,0,0,0.08641975308641976,65.50617283950618,0)"
           xlink:href="#H"
           id="use1159" />
        <use
           transform="matrix(0.08641975308641976,0,0,0.08641975308641976,74.14814814814815,0)"
           xlink:href="#I"
           id="use1161" />
        <use
           transform="matrix(0.08641975308641976,0,0,0.08641975308641976,80.97530864197532,0)"
           xlink:href="#y"
           id="use1163" />
        <use
           transform="matrix(0.08641975308641976,0,0,0.08641975308641976,98.25925925925927,0)"
           xlink:href="#z"
           id="use1165" />
        <use
           transform="matrix(0.08641975308641976,0,0,0.08641975308641976,120.64197530864199,0)"
           xlink:href="#J"
           id="use1167" />
      </g>
      <path
         d="M84 4C-5 8 30-112 23-190h32v120c0 31 7 50 39 49 72-2 45-101 50-169h31l1 190h-30c-1-10 1-25-2-33-11 22-28 36-60 37"
         id="R" />
      <g
         id="m">
        <use
           transform="matrix(0.08641975308641976,0,0,0.08641975308641976,0,0)"
           xlink:href="#A"
           id="use1171" />
        <use
           transform="matrix(0.08641975308641976,0,0,0.08641975308641976,10.283950617283951,0)"
           xlink:href="#C"
           id="use1173" />
        <use
           transform="matrix(0.08641975308641976,0,0,0.08641975308641976,27.567901234567906,0)"
           xlink:href="#J"
           id="use1175" />
        <use
           transform="matrix(0.08641975308641976,0,0,0.08641975308641976,43.12345679012346,0)"
           xlink:href="#R"
           id="use1177" />
        <use
           transform="matrix(0.08641975308641976,0,0,0.08641975308641976,60.407407407407426,0)"
           xlink:href="#x"
           id="use1179" />
        <use
           transform="matrix(0.08641975308641976,0,0,0.08641975308641976,69.0493827160494,0)"
           xlink:href="#I"
           id="use1181" />
        <use
           transform="matrix(0.08641975308641976,0,0,0.08641975308641976,75.87654320987656,0)"
           xlink:href="#J"
           id="use1183" />
      </g>
      <path
         d="M186 0v-106H76V0H24v-248h52v99h110v-99h50V0h-50"
         id="S" />
      <g
         id="n">
        <use
           transform="matrix(0.08641975308641976,0,0,0.08641975308641976,0,0)"
           xlink:href="#r"
           id="use1187" />
        <use
           transform="matrix(0.08641975308641976,0,0,0.08641975308641976,20.740740740740744,0)"
           xlink:href="#S"
           id="use1189" />
        <use
           transform="matrix(0.08641975308641976,0,0,0.08641975308641976,43.12345679012346,0)"
           xlink:href="#N"
           id="use1191" />
        <use
           transform="matrix(0.08641975308641976,0,0,0.08641975308641976,65.50617283950618,0)"
           xlink:href="#L"
           id="use1193" />
        <use
           transform="matrix(0.08641975308641976,0,0,0.08641975308641976,87.8888888888889,0)"
           xlink:href="#N"
           id="use1195" />
        <use
           transform="matrix(0.08641975308641976,0,0,0.08641975308641976,110.27160493827162,0)"
           xlink:href="#O"
           id="use1197" />
        <use
           transform="matrix(0.08641975308641976,0,0,0.08641975308641976,132.65432098765433,0)"
           xlink:href="#v"
           id="use1199" />
        <use
           transform="matrix(0.08641975308641976,0,0,0.08641975308641976,151.58024691358025,0)"
           xlink:href="#w"
           id="use1201" />
      </g>
      <g
         id="o">
        <use
           transform="matrix(0.08641975308641976,0,0,0.08641975308641976,0,0)"
           xlink:href="#A"
           id="use1204" />
        <use
           transform="matrix(0.08641975308641976,0,0,0.08641975308641976,10.283950617283951,0)"
           xlink:href="#C"
           id="use1206" />
        <use
           transform="matrix(0.08641975308641976,0,0,0.08641975308641976,27.567901234567906,0)"
           xlink:href="#J"
           id="use1208" />
        <use
           transform="matrix(0.08641975308641976,0,0,0.08641975308641976,43.12345679012346,0)"
           xlink:href="#R"
           id="use1210" />
        <use
           transform="matrix(0.08641975308641976,0,0,0.08641975308641976,60.407407407407426,0)"
           xlink:href="#x"
           id="use1212" />
        <use
           transform="matrix(0.08641975308641976,0,0,0.08641975308641976,69.0493827160494,0)"
           xlink:href="#I"
           id="use1214" />
        <use
           transform="matrix(0.08641975308641976,0,0,0.08641975308641976,75.87654320987656,0)"
           xlink:href="#J"
           id="use1216" />
      </g>
      <path
         d="M175 0L67-191c6 58 2 128 3 191H24v-248h59L193-55c-6-58-2-129-3-193h46V0h-61"
         id="T" />
      <g
         id="p">
        <use
           transform="matrix(0.08641975308641976,0,0,0.08641975308641976,0,0)"
           xlink:href="#M"
           id="use1220" />
        <use
           transform="matrix(0.08641975308641976,0,0,0.08641975308641976,18.925925925925927,0)"
           xlink:href="#L"
           id="use1222" />
        <use
           transform="matrix(0.08641975308641976,0,0,0.08641975308641976,41.308641975308646,0)"
           xlink:href="#N"
           id="use1224" />
        <use
           transform="matrix(0.08641975308641976,0,0,0.08641975308641976,63.69135802469137,0)"
           xlink:href="#T"
           id="use1226" />
        <use
           transform="matrix(0.08641975308641976,0,0,0.08641975308641976,86.07407407407409,0)"
           xlink:href="#r"
           id="use1228" />
        <use
           transform="matrix(0.08641975308641976,0,0,0.08641975308641976,106.81481481481485,0)"
           xlink:href="#u"
           id="use1230" />
        <use
           transform="matrix(0.08641975308641976,0,0,0.08641975308641976,125.22222222222226,0)"
           xlink:href="#N"
           id="use1232" />
        <use
           transform="matrix(0.08641975308641976,0,0,0.08641975308641976,147.60493827160496,0)"
           xlink:href="#L"
           id="use1234" />
        <use
           transform="matrix(0.08641975308641976,0,0,0.08641975308641976,169.98765432098767,0)"
           xlink:href="#w"
           id="use1236" />
        <use
           transform="matrix(0.08641975308641976,0,0,0.08641975308641976,190.7283950617284,0)"
           xlink:href="#T"
           id="use1238" />
        <use
           transform="matrix(0.08641975308641976,0,0,0.08641975308641976,213.11111111111114,0)"
           xlink:href="#M"
           id="use1240" />
      </g>
      <path
         d="M67-125c0 53 21 87 73 88 37 1 54-22 65-47l45 17C233-25 199 4 140 4 58 4 20-42 15-125 8-235 124-281 211-232c18 10 29 29 36 50l-46 12c-8-25-30-41-62-41-52 0-71 34-72 86"
         id="U" />
      <g
         id="q">
        <use
           transform="matrix(0.08641975308641976,0,0,0.08641975308641976,0,0)"
           xlink:href="#M"
           id="use1244" />
        <use
           transform="matrix(0.08641975308641976,0,0,0.08641975308641976,18.925925925925927,0)"
           xlink:href="#L"
           id="use1246" />
        <use
           transform="matrix(0.08641975308641976,0,0,0.08641975308641976,41.308641975308646,0)"
           xlink:href="#N"
           id="use1248" />
        <use
           transform="matrix(0.08641975308641976,0,0,0.08641975308641976,63.69135802469137,0)"
           xlink:href="#U"
           id="use1250" />
        <use
           transform="matrix(0.08641975308641976,0,0,0.08641975308641976,86.07407407407409,0)"
           xlink:href="#w"
           id="use1252" />
        <use
           transform="matrix(0.08641975308641976,0,0,0.08641975308641976,106.81481481481485,0)"
           xlink:href="#N"
           id="use1254" />
        <use
           transform="matrix(0.08641975308641976,0,0,0.08641975308641976,129.19753086419755,0)"
           xlink:href="#O"
           id="use1256" />
        <use
           transform="matrix(0.08641975308641976,0,0,0.08641975308641976,151.58024691358025,0)"
           xlink:href="#v"
           id="use1258" />
        <use
           transform="matrix(0.08641975308641976,0,0,0.08641975308641976,170.50617283950618,0)"
           xlink:href="#w"
           id="use1260" />
      </g>
    </defs>
    <text
       xml:space="preserve"
       style="font-style:normal;font-variant:normal;font-weight:normal;font-stretch:normal;font-size:33.3333px;line-height:1.25;font-family:Arial;-inkscape-font-specification:'Arial, Normal';font-variant-ligatures:normal;font-variant-caps:normal;font-variant-numeric:normal;font-variant-east-asian:normal;fill:#000000;fill-opacity:1;stroke:none"
       x="635.96857"
       y="672.48956"
       id="text1277"><tspan
         sodipodi:role="line"
         id="tspan1275"
         x="635.96857"
         y="672.48956">results</tspan></text>
  </g>
</svg>
